<?xml version="1.0" encoding="utf-8"?>
<!-- Generator: Adobe Illustrator 18.1.0, SVG Export Plug-In . SVG Version: 6.00 Build 0)  -->
<svg version="1.1" id="Layer_1" xmlns="http://www.w3.org/2000/svg" xmlns:xlink="http://www.w3.org/1999/xlink" x="0px" y="0px"
	 viewBox="0 0 1280 366.2" enable-background="new 0 0 1280 366.2" xml:space="preserve">
<path fill="#FFFFFF" d="M640,271c-6.1,0-9,5.5-9,16.8c0,10.8,5.9,13.7,9,13.7s9-2.9,9-13.7C649,276.5,646.1,271,640,271z
	 M641.3,282.5c-0.6,0.6-1.9,0.6-2.5,0s-0.6-6.9,0-7.5c0.6-0.6,1.9-0.6,2.5,0C641.9,275.6,641.9,281.9,641.3,282.5z M640,271
	c-6.1,0-9,5.5-9,16.8c0,10.8,5.9,13.7,9,13.7s9-2.9,9-13.7C649,276.5,646.1,271,640,271z M641.3,282.5c-0.6,0.6-1.9,0.6-2.5,0
	s-0.6-6.9,0-7.5c0.6-0.6,1.9-0.6,2.5,0C641.9,275.6,641.9,281.9,641.3,282.5z M685.1,271.8c-3.8,1.2-7.8-0.6-9.6-4.1
	c-4.2-8.1-11.2-14.9-20.3-18.7c-20.4-8.4-43.8,1.3-52.2,21.7c-2.7,6.6-3.6,13.5-2.7,20.1c0.5,3.9-2,7.5-5.8,8.6
	C478.5,333.7,384.8,356,352,356C243,356,33,155,0,72v294.2h1280V0C1258.1,68.1,944.4,189.9,685.1,271.8z M640,313.4
	c-1.7,0-5.9-4.1-5-5c0.5-0.5,2.7-0.9,5-0.9c2.3,0,4.5,0.5,5,0.9C645.9,309.3,641.7,313.4,640,313.4z M640,303.5
	c-3.8,0-11-3.3-11-15.7c0-12.7,3.6-18.8,11-18.8s11,6.2,11,18.8C651,300.2,643.8,303.5,640,303.5z M640,271c-6.1,0-9,5.5-9,16.8
	c0,10.8,5.9,13.7,9,13.7s9-2.9,9-13.7C649,276.5,646.1,271,640,271z M641.3,282.5c-0.6,0.6-1.9,0.6-2.5,0s-0.6-6.9,0-7.5
	c0.6-0.6,1.9-0.6,2.5,0C641.9,275.6,641.9,281.9,641.3,282.5z"/>
</svg>
