<svg id="Слой_1" data-name="Слой 1" xmlns="http://www.w3.org/2000/svg" viewBox="0 0 192 495.52"><defs><style>.cls-1{fill:#cacaca;opacity:0.5;}.cls-2{fill:#a1193f;}.cls-3{fill:#d9193f;}.cls-4{fill:#cf1842;}.cls-5,.cls-7{fill:#fff;}.cls-5{opacity:0.1;}.cls-6{fill:#bc193f;}</style></defs><title>bold-column</title><ellipse class="cls-1" cx="96" cy="446.31" rx="91.54" ry="49.21"/><ellipse class="cls-2" cx="96" cy="435.31" rx="79.45" ry="42.71"/><rect class="cls-2" x="16.55" y="420.09" width="158.9" height="15.22"/><ellipse class="cls-3" cx="96" cy="420.09" rx="79.45" ry="42.71"/><ellipse class="cls-2" cx="96" cy="418.44" rx="64.88" ry="31.45"/><ellipse class="cls-4" cx="96" cy="420.92" rx="64.88" ry="30.62"/><path class="cls-2" d="M130.28,417.47c-10.89-6.29-29.23-6.12-29.23-6.12a18.11,18.11,0,0,0-7-6.78,23.17,23.17,0,0,0-4-1.81c-8.18-2.89-22.12.48-26.06,4-6.72,6,5.57,27.69,5.57,27.69s43.1,11.84,55.41,7.66,17-17.13,6.27-24l-1-.6" transform="translate(0 -0.55)"/><rect class="cls-2" x="133.24" y="424.12" width="4" height="3.65" transform="translate(-0.63 -0.36) rotate(-0.08)"/><polygon class="cls-2" points="62.01 407.68 62.04 412.75 69.83 412.75 69.83 407.68 62.01 407.68"/><path class="cls-3" d="M130.28,414c-10.89-6.29-29.23-6.12-29.23-6.12a18.11,18.11,0,0,0-7-6.78,24,24,0,0,0-4-1.81c-8.18-2.89-22.12.49-26.06,4-6.72,6,5.57,27.7,5.57,27.7s43.1,11.83,55.41,7.65,17-17.13,6.27-24l-1-.6" transform="translate(0 -0.55)"/><path class="cls-5" d="M158.23,394.11a52.55,52.55,0,0,1-8,7.58c-11.6-8.52-31.54-14.15-54.18-14.15-35.83,0-64.88,14.09-64.88,31.45a10.43,10.43,0,0,0,.06,1.26,10,10,0,0,0-.06,1.23,15.71,15.71,0,0,0,1.86,7.3c-5.19-.16-10.3-.47-15.29-.9a23.7,23.7,0,0,1-1.14-7.23c0-23.59,35.57-42.71,79.45-42.71C121.21,377.94,143.68,384.25,158.23,394.11Z" transform="translate(0 -0.55)"/><path class="cls-6" d="M125,438.58c-12.31,4.18-55.41-7.65-55.41-7.65s-.69-1.22-1.65-3.16c-3.11-6.24-9.06-20-3.92-24.53,3.93-3.51,17.89-6.89,26.06-4a24.08,24.08,0,0,1,4,1.81,18.11,18.11,0,0,1,7,6.78s17.39-.16,28.37,5.65c.29.15.57.31.85.47s.66.4,1,.61C142,421.45,137.31,434.41,125,438.58Z" transform="translate(0 -0.55)"/><path class="cls-3" d="M125,438.58c-12.31,4.18-55.41-7.65-55.41-7.65s-.69-1.22-1.65-3.16c-3.11-6.24-9.06-20-3.92-24.53,3.93-3.51,17.89-6.89,26.06-4a24.08,24.08,0,0,1,4,1.81,18.11,18.11,0,0,1,7,6.78s17.39-.16,28.37,5.65c.29.15.57.31.85.47s.66.4,1,.61C142,421.45,137.31,434.41,125,438.58Z" transform="translate(0 -0.55)"/><path class="cls-5" d="M129.43,413.48c-16.54,7.07-37.75,12.14-61.49,14.29-3.11-6.24-9.06-20-3.92-24.53,3.93-3.51,17.89-6.89,26.06-4a24.08,24.08,0,0,1,4,1.81,18.11,18.11,0,0,1,7,6.78S118.45,407.67,129.43,413.48Z" transform="translate(0 -0.55)"/><path class="cls-7" d="M172.49,432.23c-9.39,18-40.08,31.13-76.49,31.13-20.74,0-39.62-4.27-53.77-11.26,0,0,39.43,15.72,81.91,6.62C164,449.68,172.49,432.23,172.49,432.23Z" transform="translate(0 -0.55)"/><path class="cls-7" d="M134.65,417.48a10.63,10.63,0,0,1,2,10.62c-1.52,4.42-5.68,8.47-11.61,10.48-12.31,4.18-55.41-7.65-55.41-7.65s-.45-.81-1.14-2.16a8.31,8.31,0,0,0,1.72,1.77c9.79,3.1,45.07,11.9,57.21,5.83C143.24,427.77,134.65,417.48,134.65,417.48Z" transform="translate(0 -0.55)"/><ellipse class="cls-2" cx="104.28" cy="415.45" rx="79.45" ry="42.71"/><rect class="cls-2" x="24.83" y="400.23" width="158.9" height="15.22"/><ellipse class="cls-3" cx="104.28" cy="400.23" rx="79.45" ry="42.71"/><ellipse class="cls-2" cx="104.28" cy="398.58" rx="64.88" ry="31.45"/><ellipse class="cls-4" cx="104.28" cy="401.06" rx="64.88" ry="30.62"/><path class="cls-2" d="M138.55,397.61c-10.89-6.29-29.22-6.13-29.22-6.13a18.13,18.13,0,0,0-7-6.77,23.53,23.53,0,0,0-4-1.82c-8.18-2.88-22.13.49-26.06,4-6.73,6,5.57,27.69,5.57,27.69s43.1,11.83,55.4,7.66,17-17.13,6.27-24q-.48-.31-1-.6" transform="translate(0 -0.55)"/><rect class="cls-2" x="141.52" y="404.26" width="4" height="3.65" transform="translate(-0.6 -0.34) rotate(-0.08)"/><polygon class="cls-2" points="70.28 387.82 70.31 392.89 78.1 392.89 78.1 387.82 70.28 387.82"/><path class="cls-3" d="M138.55,394.09c-10.89-6.29-29.22-6.12-29.22-6.12a18.11,18.11,0,0,0-7-6.78,23.53,23.53,0,0,0-4-1.81c-8.18-2.89-22.13.48-26.06,4-6.73,6,5.57,27.69,5.57,27.69s43.1,11.84,55.4,7.66,17-17.13,6.27-24l-1-.6" transform="translate(0 -0.55)"/><path class="cls-5" d="M166.51,374.25a53,53,0,0,1-8,7.58c-11.6-8.52-31.54-14.15-54.18-14.15-35.84,0-64.89,14.09-64.89,31.45,0,.42,0,.85.06,1.26s-.06.81-.06,1.22a15.66,15.66,0,0,0,1.87,7.3c-5.19-.15-10.3-.46-15.29-.89a23.7,23.7,0,0,1-1.14-7.23c0-23.59,35.57-42.72,79.45-42.72C129.48,358.07,152,364.39,166.51,374.25Z" transform="translate(0 -0.55)"/><path class="cls-6" d="M133.27,418.72c-12.3,4.18-55.4-7.66-55.4-7.66s-.69-1.21-1.65-3.15c-3.11-6.24-9.06-20-3.92-24.54,3.93-3.51,17.88-6.88,26.06-4a24,24,0,0,1,4,1.81,18.11,18.11,0,0,1,7,6.78s17.4-.16,28.37,5.65c.29.15.57.31.85.47s.67.4,1,.61C150.26,401.59,145.59,414.55,133.27,418.72Z" transform="translate(0 -0.55)"/><path class="cls-3" d="M133.27,418.72c-12.3,4.18-55.4-7.66-55.4-7.66s-.69-1.21-1.65-3.15c-3.11-6.24-9.06-20-3.92-24.54,3.93-3.51,17.88-6.88,26.06-4a24,24,0,0,1,4,1.81,18.11,18.11,0,0,1,7,6.78s17.4-.16,28.37,5.65c.29.15.57.31.85.47s.67.4,1,.61C150.26,401.59,145.59,414.55,133.27,418.72Z" transform="translate(0 -0.55)"/><path class="cls-5" d="M137.7,393.62c-16.53,7.07-37.74,12.14-61.48,14.29-3.11-6.24-9.06-20-3.92-24.54,3.93-3.51,17.88-6.88,26.06-4a24,24,0,0,1,4,1.81,18.11,18.11,0,0,1,7,6.78S126.73,387.81,137.7,393.62Z" transform="translate(0 -0.55)"/><path class="cls-7" d="M180.77,412.37c-9.4,18-40.09,31.13-76.49,31.13-20.74,0-39.62-4.27-53.77-11.27,0,0,39.42,15.73,81.9,6.63C172.28,429.82,180.77,412.37,180.77,412.37Z" transform="translate(0 -0.55)"/><path class="cls-7" d="M142.93,397.62a10.64,10.64,0,0,1,2,10.61c-1.52,4.43-5.68,8.48-11.62,10.49-12.3,4.18-55.4-7.66-55.4-7.66s-.46-.8-1.15-2.15a8.72,8.72,0,0,0,1.73,1.77c9.78,3.1,45.07,11.9,57.21,5.83C151.52,407.91,142.93,397.62,142.93,397.62Z" transform="translate(0 -0.55)"/><ellipse class="cls-2" cx="87.72" cy="395.59" rx="79.45" ry="42.71"/><rect class="cls-2" x="8.28" y="380.37" width="158.9" height="15.22"/><ellipse class="cls-3" cx="87.72" cy="380.37" rx="79.45" ry="42.71"/><ellipse class="cls-2" cx="87.72" cy="378.71" rx="64.88" ry="31.45"/><ellipse class="cls-4" cx="87.72" cy="381.2" rx="64.88" ry="30.62"/><path class="cls-2" d="M122,377.75c-10.89-6.29-29.22-6.13-29.22-6.13a18.06,18.06,0,0,0-7-6.77,23.53,23.53,0,0,0-4-1.82c-8.18-2.88-22.13.49-26.06,4-6.73,6,5.56,27.69,5.56,27.69s43.1,11.83,55.41,7.66,17-17.13,6.27-24q-.48-.32-1-.6" transform="translate(0 -0.55)"/><rect class="cls-2" x="124.97" y="384.4" width="4" height="3.65" transform="translate(-0.57 -0.37) rotate(-0.08)"/><polygon class="cls-2" points="53.73 367.95 53.76 373.03 61.55 373.03 61.55 367.95 53.73 367.95"/><path class="cls-3" d="M122,374.23c-10.89-6.29-29.22-6.13-29.22-6.13a18.13,18.13,0,0,0-7-6.77,23.53,23.53,0,0,0-4-1.82c-8.18-2.88-22.13.49-26.06,4-6.73,6,5.56,27.69,5.56,27.69s43.1,11.83,55.41,7.66,17-17.13,6.27-24q-.48-.31-1-.6" transform="translate(0 -0.55)"/><path class="cls-5" d="M150,354.38a52.5,52.5,0,0,1-8.05,7.58c-11.61-8.51-31.54-14.14-54.19-14.14-35.83,0-64.88,14.09-64.88,31.45q0,.63.06,1.26c0,.4-.06.81-.06,1.22a15.77,15.77,0,0,0,1.86,7.3q-7.78-.24-15.28-.89a23.42,23.42,0,0,1-1.14-7.24c0-23.58,35.57-42.71,79.44-42.71C112.93,338.21,135.4,344.53,150,354.38Z" transform="translate(0 -0.55)"/><path class="cls-6" d="M116.72,398.86c-12.3,4.18-55.4-7.66-55.4-7.66s-.69-1.21-1.65-3.15c-3.11-6.24-9.06-20-3.92-24.54,3.93-3.51,17.88-6.88,26.06-4a23.53,23.53,0,0,1,4,1.82,18.13,18.13,0,0,1,7,6.77s17.4-.15,28.37,5.66c.29.15.57.3.85.47l1,.6C133.71,381.73,129,394.69,116.72,398.86Z" transform="translate(0 -0.55)"/><path class="cls-3" d="M116.72,398.86c-12.3,4.18-55.4-7.66-55.4-7.66s-.69-1.21-1.65-3.15c-3.11-6.24-9.06-20-3.92-24.54,3.93-3.51,17.88-6.88,26.06-4a23.53,23.53,0,0,1,4,1.82,18.13,18.13,0,0,1,7,6.77s17.4-.15,28.37,5.66c.29.15.57.3.85.47l1,.6C133.71,381.73,129,394.69,116.72,398.86Z" transform="translate(0 -0.55)"/><path class="cls-5" d="M121.15,373.76c-16.53,7.06-37.75,12.14-61.48,14.29-3.11-6.24-9.06-20-3.92-24.54,3.93-3.51,17.88-6.88,26.06-4a23.53,23.53,0,0,1,4,1.82,18.13,18.13,0,0,1,7,6.77S110.18,368,121.15,373.76Z" transform="translate(0 -0.55)"/><path class="cls-7" d="M164.21,392.51c-9.39,18-40.08,31.13-76.49,31.13-20.73,0-39.61-4.27-53.76-11.27,0,0,39.42,15.73,81.9,6.62C155.72,410,164.21,392.51,164.21,392.51Z" transform="translate(0 -0.55)"/><path class="cls-7" d="M126.37,377.76a10.62,10.62,0,0,1,2,10.61c-1.52,4.43-5.68,8.48-11.61,10.49-12.3,4.18-55.4-7.66-55.4-7.66s-.46-.8-1.15-2.15a8.72,8.72,0,0,0,1.73,1.77c9.78,3.1,45.07,11.9,57.2,5.83C135,388.05,126.37,377.76,126.37,377.76Z" transform="translate(0 -0.55)"/><ellipse class="cls-2" cx="96" cy="375.72" rx="79.45" ry="42.71"/><rect class="cls-2" x="16.55" y="360.51" width="158.9" height="15.22"/><ellipse class="cls-3" cx="96" cy="360.51" rx="79.45" ry="42.71"/><ellipse class="cls-2" cx="96" cy="358.85" rx="64.88" ry="31.45"/><ellipse class="cls-4" cx="96" cy="361.33" rx="64.88" ry="30.62"/><path class="cls-2" d="M130.28,357.89c-10.89-6.29-29.23-6.13-29.23-6.13A18.06,18.06,0,0,0,94,345a23.17,23.17,0,0,0-4-1.82c-8.18-2.89-22.12.49-26.06,4-6.72,6,5.57,27.69,5.57,27.69s43.1,11.83,55.41,7.65,17-17.13,6.27-24q-.5-.32-1-.6" transform="translate(0 -0.55)"/><rect class="cls-2" x="133.24" y="364.53" width="4" height="3.65" transform="translate(-0.54 -0.36) rotate(-0.08)"/><polygon class="cls-2" points="62.01 348.09 62.04 353.16 69.83 353.16 69.83 348.09 62.01 348.09"/><path class="cls-3" d="M130.28,354.37c-10.89-6.29-29.23-6.13-29.23-6.13a18.06,18.06,0,0,0-7-6.77,23.17,23.17,0,0,0-4-1.82c-8.18-2.88-22.12.49-26.06,4-6.72,6,5.57,27.69,5.57,27.69S112.69,383.17,125,379s17-17.13,6.27-24q-.5-.32-1-.6" transform="translate(0 -0.55)"/><path class="cls-5" d="M158.23,334.52a52.07,52.07,0,0,1-8,7.58C138.58,333.59,118.64,328,96,328,60.17,328,31.12,342,31.12,359.41a10.36,10.36,0,0,0,.06,1.25,10.13,10.13,0,0,0-.06,1.23,15.65,15.65,0,0,0,1.86,7.3c-5.19-.16-10.3-.46-15.29-.89a23.77,23.77,0,0,1-1.14-7.24c0-23.58,35.57-42.71,79.45-42.71C121.21,318.35,143.68,324.66,158.23,334.52Z" transform="translate(0 -0.55)"/><path class="cls-6" d="M125,379c-12.31,4.18-55.41-7.66-55.41-7.66s-.69-1.22-1.65-3.15c-3.11-6.24-9.06-20-3.92-24.54,3.93-3.51,17.89-6.89,26.06-4a24.08,24.08,0,0,1,4,1.81,18.19,18.19,0,0,1,7,6.78s17.39-.15,28.37,5.66c.29.14.57.3.85.47s.66.39,1,.6C142,361.86,137.31,374.82,125,379Z" transform="translate(0 -0.55)"/><path class="cls-3" d="M125,379c-12.31,4.18-55.41-7.66-55.41-7.66s-.69-1.22-1.65-3.15c-3.11-6.24-9.06-20-3.92-24.54,3.93-3.51,17.89-6.89,26.06-4a24.08,24.08,0,0,1,4,1.81,18.19,18.19,0,0,1,7,6.78s17.39-.15,28.37,5.66c.29.14.57.3.85.47s.66.39,1,.6C142,361.86,137.31,374.82,125,379Z" transform="translate(0 -0.55)"/><path class="cls-5" d="M129.43,353.9C112.89,361,91.68,366,67.94,368.19c-3.11-6.24-9.06-20-3.92-24.54,3.93-3.51,17.89-6.89,26.06-4a24.08,24.08,0,0,1,4,1.81,18.19,18.19,0,0,1,7,6.78S118.45,348.09,129.43,353.9Z" transform="translate(0 -0.55)"/><path class="cls-7" d="M172.49,372.65c-9.39,18-40.08,31.13-76.49,31.13-20.74,0-39.62-4.27-53.77-11.27,0,0,39.43,15.72,81.91,6.62C164,390.1,172.49,372.65,172.49,372.65Z" transform="translate(0 -0.55)"/><path class="cls-7" d="M134.65,357.9a10.62,10.62,0,0,1,2,10.61C135.09,372.94,130.93,377,125,379c-12.31,4.18-55.41-7.66-55.41-7.66s-.45-.81-1.14-2.15A8.56,8.56,0,0,0,70.17,371c9.79,3.1,45.07,11.9,57.21,5.83C143.24,368.19,134.65,357.9,134.65,357.9Z" transform="translate(0 -0.55)"/><ellipse class="cls-2" cx="104.28" cy="355.86" rx="79.45" ry="42.71"/><rect class="cls-2" x="24.83" y="340.65" width="158.9" height="15.22"/><ellipse class="cls-3" cx="104.28" cy="340.65" rx="79.45" ry="42.71"/><ellipse class="cls-2" cx="104.28" cy="338.99" rx="64.88" ry="31.45"/><ellipse class="cls-4" cx="104.28" cy="341.47" rx="64.88" ry="30.62"/><path class="cls-2" d="M138.55,338c-10.89-6.29-29.22-6.12-29.22-6.12a18.11,18.11,0,0,0-7-6.78,24.35,24.35,0,0,0-4-1.81c-8.18-2.89-22.13.49-26.06,4-6.73,6,5.57,27.7,5.57,27.7s43.1,11.83,55.4,7.65,17-17.13,6.27-24c-.32-.21-.65-.41-1-.61" transform="translate(0 -0.55)"/><rect class="cls-2" x="141.52" y="344.67" width="4" height="3.65" transform="translate(-0.51 -0.34) rotate(-0.08)"/><polygon class="cls-2" points="70.28 328.23 70.31 333.3 78.1 333.3 78.1 328.23 70.28 328.23"/><path class="cls-3" d="M138.55,334.51c-10.89-6.29-29.22-6.13-29.22-6.13a18.11,18.11,0,0,0-7-6.78,24.35,24.35,0,0,0-4-1.81c-8.18-2.89-22.13.49-26.06,4-6.73,6,5.57,27.69,5.57,27.69s43.1,11.83,55.4,7.65,17-17.13,6.27-24q-.48-.32-1-.6" transform="translate(0 -0.55)"/><path class="cls-5" d="M166.51,314.66a53,53,0,0,1-8,7.58c-11.6-8.52-31.54-14.14-54.18-14.14-35.84,0-64.89,14.08-64.89,31.44q0,.65.06,1.26c0,.41-.06.81-.06,1.23a15.72,15.72,0,0,0,1.87,7.3c-5.19-.16-10.3-.47-15.29-.9a23.65,23.65,0,0,1-1.14-7.23c0-23.59,35.57-42.71,79.45-42.71C129.48,298.49,152,304.8,166.51,314.66Z" transform="translate(0 -0.55)"/><path class="cls-6" d="M133.27,359.13c-12.3,4.18-55.4-7.65-55.4-7.65s-.69-1.22-1.65-3.15c-3.11-6.24-9.06-20-3.92-24.54,3.93-3.51,17.88-6.89,26.06-4a24,24,0,0,1,4,1.81,18.11,18.11,0,0,1,7,6.78s17.4-.16,28.37,5.65c.29.15.57.31.85.47s.67.4,1,.61C150.26,342,145.59,355,133.27,359.13Z" transform="translate(0 -0.55)"/><path class="cls-3" d="M133.27,359.13c-12.3,4.18-55.4-7.65-55.4-7.65s-.69-1.22-1.65-3.15c-3.11-6.24-9.06-20-3.92-24.54,3.93-3.51,17.88-6.89,26.06-4a24,24,0,0,1,4,1.81,18.11,18.11,0,0,1,7,6.78s17.4-.16,28.37,5.65c.29.15.57.31.85.47s.67.4,1,.61C150.26,342,145.59,355,133.27,359.13Z" transform="translate(0 -0.55)"/><path class="cls-5" d="M137.7,334c-16.53,7.07-37.74,12.14-61.48,14.3-3.11-6.24-9.06-20-3.92-24.54,3.93-3.51,17.88-6.89,26.06-4a24,24,0,0,1,4,1.81,18.11,18.11,0,0,1,7,6.78S126.73,328.22,137.7,334Z" transform="translate(0 -0.55)"/><path class="cls-7" d="M180.77,352.79c-9.4,18-40.09,31.12-76.49,31.12-20.74,0-39.62-4.27-53.77-11.26,0,0,39.42,15.72,81.9,6.62C172.28,370.23,180.77,352.79,180.77,352.79Z" transform="translate(0 -0.55)"/><path class="cls-7" d="M142.93,338a10.66,10.66,0,0,1,2,10.62c-1.52,4.43-5.68,8.47-11.62,10.48-12.3,4.18-55.4-7.65-55.4-7.65s-.46-.81-1.15-2.15a8.72,8.72,0,0,0,1.73,1.77c9.78,3.09,45.07,11.89,57.21,5.82C151.52,348.33,142.93,338,142.93,338Z" transform="translate(0 -0.55)"/><ellipse class="cls-2" cx="96" cy="336" rx="79.45" ry="42.71"/><rect class="cls-2" x="16.55" y="320.78" width="158.9" height="15.22"/><ellipse class="cls-3" cx="96" cy="320.78" rx="79.45" ry="42.71"/><ellipse class="cls-2" cx="96" cy="319.13" rx="64.88" ry="31.45"/><ellipse class="cls-4" cx="96" cy="321.61" rx="64.88" ry="30.62"/><path class="cls-2" d="M130.28,318.16c-10.89-6.29-29.23-6.12-29.23-6.12a18.11,18.11,0,0,0-7-6.78,23.17,23.17,0,0,0-4-1.81c-8.18-2.89-22.12.48-26.06,4-6.72,6,5.57,27.69,5.57,27.69S112.69,347,125,342.79s17-17.13,6.27-24l-1-.6" transform="translate(0 -0.55)"/><rect class="cls-2" x="133.24" y="324.81" width="4" height="3.65" transform="translate(-0.48 -0.36) rotate(-0.08)"/><polygon class="cls-2" points="62.01 308.37 62.04 313.44 69.83 313.44 69.83 308.37 62.01 308.37"/><path class="cls-3" d="M130.28,314.64c-10.89-6.29-29.23-6.12-29.23-6.12a18.11,18.11,0,0,0-7-6.78,24,24,0,0,0-4-1.81c-8.18-2.89-22.12.49-26.06,4-6.72,6,5.57,27.69,5.57,27.69s43.1,11.84,55.41,7.66,17-17.13,6.27-24l-1-.6" transform="translate(0 -0.55)"/><path class="cls-5" d="M158.23,294.8a52.55,52.55,0,0,1-8,7.58c-11.6-8.52-31.54-14.15-54.18-14.15-35.83,0-64.88,14.09-64.88,31.45a10.53,10.53,0,0,0,.06,1.26,10,10,0,0,0-.06,1.23A15.64,15.64,0,0,0,33,329.46c-5.19-.15-10.3-.46-15.29-.89a23.7,23.7,0,0,1-1.14-7.23c0-23.59,35.57-42.71,79.45-42.71C121.21,278.63,143.68,284.94,158.23,294.8Z" transform="translate(0 -0.55)"/><path class="cls-6" d="M125,339.27c-12.31,4.18-55.41-7.65-55.41-7.65s-.69-1.22-1.65-3.16c-3.11-6.24-9.06-20-3.92-24.53,3.93-3.51,17.89-6.89,26.06-4a24.08,24.08,0,0,1,4,1.81,18.11,18.11,0,0,1,7,6.78s17.39-.16,28.37,5.65c.29.15.57.31.85.47s.66.4,1,.61C142,322.14,137.31,335.1,125,339.27Z" transform="translate(0 -0.55)"/><path class="cls-3" d="M125,339.27c-12.31,4.18-55.41-7.65-55.41-7.65s-.69-1.22-1.65-3.16c-3.11-6.24-9.06-20-3.92-24.53,3.93-3.51,17.89-6.89,26.06-4a24.08,24.08,0,0,1,4,1.81,18.11,18.11,0,0,1,7,6.78s17.39-.16,28.37,5.65c.29.15.57.31.85.47s.66.4,1,.61C142,322.14,137.31,335.1,125,339.27Z" transform="translate(0 -0.55)"/><path class="cls-5" d="M129.43,314.17c-16.54,7.07-37.75,12.14-61.49,14.29-3.11-6.24-9.06-20-3.92-24.53,3.93-3.51,17.89-6.89,26.06-4a24.08,24.08,0,0,1,4,1.81,18.11,18.11,0,0,1,7,6.78S118.45,308.36,129.43,314.17Z" transform="translate(0 -0.55)"/><path class="cls-7" d="M172.49,332.92c-9.39,18-40.08,31.13-76.49,31.13-20.74,0-39.62-4.27-53.77-11.26,0,0,39.43,15.72,81.91,6.62C164,350.37,172.49,332.92,172.49,332.92Z" transform="translate(0 -0.55)"/><path class="cls-7" d="M134.65,318.17a10.63,10.63,0,0,1,2,10.62c-1.52,4.42-5.68,8.47-11.61,10.48-12.31,4.18-55.41-7.65-55.41-7.65s-.45-.81-1.14-2.16a8.31,8.31,0,0,0,1.72,1.77c9.79,3.1,45.07,11.9,57.21,5.83C143.24,328.46,134.65,318.17,134.65,318.17Z" transform="translate(0 -0.55)"/><ellipse class="cls-2" cx="79.45" cy="316.14" rx="79.45" ry="42.71"/><rect class="cls-2" y="300.92" width="158.9" height="15.22"/><ellipse class="cls-3" cx="79.45" cy="300.92" rx="79.45" ry="42.71"/><ellipse class="cls-2" cx="79.45" cy="299.27" rx="64.88" ry="31.45"/><ellipse class="cls-4" cx="79.45" cy="301.75" rx="64.88" ry="30.62"/><path class="cls-2" d="M113.73,298.3c-10.9-6.29-29.23-6.13-29.23-6.13a18.13,18.13,0,0,0-7-6.77,23.17,23.17,0,0,0-4-1.82c-8.18-2.88-22.13.49-26.06,4-6.73,6,5.57,27.69,5.57,27.69s43.1,11.83,55.4,7.66,17-17.13,6.27-24c-.32-.21-.65-.41-1-.6" transform="translate(0 -0.55)"/><rect class="cls-2" x="116.69" y="304.95" width="4" height="3.65" transform="translate(-0.45 -0.38) rotate(-0.08)"/><polygon class="cls-2" points="45.46 288.51 45.49 293.58 53.28 293.58 53.28 288.51 45.46 288.51"/><path class="cls-3" d="M113.73,294.78c-10.9-6.29-29.23-6.12-29.23-6.12a18.11,18.11,0,0,0-7-6.78,23.17,23.17,0,0,0-4-1.81c-8.18-2.89-22.13.48-26.06,4-6.73,6,5.57,27.69,5.57,27.69s43.1,11.84,55.4,7.66,17-17.13,6.27-24l-1-.6" transform="translate(0 -0.55)"/><path class="cls-5" d="M141.68,274.94a52.55,52.55,0,0,1-8.05,7.58C122,274,102.09,268.37,79.45,268.37c-35.84,0-64.88,14.09-64.88,31.45,0,.42,0,.84,0,1.26s0,.81,0,1.22a15.65,15.65,0,0,0,1.86,7.3c-5.19-.15-10.3-.46-15.29-.89A23.7,23.7,0,0,1,0,301.48c0-23.59,35.57-42.72,79.45-42.72C104.66,258.76,127.13,265.08,141.68,274.94Z" transform="translate(0 -0.55)"/><path class="cls-6" d="M108.45,319.41C96.14,323.59,53,311.75,53,311.75s-.69-1.21-1.65-3.15c-3.11-6.24-9.06-20-3.92-24.54,3.93-3.51,17.88-6.88,26.06-4a24.47,24.47,0,0,1,4,1.81,18.13,18.13,0,0,1,7,6.78s17.4-.16,28.37,5.65l.86.47,1,.6C125.44,302.28,120.76,315.24,108.45,319.41Z" transform="translate(0 -0.55)"/><path class="cls-3" d="M108.45,319.41C96.14,323.59,53,311.75,53,311.75s-.69-1.21-1.65-3.15c-3.11-6.24-9.06-20-3.92-24.54,3.93-3.51,17.88-6.88,26.06-4a24.47,24.47,0,0,1,4,1.81,18.13,18.13,0,0,1,7,6.78s17.4-.16,28.37,5.65l.86.47,1,.6C125.44,302.28,120.76,315.24,108.45,319.41Z" transform="translate(0 -0.55)"/><path class="cls-5" d="M112.87,294.31c-16.53,7.07-37.74,12.14-61.48,14.29-3.11-6.24-9.06-20-3.92-24.54,3.93-3.51,17.88-6.88,26.06-4a24.47,24.47,0,0,1,4,1.81,18.13,18.13,0,0,1,7,6.78S101.9,288.5,112.87,294.31Z" transform="translate(0 -0.55)"/><path class="cls-7" d="M155.94,313.06c-9.39,18-40.08,31.13-76.49,31.13-20.74,0-39.62-4.27-53.77-11.27,0,0,39.42,15.73,81.91,6.62C147.45,330.51,155.94,313.06,155.94,313.06Z" transform="translate(0 -0.55)"/><path class="cls-7" d="M118.1,298.31a10.62,10.62,0,0,1,2,10.61c-1.52,4.43-5.68,8.48-11.61,10.49C96.14,323.59,53,311.75,53,311.75s-.46-.8-1.14-2.15a8.56,8.56,0,0,0,1.72,1.77c9.78,3.1,45.07,11.9,57.21,5.83C126.69,308.6,118.1,298.31,118.1,298.31Z" transform="translate(0 -0.55)"/><ellipse class="cls-2" cx="112.55" cy="296.28" rx="79.45" ry="42.71"/><rect class="cls-2" x="33.1" y="281.06" width="158.9" height="15.22"/><ellipse class="cls-3" cx="112.55" cy="281.06" rx="79.45" ry="42.71"/><ellipse class="cls-2" cx="112.55" cy="279.4" rx="64.88" ry="31.45"/><ellipse class="cls-4" cx="112.55" cy="281.89" rx="64.88" ry="30.62"/><path class="cls-2" d="M146.83,278.44c-10.89-6.29-29.22-6.13-29.22-6.13a18.06,18.06,0,0,0-7-6.77,23.65,23.65,0,0,0-4-1.82c-8.17-2.88-22.12.49-26,4-6.73,6,5.56,27.69,5.56,27.69s43.1,11.83,55.41,7.66,17-17.13,6.27-24q-.48-.32-1-.6" transform="translate(0 -0.55)"/><rect class="cls-2" x="149.79" y="285.09" width="4" height="3.65" transform="translate(-0.42 -0.33) rotate(-0.08)"/><polygon class="cls-2" points="78.56 268.64 78.59 273.72 86.38 273.72 86.38 268.64 78.56 268.64"/><path class="cls-3" d="M146.83,274.92c-10.89-6.29-29.22-6.13-29.22-6.13a18.13,18.13,0,0,0-7-6.77,23.65,23.65,0,0,0-4-1.82c-8.17-2.88-22.12.49-26,4-6.73,6,5.56,27.69,5.56,27.69s43.1,11.83,55.41,7.66,17-17.13,6.27-24q-.48-.31-1-.6" transform="translate(0 -0.55)"/><path class="cls-5" d="M174.79,255.07a52.61,52.61,0,0,1-8.06,7.58c-11.6-8.51-31.54-14.14-54.18-14.14-35.83,0-64.88,14.09-64.88,31.45q0,.63.06,1.26c0,.4-.06.81-.06,1.22a15.65,15.65,0,0,0,1.86,7.3q-7.78-.24-15.28-.89a23.43,23.43,0,0,1-1.15-7.24c0-23.58,35.57-42.71,79.45-42.71C137.76,238.9,160.23,245.22,174.79,255.07Z" transform="translate(0 -0.55)"/><path class="cls-6" d="M141.55,299.55c-12.31,4.18-55.41-7.66-55.41-7.66s-.68-1.21-1.64-3.15c-3.12-6.24-9.07-20-3.93-24.54,3.93-3.51,17.89-6.88,26.06-4a23.28,23.28,0,0,1,4,1.82,18.13,18.13,0,0,1,7,6.77s17.39-.15,28.37,5.66c.29.15.57.3.85.47l1,.6C158.54,282.42,153.86,295.38,141.55,299.55Z" transform="translate(0 -0.55)"/><path class="cls-3" d="M141.55,299.55c-12.31,4.18-55.41-7.66-55.41-7.66s-.68-1.21-1.64-3.15c-3.12-6.24-9.07-20-3.93-24.54,3.93-3.51,17.89-6.88,26.06-4a23.28,23.28,0,0,1,4,1.82,18.13,18.13,0,0,1,7,6.77s17.39-.15,28.37,5.66c.29.15.57.3.85.47l1,.6C158.54,282.42,153.86,295.38,141.55,299.55Z" transform="translate(0 -0.55)"/><path class="cls-5" d="M146,274.45c-16.54,7.06-37.75,12.14-61.48,14.29-3.12-6.24-9.07-20-3.93-24.54,3.93-3.51,17.89-6.88,26.06-4a23.28,23.28,0,0,1,4,1.82,18.13,18.13,0,0,1,7,6.77S135,268.64,146,274.45Z" transform="translate(0 -0.55)"/><path class="cls-7" d="M189,293.2c-9.39,18-40.08,31.13-76.49,31.13-20.73,0-39.62-4.27-53.76-11.27,0,0,39.42,15.73,81.9,6.62C180.55,310.65,189,293.2,189,293.2Z" transform="translate(0 -0.55)"/><path class="cls-7" d="M151.2,278.45a10.62,10.62,0,0,1,2,10.61c-1.52,4.43-5.68,8.48-11.61,10.49-12.31,4.18-55.41-7.66-55.41-7.66s-.45-.8-1.14-2.15a8.85,8.85,0,0,0,1.72,1.77c9.79,3.1,45.07,11.9,57.21,5.83C159.79,288.74,151.2,278.45,151.2,278.45Z" transform="translate(0 -0.55)"/><ellipse class="cls-2" cx="87.72" cy="276.41" rx="79.45" ry="42.71"/><rect class="cls-2" x="8.28" y="261.2" width="158.9" height="15.22"/><ellipse class="cls-3" cx="87.72" cy="261.2" rx="79.45" ry="42.71"/><ellipse class="cls-2" cx="87.72" cy="259.54" rx="64.88" ry="31.45"/><ellipse class="cls-4" cx="87.72" cy="262.02" rx="64.88" ry="30.62"/><path class="cls-2" d="M122,258.58c-10.89-6.29-29.22-6.13-29.22-6.13a18.11,18.11,0,0,0-7-6.78,24.35,24.35,0,0,0-4-1.81c-8.18-2.89-22.13.49-26.06,4-6.73,6,5.56,27.69,5.56,27.69s43.1,11.83,55.41,7.65,17-17.13,6.27-24q-.48-.31-1-.6" transform="translate(0 -0.55)"/><rect class="cls-2" x="124.97" y="265.22" width="4" height="3.65" transform="translate(-0.39 -0.37) rotate(-0.08)"/><polygon class="cls-2" points="53.73 248.78 53.76 253.85 61.55 253.85 61.55 248.78 53.73 248.78"/><path class="cls-3" d="M122,255.06c-10.89-6.29-29.22-6.13-29.22-6.13a18.06,18.06,0,0,0-7-6.77,23.53,23.53,0,0,0-4-1.82c-8.18-2.88-22.13.49-26.06,4C49,250.33,61.31,272,61.31,272s43.1,11.83,55.41,7.66,17-17.13,6.27-24q-.48-.32-1-.6" transform="translate(0 -0.55)"/><path class="cls-5" d="M150,235.21a53,53,0,0,1-8.05,7.58c-11.61-8.51-31.54-14.14-54.19-14.14-35.83,0-64.88,14.08-64.88,31.45,0,.42,0,.84.06,1.25s-.06.82-.06,1.23a15.77,15.77,0,0,0,1.86,7.3q-7.78-.24-15.28-.9a23.35,23.35,0,0,1-1.14-7.23C8.28,238.17,43.85,219,87.72,219,112.93,219,135.4,225.35,150,235.21Z" transform="translate(0 -0.55)"/><path class="cls-6" d="M116.72,279.69c-12.3,4.17-55.4-7.66-55.4-7.66s-.69-1.22-1.65-3.15c-3.11-6.24-9.06-20-3.92-24.54,3.93-3.51,17.88-6.89,26.06-4a24.35,24.35,0,0,1,4,1.81,18.19,18.19,0,0,1,7,6.78s17.4-.15,28.37,5.65c.29.15.57.31.85.48s.66.39,1,.6C133.71,262.55,129,275.51,116.72,279.69Z" transform="translate(0 -0.55)"/><path class="cls-3" d="M116.72,279.69c-12.3,4.17-55.4-7.66-55.4-7.66s-.69-1.22-1.65-3.15c-3.11-6.24-9.06-20-3.92-24.54,3.93-3.51,17.88-6.89,26.06-4a24.35,24.35,0,0,1,4,1.81,18.19,18.19,0,0,1,7,6.78s17.4-.15,28.37,5.65c.29.15.57.31.85.48s.66.39,1,.6C133.71,262.55,129,275.51,116.72,279.69Z" transform="translate(0 -0.55)"/><path class="cls-5" d="M121.15,254.58c-16.53,7.07-37.75,12.15-61.48,14.3-3.11-6.24-9.06-20-3.92-24.54,3.93-3.51,17.88-6.89,26.06-4a24.35,24.35,0,0,1,4,1.81,18.19,18.19,0,0,1,7,6.78S110.18,248.78,121.15,254.58Z" transform="translate(0 -0.55)"/><path class="cls-7" d="M164.21,273.34c-9.39,18-40.08,31.13-76.49,31.13C67,304.47,48.11,300.19,34,293.2c0,0,39.42,15.72,81.9,6.62C155.72,290.79,164.21,273.34,164.21,273.34Z" transform="translate(0 -0.55)"/><path class="cls-7" d="M126.37,258.59a10.62,10.62,0,0,1,2,10.61c-1.52,4.43-5.68,8.48-11.61,10.49-12.3,4.17-55.4-7.66-55.4-7.66s-.46-.81-1.15-2.15a8.72,8.72,0,0,0,1.73,1.77c9.78,3.1,45.07,11.89,57.2,5.83C135,268.88,126.37,258.59,126.37,258.59Z" transform="translate(0 -0.55)"/><ellipse class="cls-2" cx="104.28" cy="256.55" rx="79.45" ry="42.71"/><rect class="cls-2" x="24.83" y="241.33" width="158.9" height="15.22"/><ellipse class="cls-3" cx="104.28" cy="241.33" rx="79.45" ry="42.71"/><ellipse class="cls-2" cx="104.28" cy="239.68" rx="64.88" ry="31.45"/><ellipse class="cls-4" cx="104.28" cy="242.16" rx="64.88" ry="30.62"/><path class="cls-2" d="M138.55,238.71c-10.89-6.29-29.22-6.12-29.22-6.12a18.11,18.11,0,0,0-7-6.78,24.35,24.35,0,0,0-4-1.81c-8.18-2.89-22.13.49-26.06,4-6.73,6,5.57,27.69,5.57,27.69s43.1,11.84,55.4,7.66,17-17.13,6.27-24l-1-.6" transform="translate(0 -0.55)"/><rect class="cls-2" x="141.52" y="245.36" width="4" height="3.65" transform="translate(-0.36 -0.34) rotate(-0.08)"/><polygon class="cls-2" points="70.28 228.92 70.31 233.99 78.1 233.99 78.1 228.92 70.28 228.92"/><path class="cls-3" d="M138.55,235.19c-10.89-6.29-29.22-6.12-29.22-6.12a18.11,18.11,0,0,0-7-6.78,24.35,24.35,0,0,0-4-1.81c-8.18-2.89-22.13.49-26.06,4-6.73,6,5.57,27.69,5.57,27.69s43.1,11.83,55.4,7.65,17-17.13,6.27-24c-.32-.21-.65-.41-1-.61" transform="translate(0 -0.55)"/><path class="cls-5" d="M166.51,215.35a53,53,0,0,1-8,7.58c-11.6-8.52-31.54-14.14-54.18-14.14-35.84,0-64.89,14.08-64.89,31.44q0,.65.06,1.26c0,.41-.06.81-.06,1.23a15.72,15.72,0,0,0,1.87,7.3c-5.19-.16-10.3-.47-15.29-.9a23.65,23.65,0,0,1-1.14-7.23c0-23.59,35.57-42.71,79.45-42.71C129.48,199.18,152,205.49,166.51,215.35Z" transform="translate(0 -0.55)"/><path class="cls-6" d="M133.27,259.82c-12.3,4.18-55.4-7.65-55.4-7.65S77.18,251,76.22,249c-3.11-6.24-9.06-20-3.92-24.54,3.93-3.51,17.88-6.89,26.06-4a24,24,0,0,1,4,1.81,18.11,18.11,0,0,1,7,6.78s17.4-.16,28.37,5.65c.29.15.57.31.85.47s.67.4,1,.61C150.26,242.69,145.59,255.65,133.27,259.82Z" transform="translate(0 -0.55)"/><path class="cls-3" d="M133.27,259.82c-12.3,4.18-55.4-7.65-55.4-7.65S77.18,251,76.22,249c-3.11-6.24-9.06-20-3.92-24.54,3.93-3.51,17.88-6.89,26.06-4a24,24,0,0,1,4,1.81,18.11,18.11,0,0,1,7,6.78s17.4-.16,28.37,5.65c.29.15.57.31.85.47s.67.4,1,.61C150.26,242.69,145.59,255.65,133.27,259.82Z" transform="translate(0 -0.55)"/><path class="cls-5" d="M137.7,234.72C121.17,241.79,100,246.86,76.22,249c-3.11-6.24-9.06-20-3.92-24.54,3.93-3.51,17.88-6.89,26.06-4a24,24,0,0,1,4,1.81,18.11,18.11,0,0,1,7,6.78S126.73,228.91,137.7,234.72Z" transform="translate(0 -0.55)"/><path class="cls-7" d="M180.77,253.48c-9.4,18-40.09,31.12-76.49,31.12-20.74,0-39.62-4.27-53.77-11.26,0,0,39.42,15.72,81.9,6.62C172.28,270.92,180.77,253.48,180.77,253.48Z" transform="translate(0 -0.55)"/><path class="cls-7" d="M142.93,238.72a10.66,10.66,0,0,1,2,10.62c-1.52,4.43-5.68,8.47-11.62,10.48-12.3,4.18-55.4-7.65-55.4-7.65s-.46-.81-1.15-2.15a8.72,8.72,0,0,0,1.73,1.77c9.78,3.09,45.07,11.89,57.21,5.82C151.52,249,142.93,238.72,142.93,238.72Z" transform="translate(0 -0.55)"/><ellipse class="cls-2" cx="96" cy="236.69" rx="79.45" ry="42.71"/><rect class="cls-2" x="16.55" y="221.47" width="158.9" height="15.22"/><ellipse class="cls-3" cx="96" cy="221.47" rx="79.45" ry="42.71"/><ellipse class="cls-2" cx="96" cy="219.82" rx="64.88" ry="31.45"/><ellipse class="cls-4" cx="96" cy="222.3" rx="64.88" ry="30.62"/><path class="cls-2" d="M130.28,218.85c-10.89-6.29-29.23-6.12-29.23-6.12A18.11,18.11,0,0,0,94,206a23.17,23.17,0,0,0-4-1.81c-8.18-2.89-22.12.48-26.06,4-6.72,6,5.57,27.69,5.57,27.69s43.1,11.84,55.41,7.66,17-17.13,6.27-24l-1-.6" transform="translate(0 -0.55)"/><rect class="cls-2" x="133.24" y="225.5" width="4" height="3.65" transform="translate(-0.33 -0.36) rotate(-0.08)"/><polygon class="cls-2" points="62.01 209.06 62.04 214.13 69.83 214.13 69.83 209.06 62.01 209.06"/><path class="cls-3" d="M130.28,215.33c-10.89-6.29-29.23-6.12-29.23-6.12a18.11,18.11,0,0,0-7-6.78,24,24,0,0,0-4-1.81c-8.18-2.89-22.12.49-26.06,4-6.72,6,5.57,27.69,5.57,27.69S112.69,244.14,125,240s17-17.13,6.27-24l-1-.6" transform="translate(0 -0.55)"/><path class="cls-5" d="M158.23,195.49a52.55,52.55,0,0,1-8,7.58c-11.6-8.52-31.54-14.15-54.18-14.15-35.83,0-64.88,14.09-64.88,31.45a10.53,10.53,0,0,0,.06,1.26,10,10,0,0,0-.06,1.23A15.64,15.64,0,0,0,33,230.15c-5.19-.15-10.3-.46-15.29-.89A23.7,23.7,0,0,1,16.55,222c0-23.59,35.57-42.71,79.45-42.71C121.21,179.32,143.68,185.63,158.23,195.49Z" transform="translate(0 -0.55)"/><path class="cls-6" d="M125,240c-12.31,4.18-55.41-7.65-55.41-7.65s-.69-1.22-1.65-3.16c-3.11-6.24-9.06-20-3.92-24.53,3.93-3.51,17.89-6.89,26.06-4a24.08,24.08,0,0,1,4,1.81,18.11,18.11,0,0,1,7,6.78s17.39-.16,28.37,5.65c.29.15.57.31.85.47s.66.4,1,.61C142,222.83,137.31,235.79,125,240Z" transform="translate(0 -0.55)"/><path class="cls-3" d="M125,240c-12.31,4.18-55.41-7.65-55.41-7.65s-.69-1.22-1.65-3.16c-3.11-6.24-9.06-20-3.92-24.53,3.93-3.51,17.89-6.89,26.06-4a24.08,24.08,0,0,1,4,1.81,18.11,18.11,0,0,1,7,6.78s17.39-.16,28.37,5.65c.29.15.57.31.85.47s.66.4,1,.61C142,222.83,137.31,235.79,125,240Z" transform="translate(0 -0.55)"/><path class="cls-5" d="M129.43,214.86c-16.54,7.07-37.75,12.14-61.49,14.29-3.11-6.24-9.06-20-3.92-24.53,3.93-3.51,17.89-6.89,26.06-4a24.08,24.08,0,0,1,4,1.81,18.11,18.11,0,0,1,7,6.78S118.45,209.05,129.43,214.86Z" transform="translate(0 -0.55)"/><path class="cls-7" d="M172.49,233.61c-9.39,18-40.08,31.13-76.49,31.13-20.74,0-39.62-4.27-53.77-11.26,0,0,39.43,15.72,81.91,6.62C164,251.06,172.49,233.61,172.49,233.61Z" transform="translate(0 -0.55)"/><path class="cls-7" d="M134.65,218.86a10.63,10.63,0,0,1,2,10.62C135.09,233.9,130.93,238,125,240c-12.31,4.18-55.41-7.65-55.41-7.65s-.45-.81-1.14-2.16a8.31,8.31,0,0,0,1.72,1.77c9.79,3.1,45.07,11.9,57.21,5.83C143.24,229.15,134.65,218.86,134.65,218.86Z" transform="translate(0 -0.55)"/><ellipse class="cls-2" cx="104.28" cy="216.83" rx="79.45" ry="42.71"/><rect class="cls-2" x="24.83" y="201.61" width="158.9" height="15.22"/><ellipse class="cls-3" cx="104.28" cy="201.61" rx="79.45" ry="42.71"/><ellipse class="cls-2" cx="104.28" cy="199.96" rx="64.88" ry="31.45"/><ellipse class="cls-4" cx="104.28" cy="202.44" rx="64.88" ry="30.62"/><path class="cls-2" d="M138.55,199c-10.89-6.29-29.22-6.13-29.22-6.13a18.13,18.13,0,0,0-7-6.77,23.53,23.53,0,0,0-4-1.82c-8.18-2.88-22.13.49-26.06,4-6.73,6,5.57,27.69,5.57,27.69s43.1,11.83,55.4,7.66,17-17.13,6.27-24q-.48-.32-1-.6" transform="translate(0 -0.55)"/><rect class="cls-2" x="141.52" y="205.64" width="4" height="3.65" transform="translate(-0.3 -0.34) rotate(-0.08)"/><polygon class="cls-2" points="70.28 189.2 70.31 194.27 78.1 194.27 78.1 189.2 70.28 189.2"/><path class="cls-3" d="M138.55,195.47c-10.89-6.29-29.22-6.12-29.22-6.12a18.11,18.11,0,0,0-7-6.78,24.34,24.34,0,0,0-4-1.82c-8.18-2.88-22.13.49-26.06,4-6.73,6,5.57,27.69,5.57,27.69s43.1,11.84,55.4,7.66,17-17.13,6.27-24c-.32-.2-.65-.41-1-.6" transform="translate(0 -0.55)"/><path class="cls-5" d="M166.51,175.62a52.57,52.57,0,0,1-8,7.59c-11.6-8.52-31.54-14.15-54.18-14.15-35.84,0-64.89,14.09-64.89,31.45q0,.63.06,1.26c0,.4-.06.81-.06,1.22a15.66,15.66,0,0,0,1.87,7.3c-5.19-.15-10.3-.46-15.29-.89a23.7,23.7,0,0,1-1.14-7.23c0-23.59,35.57-42.72,79.45-42.72C129.48,159.45,152,165.77,166.51,175.62Z" transform="translate(0 -0.55)"/><path class="cls-6" d="M133.27,220.1c-12.3,4.18-55.4-7.66-55.4-7.66s-.69-1.21-1.65-3.15c-3.11-6.24-9.06-20-3.92-24.54,3.93-3.51,17.88-6.88,26.06-4a24,24,0,0,1,4,1.81,18.11,18.11,0,0,1,7,6.78s17.4-.16,28.37,5.65c.29.15.57.3.85.47l1,.6C150.26,203,145.59,215.93,133.27,220.1Z" transform="translate(0 -0.55)"/><path class="cls-3" d="M133.27,220.1c-12.3,4.18-55.4-7.66-55.4-7.66s-.69-1.21-1.65-3.15c-3.11-6.24-9.06-20-3.92-24.54,3.93-3.51,17.88-6.88,26.06-4a24,24,0,0,1,4,1.81,18.11,18.11,0,0,1,7,6.78s17.4-.16,28.37,5.65c.29.15.57.3.85.47l1,.6C150.26,203,145.59,215.93,133.27,220.1Z" transform="translate(0 -0.55)"/><path class="cls-5" d="M137.7,195c-16.53,7.07-37.74,12.14-61.48,14.29-3.11-6.24-9.06-20-3.92-24.54,3.93-3.51,17.88-6.88,26.06-4a24,24,0,0,1,4,1.81,18.11,18.11,0,0,1,7,6.78S126.73,189.19,137.7,195Z" transform="translate(0 -0.55)"/><path class="cls-7" d="M180.77,213.75c-9.4,18-40.09,31.13-76.49,31.13-20.74,0-39.62-4.27-53.77-11.27,0,0,39.42,15.73,81.9,6.62C172.28,231.2,180.77,213.75,180.77,213.75Z" transform="translate(0 -0.55)"/><path class="cls-7" d="M142.93,199a10.64,10.64,0,0,1,2,10.61c-1.52,4.43-5.68,8.48-11.62,10.49-12.3,4.18-55.4-7.66-55.4-7.66s-.46-.8-1.15-2.15a8.72,8.72,0,0,0,1.73,1.77c9.78,3.1,45.07,11.9,57.21,5.83C151.52,209.29,142.93,199,142.93,199Z" transform="translate(0 -0.55)"/><ellipse class="cls-2" cx="87.72" cy="196.97" rx="79.45" ry="42.71"/><rect class="cls-2" x="8.28" y="181.75" width="158.9" height="15.22"/><ellipse class="cls-3" cx="87.72" cy="181.75" rx="79.45" ry="42.71"/><ellipse class="cls-2" cx="87.72" cy="180.09" rx="64.88" ry="31.45"/><ellipse class="cls-4" cx="87.72" cy="182.58" rx="64.88" ry="30.62"/><path class="cls-2" d="M122,179.13C111.11,172.84,92.78,173,92.78,173a18.06,18.06,0,0,0-7-6.77,23.53,23.53,0,0,0-4-1.82c-8.18-2.88-22.13.49-26.06,4-6.73,6,5.56,27.69,5.56,27.69s43.1,11.83,55.41,7.66,17-17.13,6.27-24q-.48-.31-1-.6" transform="translate(0 -0.55)"/><rect class="cls-2" x="124.97" y="185.78" width="4" height="3.65" transform="translate(-0.28 -0.37) rotate(-0.08)"/><polygon class="cls-2" points="53.73 169.34 53.76 174.41 61.55 174.41 61.55 169.34 53.73 169.34"/><path class="cls-3" d="M122,175.61c-10.89-6.29-29.22-6.13-29.22-6.13a18.13,18.13,0,0,0-7-6.77,23.53,23.53,0,0,0-4-1.82c-8.18-2.88-22.13.49-26.06,4-6.73,6,5.56,27.69,5.56,27.69s43.1,11.83,55.41,7.66,17-17.13,6.27-24q-.48-.32-1-.6" transform="translate(0 -0.55)"/><path class="cls-5" d="M150,155.76a53,53,0,0,1-8.05,7.58c-11.61-8.51-31.54-14.14-54.19-14.14-35.83,0-64.88,14.09-64.88,31.45q0,.63.06,1.26c0,.4-.06.81-.06,1.22a15.77,15.77,0,0,0,1.86,7.3q-7.78-.24-15.28-.89a23.42,23.42,0,0,1-1.14-7.24c0-23.58,35.57-42.71,79.44-42.71C112.93,139.59,135.4,145.91,150,155.76Z" transform="translate(0 -0.55)"/><path class="cls-6" d="M116.72,200.24c-12.3,4.18-55.4-7.66-55.4-7.66s-.69-1.21-1.65-3.15c-3.11-6.24-9.06-20-3.92-24.54,3.93-3.51,17.88-6.88,26.06-4a23.53,23.53,0,0,1,4,1.82,18.13,18.13,0,0,1,7,6.77s17.4-.15,28.37,5.66c.29.15.57.3.85.47l1,.6C133.71,183.11,129,196.07,116.72,200.24Z" transform="translate(0 -0.55)"/><path class="cls-3" d="M116.72,200.24c-12.3,4.18-55.4-7.66-55.4-7.66s-.69-1.21-1.65-3.15c-3.11-6.24-9.06-20-3.92-24.54,3.93-3.51,17.88-6.88,26.06-4a23.53,23.53,0,0,1,4,1.82,18.13,18.13,0,0,1,7,6.77s17.4-.15,28.37,5.66c.29.15.57.3.85.47l1,.6C133.71,183.11,129,196.07,116.72,200.24Z" transform="translate(0 -0.55)"/><path class="cls-5" d="M121.15,175.14c-16.53,7.06-37.75,12.14-61.48,14.29-3.11-6.24-9.06-20-3.92-24.54,3.93-3.51,17.88-6.88,26.06-4a23.53,23.53,0,0,1,4,1.82,18.13,18.13,0,0,1,7,6.77S110.18,169.33,121.15,175.14Z" transform="translate(0 -0.55)"/><path class="cls-7" d="M164.21,193.89c-9.39,18-40.08,31.13-76.49,31.13C67,225,48.11,220.75,34,213.75c0,0,39.42,15.73,81.9,6.62C155.72,211.34,164.21,193.89,164.21,193.89Z" transform="translate(0 -0.55)"/><path class="cls-7" d="M126.37,179.14a10.62,10.62,0,0,1,2,10.61c-1.52,4.43-5.68,8.48-11.61,10.49-12.3,4.18-55.4-7.66-55.4-7.66s-.46-.8-1.15-2.15a8.72,8.72,0,0,0,1.73,1.77c9.78,3.1,45.07,11.9,57.2,5.83C135,189.43,126.37,179.14,126.37,179.14Z" transform="translate(0 -0.55)"/><ellipse class="cls-2" cx="104.28" cy="177.1" rx="79.45" ry="42.71"/><rect class="cls-2" x="24.83" y="161.89" width="158.9" height="15.22"/><ellipse class="cls-3" cx="104.28" cy="161.89" rx="79.45" ry="42.71"/><ellipse class="cls-2" cx="104.28" cy="160.23" rx="64.88" ry="31.45"/><ellipse class="cls-4" cx="104.28" cy="162.71" rx="64.88" ry="30.62"/><path class="cls-2" d="M138.55,159.27c-10.89-6.29-29.22-6.13-29.22-6.13a18.11,18.11,0,0,0-7-6.78,24.35,24.35,0,0,0-4-1.81c-8.18-2.89-22.13.49-26.06,4-6.73,6,5.57,27.69,5.57,27.69s43.1,11.83,55.4,7.65,17-17.13,6.27-24q-.48-.31-1-.6" transform="translate(0 -0.55)"/><rect class="cls-2" x="141.52" y="165.91" width="4" height="3.65" transform="translate(-0.25 -0.34) rotate(-0.08)"/><polygon class="cls-2" points="70.28 149.47 70.31 154.54 78.1 154.54 78.1 149.47 70.28 149.47"/><path class="cls-3" d="M138.55,155.75c-10.89-6.29-29.22-6.13-29.22-6.13a18.06,18.06,0,0,0-7-6.77,23.53,23.53,0,0,0-4-1.82c-8.18-2.89-22.13.49-26.06,4-6.73,6,5.57,27.69,5.57,27.69s43.1,11.83,55.4,7.66,17-17.13,6.27-24q-.48-.32-1-.6" transform="translate(0 -0.55)"/><path class="cls-5" d="M166.51,135.9a53,53,0,0,1-8,7.58c-11.6-8.51-31.54-14.14-54.18-14.14-35.84,0-64.89,14.08-64.89,31.45,0,.42,0,.84.06,1.25s-.06.82-.06,1.23a15.69,15.69,0,0,0,1.87,7.3c-5.19-.16-10.3-.47-15.29-.9a23.65,23.65,0,0,1-1.14-7.23c0-23.58,35.57-42.71,79.45-42.71C129.48,119.73,152,126,166.51,135.9Z" transform="translate(0 -0.55)"/><path class="cls-6" d="M133.27,180.38c-12.3,4.17-55.4-7.66-55.4-7.66s-.69-1.22-1.65-3.15c-3.11-6.24-9.06-20-3.92-24.54,3.93-3.51,17.88-6.89,26.06-4a24,24,0,0,1,4,1.81,18.19,18.19,0,0,1,7,6.78s17.4-.16,28.37,5.65c.29.15.57.31.85.48s.67.39,1,.6C150.26,163.24,145.59,176.2,133.27,180.38Z" transform="translate(0 -0.55)"/><path class="cls-3" d="M133.27,180.38c-12.3,4.17-55.4-7.66-55.4-7.66s-.69-1.22-1.65-3.15c-3.11-6.24-9.06-20-3.92-24.54,3.93-3.51,17.88-6.89,26.06-4a24,24,0,0,1,4,1.81,18.19,18.19,0,0,1,7,6.78s17.4-.16,28.37,5.65c.29.15.57.31.85.48s.67.39,1,.6C150.26,163.24,145.59,176.2,133.27,180.38Z" transform="translate(0 -0.55)"/><path class="cls-5" d="M137.7,155.27c-16.53,7.07-37.74,12.15-61.48,14.3-3.11-6.24-9.06-20-3.92-24.54,3.93-3.51,17.88-6.89,26.06-4a24,24,0,0,1,4,1.81,18.19,18.19,0,0,1,7,6.78S126.73,149.46,137.7,155.27Z" transform="translate(0 -0.55)"/><path class="cls-7" d="M180.77,174c-9.4,18-40.09,31.13-76.49,31.13-20.74,0-39.62-4.28-53.77-11.27,0,0,39.42,15.72,81.9,6.62C172.28,191.48,180.77,174,180.77,174Z" transform="translate(0 -0.55)"/><path class="cls-7" d="M142.93,159.28a10.64,10.64,0,0,1,2,10.61c-1.52,4.43-5.68,8.48-11.62,10.49-12.3,4.17-55.4-7.66-55.4-7.66s-.46-.81-1.15-2.15a8.72,8.72,0,0,0,1.73,1.77c9.78,3.1,45.07,11.89,57.21,5.83C151.52,169.57,142.93,159.28,142.93,159.28Z" transform="translate(0 -0.55)"/><ellipse class="cls-2" cx="104.28" cy="157.24" rx="79.45" ry="42.71"/><rect class="cls-2" x="24.83" y="142.02" width="158.9" height="15.22"/><ellipse class="cls-3" cx="104.28" cy="142.02" rx="79.45" ry="42.71"/><ellipse class="cls-2" cx="104.28" cy="140.37" rx="64.88" ry="31.45"/><ellipse class="cls-4" cx="104.28" cy="142.85" rx="64.88" ry="30.62"/><path class="cls-2" d="M138.55,139.4c-10.89-6.29-29.22-6.12-29.22-6.12a18.11,18.11,0,0,0-7-6.78,24.35,24.35,0,0,0-4-1.81c-8.18-2.89-22.13.49-26.06,4-6.73,6,5.57,27.69,5.57,27.69s43.1,11.84,55.4,7.66,17-17.13,6.27-24l-1-.6" transform="translate(0 -0.55)"/><rect class="cls-2" x="141.52" y="146.05" width="4" height="3.65" transform="translate(-0.22 -0.34) rotate(-0.08)"/><polygon class="cls-2" points="70.28 129.61 70.31 134.68 78.1 134.68 78.1 129.61 70.28 129.61"/><path class="cls-3" d="M138.55,135.88c-10.89-6.29-29.22-6.12-29.22-6.12a18.11,18.11,0,0,0-7-6.78,24.35,24.35,0,0,0-4-1.81c-8.18-2.89-22.13.49-26.06,4-6.73,6,5.57,27.69,5.57,27.69s43.1,11.83,55.4,7.65,17-17.13,6.27-24c-.32-.21-.65-.41-1-.61" transform="translate(0 -0.55)"/><path class="cls-5" d="M166.51,116a53,53,0,0,1-8,7.58c-11.6-8.52-31.54-14.14-54.18-14.14-35.84,0-64.89,14.08-64.89,31.44q0,.65.06,1.26c0,.41-.06.81-.06,1.23a15.72,15.72,0,0,0,1.87,7.3c-5.19-.16-10.3-.47-15.29-.9a23.65,23.65,0,0,1-1.14-7.23c0-23.59,35.57-42.71,79.45-42.71C129.48,99.87,152,106.18,166.51,116Z" transform="translate(0 -0.55)"/><path class="cls-6" d="M133.27,160.51c-12.3,4.18-55.4-7.65-55.4-7.65s-.69-1.22-1.65-3.16c-3.11-6.24-9.06-20-3.92-24.53,3.93-3.51,17.88-6.89,26.06-4a24,24,0,0,1,4,1.81,18.11,18.11,0,0,1,7,6.78s17.4-.16,28.37,5.65c.29.15.57.31.85.47s.67.4,1,.61C150.26,143.38,145.59,156.34,133.27,160.51Z" transform="translate(0 -0.55)"/><path class="cls-3" d="M133.27,160.51c-12.3,4.18-55.4-7.65-55.4-7.65s-.69-1.22-1.65-3.16c-3.11-6.24-9.06-20-3.92-24.53,3.93-3.51,17.88-6.89,26.06-4a24,24,0,0,1,4,1.81,18.11,18.11,0,0,1,7,6.78s17.4-.16,28.37,5.65c.29.15.57.31.85.47s.67.4,1,.61C150.26,143.38,145.59,156.34,133.27,160.51Z" transform="translate(0 -0.55)"/><path class="cls-5" d="M137.7,135.41c-16.53,7.07-37.74,12.14-61.48,14.29-3.11-6.24-9.06-20-3.92-24.53,3.93-3.51,17.88-6.89,26.06-4a24,24,0,0,1,4,1.81,18.11,18.11,0,0,1,7,6.78S126.73,129.6,137.7,135.41Z" transform="translate(0 -0.55)"/><path class="cls-7" d="M180.77,154.17c-9.4,18-40.09,31.12-76.49,31.12-20.74,0-39.62-4.27-53.77-11.26,0,0,39.42,15.72,81.9,6.62C172.28,171.61,180.77,154.17,180.77,154.17Z" transform="translate(0 -0.55)"/><path class="cls-7" d="M142.93,139.41a10.66,10.66,0,0,1,2,10.62c-1.52,4.43-5.68,8.47-11.62,10.48-12.3,4.18-55.4-7.65-55.4-7.65s-.46-.81-1.15-2.15a8.72,8.72,0,0,0,1.73,1.77c9.78,3.09,45.07,11.89,57.21,5.82C151.52,149.7,142.93,139.41,142.93,139.41Z" transform="translate(0 -0.55)"/><ellipse class="cls-2" cx="96" cy="137.38" rx="79.45" ry="42.71"/><rect class="cls-2" x="16.55" y="122.16" width="158.9" height="15.22"/><ellipse class="cls-3" cx="96" cy="122.16" rx="79.45" ry="42.71"/><ellipse class="cls-2" cx="96" cy="120.51" rx="64.88" ry="31.45"/><ellipse class="cls-4" cx="96" cy="122.99" rx="64.88" ry="30.62"/><path class="cls-2" d="M130.28,119.54c-10.89-6.29-29.23-6.12-29.23-6.12a18.11,18.11,0,0,0-7-6.78,23.17,23.17,0,0,0-4-1.81c-8.18-2.89-22.12.48-26.06,4-6.72,6,5.57,27.69,5.57,27.69s43.1,11.84,55.41,7.66,17-17.13,6.27-24l-1-.6" transform="translate(0 -0.55)"/><rect class="cls-2" x="133.24" y="126.19" width="4" height="3.65" transform="translate(-0.19 -0.36) rotate(-0.08)"/><polygon class="cls-2" points="62.01 109.75 62.04 114.82 69.83 114.82 69.83 109.75 62.01 109.75"/><path class="cls-3" d="M130.28,116c-10.89-6.29-29.23-6.12-29.23-6.12a18.11,18.11,0,0,0-7-6.78,23.17,23.17,0,0,0-4-1.81c-8.18-2.89-22.12.48-26.06,4-6.72,6,5.57,27.69,5.57,27.69s43.1,11.84,55.41,7.66,17-17.13,6.27-24l-1-.6" transform="translate(0 -0.55)"/><path class="cls-5" d="M158.23,96.18a52.55,52.55,0,0,1-8,7.58C138.58,95.24,118.64,89.61,96,89.61c-35.83,0-64.88,14.09-64.88,31.45a10.53,10.53,0,0,0,.06,1.26,10,10,0,0,0-.06,1.22,15.65,15.65,0,0,0,1.86,7.3c-5.19-.15-10.3-.46-15.29-.89a23.7,23.7,0,0,1-1.14-7.23C16.55,99.13,52.12,80,96,80,121.21,80,143.68,86.32,158.23,96.18Z" transform="translate(0 -0.55)"/><path class="cls-6" d="M125,140.65C112.69,144.83,69.59,133,69.59,133s-.69-1.22-1.65-3.16c-3.11-6.24-9.06-20-3.92-24.54,3.93-3.5,17.89-6.88,26.06-4a24.08,24.08,0,0,1,4,1.81,18.11,18.11,0,0,1,7,6.78s17.39-.16,28.37,5.65c.29.15.57.31.85.47s.66.4,1,.61C142,123.52,137.31,136.48,125,140.65Z" transform="translate(0 -0.55)"/><path class="cls-3" d="M125,140.65C112.69,144.83,69.59,133,69.59,133s-.69-1.22-1.65-3.16c-3.11-6.24-9.06-20-3.92-24.54,3.93-3.5,17.89-6.88,26.06-4a24.08,24.08,0,0,1,4,1.81,18.11,18.11,0,0,1,7,6.78s17.39-.16,28.37,5.65c.29.15.57.31.85.47s.66.4,1,.61C142,123.52,137.31,136.48,125,140.65Z" transform="translate(0 -0.55)"/><path class="cls-5" d="M129.43,115.55c-16.54,7.07-37.75,12.14-61.49,14.29-3.11-6.24-9.06-20-3.92-24.54,3.93-3.5,17.89-6.88,26.06-4a24.08,24.08,0,0,1,4,1.81,18.11,18.11,0,0,1,7,6.78S118.45,109.74,129.43,115.55Z" transform="translate(0 -0.55)"/><path class="cls-7" d="M172.49,134.3c-9.39,18-40.08,31.13-76.49,31.13-20.74,0-39.62-4.27-53.77-11.27,0,0,39.43,15.73,81.91,6.63C164,151.75,172.49,134.3,172.49,134.3Z" transform="translate(0 -0.55)"/><path class="cls-7" d="M134.65,119.55a10.63,10.63,0,0,1,2,10.62c-1.52,4.42-5.68,8.47-11.61,10.48C112.69,144.83,69.59,133,69.59,133s-.45-.81-1.14-2.16a8.31,8.31,0,0,0,1.72,1.77c9.79,3.1,45.07,11.9,57.21,5.83C143.24,129.84,134.65,119.55,134.65,119.55Z" transform="translate(0 -0.55)"/><ellipse class="cls-2" cx="87.72" cy="117.52" rx="79.45" ry="42.71"/><rect class="cls-2" x="8.28" y="102.3" width="158.9" height="15.22"/><ellipse class="cls-3" cx="87.72" cy="102.3" rx="79.45" ry="42.71"/><ellipse class="cls-2" cx="87.72" cy="100.65" rx="64.88" ry="31.45"/><ellipse class="cls-4" cx="87.72" cy="103.13" rx="64.88" ry="30.62"/><path class="cls-2" d="M122,99.68c-10.89-6.29-29.22-6.13-29.22-6.13a18.13,18.13,0,0,0-7-6.77,23.53,23.53,0,0,0-4-1.82c-8.18-2.88-22.13.49-26.06,4-6.73,6,5.56,27.69,5.56,27.69s43.1,11.83,55.41,7.66,17-17.13,6.27-24q-.48-.32-1-.6" transform="translate(0 -0.55)"/><rect class="cls-2" x="124.97" y="106.33" width="4" height="3.65" transform="translate(-0.16 -0.37) rotate(-0.08)"/><polygon class="cls-2" points="53.73 89.89 53.76 94.96 61.55 94.96 61.55 89.89 53.73 89.89"/><path class="cls-3" d="M122,96.16C111.11,89.87,92.78,90,92.78,90a18.11,18.11,0,0,0-7-6.78,24.34,24.34,0,0,0-4-1.82c-8.18-2.88-22.13.49-26.06,4-6.73,6,5.56,27.69,5.56,27.69s43.1,11.84,55.41,7.66,17-17.13,6.27-24c-.32-.2-.65-.41-1-.6" transform="translate(0 -0.55)"/><path class="cls-5" d="M150,76.31a53,53,0,0,1-8.05,7.59c-11.61-8.52-31.54-14.15-54.19-14.15-35.83,0-64.88,14.09-64.88,31.45q0,.63.06,1.26c0,.4-.06.81-.06,1.22A15.77,15.77,0,0,0,24.7,111q-7.78-.24-15.28-.89a23.4,23.4,0,0,1-1.14-7.23c0-23.59,35.57-42.72,79.44-42.72C112.93,60.14,135.4,66.46,150,76.31Z" transform="translate(0 -0.55)"/><path class="cls-6" d="M116.72,120.79c-12.3,4.18-55.4-7.66-55.4-7.66s-.69-1.21-1.65-3.15c-3.11-6.24-9.06-20-3.92-24.54,3.93-3.51,17.88-6.88,26.06-4a24.35,24.35,0,0,1,4,1.81,18.11,18.11,0,0,1,7,6.78s17.4-.16,28.37,5.65c.29.15.57.3.85.47l1,.6C133.71,103.66,129,116.62,116.72,120.79Z" transform="translate(0 -0.55)"/><path class="cls-3" d="M116.72,120.79c-12.3,4.18-55.4-7.66-55.4-7.66s-.69-1.21-1.65-3.15c-3.11-6.24-9.06-20-3.92-24.54,3.93-3.51,17.88-6.88,26.06-4a24.35,24.35,0,0,1,4,1.81,18.11,18.11,0,0,1,7,6.78s17.4-.16,28.37,5.65c.29.15.57.3.85.47l1,.6C133.71,103.66,129,116.62,116.72,120.79Z" transform="translate(0 -0.55)"/><path class="cls-5" d="M121.15,95.69C104.62,102.76,83.4,107.83,59.67,110c-3.11-6.24-9.06-20-3.92-24.54,3.93-3.51,17.88-6.88,26.06-4a24.35,24.35,0,0,1,4,1.81,18.11,18.11,0,0,1,7,6.78S110.18,89.88,121.15,95.69Z" transform="translate(0 -0.55)"/><path class="cls-7" d="M164.21,114.44c-9.39,18-40.08,31.13-76.49,31.13C67,145.57,48.11,141.3,34,134.3c0,0,39.42,15.73,81.9,6.62C155.72,131.89,164.21,114.44,164.21,114.44Z" transform="translate(0 -0.55)"/><path class="cls-7" d="M126.37,99.69a10.62,10.62,0,0,1,2,10.61c-1.52,4.43-5.68,8.48-11.61,10.49-12.3,4.18-55.4-7.66-55.4-7.66s-.46-.8-1.15-2.15a8.72,8.72,0,0,0,1.73,1.77c9.78,3.1,45.07,11.9,57.2,5.83C135,110,126.37,99.69,126.37,99.69Z" transform="translate(0 -0.55)"/><ellipse class="cls-2" cx="104.28" cy="97.66" rx="79.45" ry="42.71"/><rect class="cls-2" x="24.83" y="82.44" width="158.9" height="15.22"/><ellipse class="cls-3" cx="104.28" cy="82.44" rx="79.45" ry="42.71"/><ellipse class="cls-2" cx="104.28" cy="80.78" rx="64.88" ry="31.45"/><ellipse class="cls-4" cx="104.28" cy="83.27" rx="64.88" ry="30.62"/><path class="cls-2" d="M138.55,79.82c-10.89-6.29-29.22-6.13-29.22-6.13a18.06,18.06,0,0,0-7-6.77,23.53,23.53,0,0,0-4-1.82c-8.18-2.88-22.13.49-26.06,4-6.73,6,5.57,27.69,5.57,27.69s43.1,11.83,55.4,7.66,17-17.13,6.27-24q-.48-.32-1-.6" transform="translate(0 -0.55)"/><rect class="cls-2" x="141.52" y="86.46" width="4" height="3.65" transform="translate(-0.13 -0.34) rotate(-0.08)"/><polygon class="cls-2" points="70.28 70.02 70.31 75.09 78.1 75.09 78.1 70.02 70.28 70.02"/><path class="cls-3" d="M138.55,76.3c-10.89-6.29-29.22-6.13-29.22-6.13a18.13,18.13,0,0,0-7-6.77,23.53,23.53,0,0,0-4-1.82c-8.18-2.88-22.13.49-26.06,4-6.73,6,5.57,27.69,5.57,27.69s43.1,11.83,55.4,7.66,17-17.13,6.27-24q-.48-.32-1-.6" transform="translate(0 -0.55)"/><path class="cls-5" d="M166.51,56.45a52.52,52.52,0,0,1-8,7.58c-11.6-8.51-31.54-14.14-54.18-14.14C68.44,49.89,39.39,64,39.39,81.34q0,.63.06,1.26c0,.4-.06.81-.06,1.22a15.66,15.66,0,0,0,1.87,7.3C36.07,91,31,90.66,26,90.23A23.72,23.72,0,0,1,24.83,83c0-23.58,35.57-42.71,79.45-42.71C129.48,40.28,152,46.6,166.51,56.45Z" transform="translate(0 -0.55)"/><path class="cls-6" d="M133.27,100.93c-12.3,4.18-55.4-7.66-55.4-7.66s-.69-1.21-1.65-3.15c-3.11-6.24-9.06-20-3.92-24.54,3.93-3.51,17.88-6.88,26.06-4a23.17,23.17,0,0,1,4,1.82,18.13,18.13,0,0,1,7,6.77s17.4-.15,28.37,5.66c.29.15.57.3.85.47l1,.6C150.26,83.8,145.59,96.76,133.27,100.93Z" transform="translate(0 -0.55)"/><path class="cls-3" d="M133.27,100.93c-12.3,4.18-55.4-7.66-55.4-7.66s-.69-1.21-1.65-3.15c-3.11-6.24-9.06-20-3.92-24.54,3.93-3.51,17.88-6.88,26.06-4a23.17,23.17,0,0,1,4,1.82,18.13,18.13,0,0,1,7,6.77s17.4-.15,28.37,5.66c.29.15.57.3.85.47l1,.6C150.26,83.8,145.59,96.76,133.27,100.93Z" transform="translate(0 -0.55)"/><path class="cls-5" d="M137.7,75.83C121.17,82.89,100,88,76.22,90.12c-3.11-6.24-9.06-20-3.92-24.54,3.93-3.51,17.88-6.88,26.06-4a23.17,23.17,0,0,1,4,1.82,18.13,18.13,0,0,1,7,6.77S126.73,70,137.7,75.83Z" transform="translate(0 -0.55)"/><path class="cls-7" d="M180.77,94.58c-9.4,18-40.09,31.13-76.49,31.13-20.74,0-39.62-4.27-53.77-11.27,0,0,39.42,15.73,81.9,6.62C172.28,112,180.77,94.58,180.77,94.58Z" transform="translate(0 -0.55)"/><path class="cls-7" d="M142.93,79.83a10.64,10.64,0,0,1,2,10.61c-1.52,4.43-5.68,8.48-11.62,10.49-12.3,4.18-55.4-7.66-55.4-7.66s-.46-.81-1.15-2.15a8.72,8.72,0,0,0,1.73,1.77c9.78,3.1,45.07,11.9,57.21,5.83C151.52,90.12,142.93,79.83,142.93,79.83Z" transform="translate(0 -0.55)"/><ellipse class="cls-2" cx="79.45" cy="77.79" rx="79.45" ry="42.71"/><rect class="cls-2" y="62.58" width="158.9" height="15.22"/><ellipse class="cls-3" cx="79.45" cy="62.58" rx="79.45" ry="42.71"/><ellipse class="cls-2" cx="79.45" cy="60.92" rx="64.88" ry="31.45"/><ellipse class="cls-4" cx="79.45" cy="63.4" rx="64.88" ry="30.62"/><path class="cls-2" d="M113.73,60c-10.9-6.29-29.23-6.12-29.23-6.12a18.11,18.11,0,0,0-7-6.78,24,24,0,0,0-4-1.81c-8.18-2.89-22.13.49-26.06,4C40.74,55.23,53,76.93,53,76.93s43.1,11.83,55.4,7.65,17-17.13,6.27-24c-.32-.21-.65-.41-1-.61" transform="translate(0 -0.55)"/><rect class="cls-2" x="116.69" y="66.6" width="4" height="3.65" transform="translate(-0.1 -0.38) rotate(-0.08)"/><polygon class="cls-2" points="45.46 50.16 45.49 55.23 53.28 55.23 53.28 50.16 45.46 50.16"/><path class="cls-3" d="M113.73,56.44c-10.9-6.29-29.23-6.13-29.23-6.13a18.06,18.06,0,0,0-7-6.77,23.17,23.17,0,0,0-4-1.82c-8.18-2.89-22.13.49-26.06,4C40.74,51.71,53,73.41,53,73.41s43.1,11.83,55.4,7.65,17-17.12,6.27-24c-.32-.21-.65-.41-1-.6" transform="translate(0 -0.55)"/><path class="cls-5" d="M141.68,36.59a52.55,52.55,0,0,1-8.05,7.58C122,35.66,102.09,30,79.45,30,43.61,30,14.57,44.11,14.57,61.48c0,.42,0,.84,0,1.25s0,.81,0,1.23a15.68,15.68,0,0,0,1.86,7.3c-5.19-.16-10.3-.47-15.29-.9A23.65,23.65,0,0,1,0,63.13C0,39.54,35.57,20.42,79.45,20.42,104.66,20.42,127.13,26.73,141.68,36.59Z" transform="translate(0 -0.55)"/><path class="cls-6" d="M108.45,81.06C96.14,85.24,53,73.41,53,73.41s-.69-1.22-1.65-3.15c-3.11-6.24-9.06-20-3.92-24.54,3.93-3.51,17.88-6.89,26.06-4a24.47,24.47,0,0,1,4,1.81,18.13,18.13,0,0,1,7,6.78s17.4-.16,28.37,5.65c.29.15.58.31.86.48s.66.39,1,.6C125.44,63.93,120.76,76.89,108.45,81.06Z" transform="translate(0 -0.55)"/><path class="cls-3" d="M108.45,81.06C96.14,85.24,53,73.41,53,73.41s-.69-1.22-1.65-3.15c-3.11-6.24-9.06-20-3.92-24.54,3.93-3.51,17.88-6.89,26.06-4a24.47,24.47,0,0,1,4,1.81,18.13,18.13,0,0,1,7,6.78s17.4-.16,28.37,5.65c.29.15.58.31.86.48s.66.39,1,.6C125.44,63.93,120.76,76.89,108.45,81.06Z" transform="translate(0 -0.55)"/><path class="cls-5" d="M112.87,56C96.34,63,75.13,68.1,51.39,70.26c-3.11-6.24-9.06-20-3.92-24.54,3.93-3.51,17.88-6.89,26.06-4a24.47,24.47,0,0,1,4,1.81,18.13,18.13,0,0,1,7,6.78S101.9,50.15,112.87,56Z" transform="translate(0 -0.55)"/><path class="cls-7" d="M155.94,74.72c-9.39,18-40.08,31.13-76.49,31.13-20.74,0-39.62-4.28-53.77-11.27,0,0,39.42,15.72,81.91,6.62C147.45,92.17,155.94,74.72,155.94,74.72Z" transform="translate(0 -0.55)"/><path class="cls-7" d="M118.1,60a10.62,10.62,0,0,1,2,10.61c-1.52,4.43-5.68,8.48-11.61,10.48C96.14,85.24,53,73.41,53,73.41s-.46-.81-1.14-2.15A8.56,8.56,0,0,0,53.62,73c9.78,3.1,45.07,11.89,57.21,5.83C126.69,70.26,118.1,60,118.1,60Z" transform="translate(0 -0.55)"/><ellipse class="cls-2" cx="96" cy="57.93" rx="79.45" ry="42.71"/><rect class="cls-2" x="16.55" y="42.71" width="158.9" height="15.22"/><ellipse class="cls-3" cx="96" cy="42.71" rx="79.45" ry="42.71"/><ellipse class="cls-2" cx="96" cy="41.06" rx="64.88" ry="31.45"/><ellipse class="cls-4" cx="96" cy="43.54" rx="64.88" ry="30.62"/><path class="cls-2" d="M130.28,40.09C119.39,33.8,101.05,34,101.05,34a18.11,18.11,0,0,0-7-6.78,24,24,0,0,0-4-1.81c-8.18-2.89-22.12.49-26.06,4-6.72,6,5.57,27.69,5.57,27.69S112.69,68.9,125,64.72s17-17.13,6.27-24l-1-.6" transform="translate(0 -0.55)"/><rect class="cls-2" x="133.24" y="46.74" width="4" height="3.65" transform="translate(-0.07 -0.36) rotate(-0.08)"/><polygon class="cls-2" points="62.01 30.3 62.04 35.37 69.83 35.37 69.83 30.3 62.01 30.3"/><path class="cls-3" d="M130.28,36.57c-10.89-6.29-29.23-6.12-29.23-6.12a18.11,18.11,0,0,0-7-6.78,24,24,0,0,0-4-1.81C81.9,19,68,22.35,64,25.85c-6.72,6,5.57,27.7,5.57,27.7S112.69,65.38,125,61.2s17-17.13,6.27-24l-1-.61" transform="translate(0 -0.55)"/><path class="cls-5" d="M158.23,16.73a52.55,52.55,0,0,1-8,7.58C138.58,15.79,118.64,10.17,96,10.17c-35.83,0-64.88,14.08-64.88,31.44a10.43,10.43,0,0,0,.06,1.26,10,10,0,0,0-.06,1.23A15.71,15.71,0,0,0,33,51.4c-5.19-.16-10.3-.47-15.29-.9a23.65,23.65,0,0,1-1.14-7.23C16.55,19.68,52.12.56,96,.56,121.21.56,143.68,6.87,158.23,16.73Z" transform="translate(0 -0.55)"/><path class="cls-6" d="M125,61.2c-12.31,4.18-55.41-7.65-55.41-7.65s-.69-1.22-1.65-3.16c-3.11-6.24-9.06-20-3.92-24.53,3.93-3.51,17.89-6.89,26.06-4a24.08,24.08,0,0,1,4,1.81,18.11,18.11,0,0,1,7,6.78s17.39-.16,28.37,5.65c.29.15.57.31.85.47s.66.4,1,.61C142,44.07,137.31,57,125,61.2Z" transform="translate(0 -0.55)"/><path class="cls-3" d="M125,61.2c-12.31,4.18-55.41-7.65-55.41-7.65s-.69-1.22-1.65-3.16c-3.11-6.24-9.06-20-3.92-24.53,3.93-3.51,17.89-6.89,26.06-4a24.08,24.08,0,0,1,4,1.81,18.11,18.11,0,0,1,7,6.78s17.39-.16,28.37,5.65c.29.15.57.31.85.47s.66.4,1,.61C142,44.07,137.31,57,125,61.2Z" transform="translate(0 -0.55)"/><path class="cls-5" d="M129.43,36.1c-16.54,7.07-37.75,12.14-61.49,14.29-3.11-6.24-9.06-20-3.92-24.53,3.93-3.51,17.89-6.89,26.06-4a24.08,24.08,0,0,1,4,1.81,18.11,18.11,0,0,1,7,6.78S118.45,30.29,129.43,36.1Z" transform="translate(0 -0.55)"/><path class="cls-7" d="M172.49,54.86C163.1,72.82,132.41,86,96,86c-20.74,0-39.62-4.27-53.77-11.26,0,0,39.43,15.72,81.91,6.62C164,72.3,172.49,54.86,172.49,54.86Z" transform="translate(0 -0.55)"/><path class="cls-7" d="M134.65,40.1a10.63,10.63,0,0,1,2,10.62c-1.52,4.43-5.68,8.47-11.61,10.48-12.31,4.18-55.41-7.65-55.41-7.65s-.45-.81-1.14-2.16a8.51,8.51,0,0,0,1.72,1.78C80,56.26,115.24,65.06,127.38,59,143.24,50.39,134.65,40.1,134.65,40.1Z" transform="translate(0 -0.55)"/></svg>