<?xml version="1.0" encoding="UTF-8" standalone="no"?>
<!-- Created with Inkscape (http://www.inkscape.org/) -->

<svg
   xmlns:dc="http://purl.org/dc/elements/1.1/"
   xmlns:cc="http://creativecommons.org/ns#"
   xmlns:rdf="http://www.w3.org/1999/02/22-rdf-syntax-ns#"
   xmlns:svg="http://www.w3.org/2000/svg"
   xmlns="http://www.w3.org/2000/svg"
   xmlns:sodipodi="http://sodipodi.sourceforge.net/DTD/sodipodi-0.dtd"
   xmlns:inkscape="http://www.inkscape.org/namespaces/inkscape"
   width="390"
   height="66"
   viewBox="0 0 390 66"
   id="svg2"
   version="1.1"
   inkscape:version="0.91 r13725"
   sodipodi:docname="btalk.svg">
  <defs
     id="defs4" />
  <sodipodi:namedview
     id="base"
     pagecolor="#ffffff"
     bordercolor="#666666"
     borderopacity="1.0"
     inkscape:pageopacity="0.0"
     inkscape:pageshadow="2"
     inkscape:zoom="1.979899"
     inkscape:cx="137.33494"
     inkscape:cy="112.84483"
     inkscape:document-units="px"
     inkscape:current-layer="layer1"
     showgrid="false"
     units="px"
     inkscape:window-width="1855"
     inkscape:window-height="1056"
     inkscape:window-x="65"
     inkscape:window-y="24"
     inkscape:window-maximized="1" />
  <metadata
     id="metadata7">
    <rdf:RDF>
      <cc:Work
         rdf:about="">
        <dc:format>image/svg+xml</dc:format>
        <dc:type
           rdf:resource="http://purl.org/dc/dcmitype/StillImage" />
        <dc:title></dc:title>
      </cc:Work>
    </rdf:RDF>
  </metadata>
  <g
     inkscape:label="Layer 1"
     inkscape:groupmode="layer"
     id="layer1"
     transform="translate(0,-986.3622)">
    <g
       style="font-style:normal;font-weight:normal;font-size:65.96857452px;line-height:125%;font-family:sans-serif;letter-spacing:0px;word-spacing:0px;fill:#000000;fill-opacity:1;stroke:none;stroke-width:1px;stroke-linecap:butt;stroke-linejoin:miter;stroke-opacity:1"
       id="text4136">
      <path
         d="m 65.017951,1027.3505 q -1.674984,6.6355 -5.669175,11.8537 -3.929768,5.1538 -9.405675,8.4394 -5.411485,3.2211 -11.853728,4.3163 -6.442244,1.0307 -13.077755,-0.5798 -6.635511,-1.675 -11.789306,-5.6048 -5.2182171,-3.9942 -8.5037614,-9.4056 -3.2211218,-5.4115 -4.31630319,-11.9182 -1.03075898,-6.4422 0.57980192,-13.0777 1.67498337,-6.5711 5.66917437,-11.78935 3.9297683,-5.21822 9.3412533,-8.43934 5.475907,-3.28554 11.918151,-4.38073 6.442243,-1.03075 13.077754,0.57981 6.635511,1.67498 11.789306,5.66917 5.218217,3.92977 8.439339,9.40564 3.285544,5.4115 4.380726,11.8538 1.030759,6.4422 -0.579802,13.0777 l 0,0 0,0 z m -17.45848,-12.6912 q 0.450957,-3.2855 -1.739406,-5.2182 -2.125941,-1.9327 -5.54033,-3.0923 l 1.481716,-5.9269 -3.607656,-0.90187 -1.417294,5.79797 q -0.773069,-0.1932 -1.481716,-0.3221 -0.708646,-0.1932 -1.481716,-0.3865 l 1.481716,-5.86244 -3.672079,-0.90192 -1.481716,5.99126 q -0.579801,-0.1932 -1.159603,-0.3221 -0.579802,-0.1288 -1.159604,-0.2577 l -4.960528,-1.224 -0.966336,3.8653 q 0,0 1.288448,0.3222 1.352871,0.3221 1.352871,0.3221 1.095182,0.2577 1.352872,0.9019 0.322112,0.6442 0.322112,1.224 l -4.058614,16.2345 q -0.128845,0.3865 -0.515379,0.773 -0.386535,0.3221 -1.159604,0.1289 0,0 -1.352871,-0.3221 -1.288449,-0.3866 -1.288449,-0.3866 l -1.803828,4.1875 4.702838,1.1596 2.512475,0.6442 -1.481716,6.0557 3.672079,0.9019 1.481716,-5.9912 q 0.708646,0.1932 1.417293,0.3865 0.708647,0.1933 1.417294,0.3865 l -1.352871,5.9269 3.607656,0.9019 1.481716,-6.0557 q 4.638416,0.9019 7.92396,0.1288 3.349966,-0.773 4.831682,-4.9605 1.159604,-3.4144 0.128845,-5.4759 -1.030759,-2.0615 -3.478811,-3.35 1.803828,-0.3865 3.027854,-1.6105 1.224027,-1.2885 1.610561,-3.6721 l 0,0 0.06442,0 z m -8.310495,11.596 q -0.837491,3.4144 -5.089372,2.7058 -4.187458,-0.7731 -6.055709,-1.224 l 1.997095,-7.9884 q 1.868251,0.4509 5.926865,1.7394 4.123035,1.2884 3.221121,4.7672 l 0,0 z m 1.159604,-11.6604 q -0.773069,3.0923 -4.316303,2.5125 -3.543234,-0.5798 -5.089372,-0.9664 l 1.803828,-7.2797 q 1.546138,0.3865 4.960527,1.4817 3.414389,1.0308 2.64132,4.2519 l 0,0 0,0 z"
         style=""
         id="path5849" />
    </g>
    <text
       xml:space="preserve"
       style="font-style:normal;font-weight:bold;font-size:40px;line-height:125%;font-family:Trueno;letter-spacing:0px;word-spacing:0px;fill:#000000;fill-opacity:1;stroke:none;stroke-width:1px;stroke-linecap:butt;stroke-linejoin:miter;stroke-opacity:1;-inkscape-font-specification:'Trueno Bold';font-stretch:normal;font-variant:normal;"
       x="75.256363"
       y="1019.5322"
       id="text4135"
       sodipodi:linespacing="125%"><tspan
         sodipodi:role="line"
         id="tspan4137"
         x="75.256363"
         y="1019.5322" /></text>
    <g
       style="font-style:normal;font-weight:normal;font-size:45.95989227px;line-height:125%;font-family:sans-serif;letter-spacing:0px;word-spacing:0px;fill:#000000;fill-opacity:1;stroke:none;stroke-width:1px;stroke-linecap:butt;stroke-linejoin:miter;stroke-opacity:1"
       id="text4139">
      <path
         d="m 71.672018,1003.1842 -4.641949,32.2179 16.499602,0 c 7.721262,0 13.144529,-3.493 13.971807,-9.0081 0.597478,-4.0905 -1.470717,-7.3077 -5.331348,-8.1349 3.492952,-0.9652 6.020746,-3.6768 6.480345,-6.94 0.735358,-4.9637 -3.630831,-8.1349 -11.168254,-8.1349 l -15.810203,0 z m 8.456621,7.1698 5.790946,0 c 1.884356,0 2.941433,1.0111 2.711634,2.6656 -0.27576,1.7005 -1.608597,2.8036 -3.492952,2.8036 l -5.790947,0 0.781319,-5.4692 z m -1.746476,11.9955 5.790946,0 c 2.435874,0 3.814671,1.103 3.538912,2.8495 -0.2298,1.8844 -1.930316,3.0793 -4.36619,3.0793 l -5.790946,0 0.827278,-5.9288 z"
         style="font-style:italic;font-variant:normal;font-weight:800;font-stretch:normal;font-family:Trueno;-inkscape-font-specification:'Trueno Ultra-Bold Italic'"
         id="path5826" />
      <path
         d="m 109.71317,1035.4021 4.64195,-32.2179 -9.55966,0 -4.64195,32.2179 9.55966,0 z"
         style="font-style:italic;font-variant:normal;font-weight:800;font-stretch:normal;font-family:Trueno;-inkscape-font-specification:'Trueno Ultra-Bold Italic'"
         id="path5828" />
      <path
         d="m 144.55867,1010.8136 1.10303,-7.6294 -28.31129,0 -1.10304,7.6294 9.32986,0 -3.53891,24.5885 9.60562,0 3.53891,-24.5885 9.37582,0 z"
         style="font-style:italic;font-variant:normal;font-weight:800;font-stretch:normal;font-family:Trueno;-inkscape-font-specification:'Trueno Ultra-Bold Italic'"
         id="path5830" />
      <path
         d="m 164.17923,1002.9085 c -9.97329,0 -18.29203,6.9399 -19.67083,16.3157 -1.3788,9.5137 4.82579,16.5915 14.61524,16.5915 4.87175,0 10.52482,-2.4358 14.56929,-6.2045 l -4.68791,-5.8829 c -2.52779,2.252 -5.74499,3.7227 -8.22682,3.7227 -4.36619,0 -7.12378,-3.5848 -6.43438,-8.3187 0.64343,-4.7339 4.4581,-8.2728 8.82429,-8.2728 2.66568,0 5.42327,1.7005 7.07783,4.2743 l 6.48034,-6.5263 c -2.80355,-3.493 -7.6753,-5.699 -12.54705,-5.699 z"
         style="font-style:italic;font-variant:normal;font-weight:800;font-stretch:normal;font-family:Trueno;-inkscape-font-specification:'Trueno Ultra-Bold Italic'"
         id="path5832" />
      <path
         d="m 196.09622,1002.9085 c -10.11118,0 -18.52184,6.8939 -19.90063,16.3617 -1.3788,9.5137 5.05558,16.5455 15.16676,16.5455 10.11118,0 18.5678,-7.0778 19.94659,-16.5455 1.3788,-9.4218 -5.10154,-16.3617 -15.21272,-16.3617 z m -1.01112,7.997 c 4.22831,0 7.12378,3.5389 6.43439,8.4106 -0.6894,4.8718 -4.64195,8.5026 -8.87026,8.5026 -4.22831,0 -7.35359,-3.6308 -6.66419,-8.5026 0.6894,-4.8717 4.82579,-8.4106 9.10006,-8.4106 z"
         style="font-style:italic;font-variant:normal;font-weight:800;font-stretch:normal;font-family:Trueno;-inkscape-font-specification:'Trueno Ultra-Bold Italic'"
         id="path5834" />
      <path
         d="m 222.18923,1035.4021 4.64195,-32.2179 -9.55966,0 -4.64195,32.2179 9.55966,0 z"
         style="font-style:italic;font-variant:normal;font-weight:800;font-stretch:normal;font-family:Trueno;-inkscape-font-specification:'Trueno Ultra-Bold Italic'"
         id="path5836" />
      <path
         d="m 258.18373,1035.4021 4.64195,-32.2179 -8.73238,0 -2.61971,18.0163 -11.03038,-18.0163 -8.18086,0 -4.64195,32.2179 8.77834,0 2.57375,-17.9244 11.07634,17.9244 8.1349,0 z"
         style="font-style:italic;font-variant:normal;font-weight:800;font-stretch:normal;font-family:Trueno;-inkscape-font-specification:'Trueno Ultra-Bold Italic'"
         id="path5838" />
      <path
         d="m 293.03066,1010.8136 1.10304,-7.6294 -28.3113,0 -1.10304,7.6294 9.32986,0 -3.53891,24.5885 9.60562,0 3.53891,-24.5885 9.37582,0 z"
         style="font-style:italic;font-variant:normal;font-weight:800;font-stretch:normal;font-family:Trueno;-inkscape-font-specification:'Trueno Ultra-Bold Italic'"
         id="path5840" />
      <path
         d="m 314.94922,1030.2546 1.149,5.1475 10.20309,0 -8.64046,-32.2179 -9.83541,0 -18.38396,32.2179 9.83542,0 2.66567,-5.1475 13.00665,0 z m -1.51668,-6.9859 -7.81318,0 5.46923,-10.5248 2.34395,10.5248 z"
         style="font-style:italic;font-variant:normal;font-weight:800;font-stretch:normal;font-family:Trueno;-inkscape-font-specification:'Trueno Ultra-Bold Italic'"
         id="path5842" />
      <path
         d="m 339.31514,1027.4051 3.49295,-24.2209 -9.55966,0 -4.64194,32.2179 23.07186,0 1.149,-7.997 -13.51221,0 z"
         style="font-style:italic;font-variant:normal;font-weight:800;font-stretch:normal;font-family:Trueno;-inkscape-font-specification:'Trueno Ultra-Bold Italic'"
         id="path5844" />
      <path
         d="m 375.67946,1035.4021 11.44401,0 -9.69754,-19.1193 13.60413,-13.0986 -11.03037,0 -12.59301,12.4092 1.79243,-12.4092 -9.55965,0 -4.64195,32.2179 9.55965,0 1.10304,-7.7213 4.18235,-4.0444 5.83691,11.7657 z"
         style="font-style:italic;font-variant:normal;font-weight:800;font-stretch:normal;font-family:Trueno;-inkscape-font-specification:'Trueno Ultra-Bold Italic'"
         id="path5846" />
    </g>
  </g>
</svg>
