<svg id="Слой_1" data-name="Слой 1" xmlns="http://www.w3.org/2000/svg" viewBox="0 0 123 113"><defs><style>.cls-1{fill:none;}.cls-1,.cls-3{stroke:#d9193f;stroke-miterlimit:10;}.cls-2,.cls-5{fill:#d9193f;}.cls-2{opacity:0.5;}.cls-3,.cls-4{fill:#fff;}</style></defs><title>description1</title><circle class="cls-1" cx="61.5" cy="56.5" r="56"/><circle class="cls-2" cx="61.5" cy="56.5" r="56"/><path class="cls-3" d="M19,17.74h78.6a2,2,0,0,1,2,2V67.3a0,0,0,0,1,0,0H17a0,0,0,0,1,0,0V19.74A2,2,0,0,1,19,17.74Z"/><path class="cls-3" d="M10.67,67.3H106a0,0,0,0,1,0,0v3.08a2,2,0,0,1-2,2H12.67a2,2,0,0,1-2-2V67.3a0,0,0,0,1,0,0Z"/><path class="cls-3" d="M49.5,67.59H67.15a0,0,0,0,1,0,0v0a2,2,0,0,1-2,2H51.5a2,2,0,0,1-2-2v0A0,0,0,0,1,49.5,67.59Z"/><rect class="cls-3" x="20.83" y="24.09" width="74.98" height="39.4" rx="2" ry="2"/><circle class="cls-4" cx="58.32" cy="20.92" r="1.41"/><path class="cls-5" d="M58.82,25.42a.91.91,0,1,1-.9.9.9.9,0,0,1,.9-.9m0-1a1.91,1.91,0,1,0,1.91,1.9,1.9,1.9,0,0,0-1.91-1.9Z" transform="translate(-0.5 -5.41)"/><path class="cls-5" d="M56.93,59.91s15.09-5.37,16.31-10-3-11.1-8.34-11.39S55,42.91,55,42.91A9.5,9.5,0,0,0,48.83,42c-3.12.76-5.06,5.47-4.56,7.85C45.12,53.9,56.93,59.91,56.93,59.91Z" transform="translate(-0.5 -5.41)"/><rect class="cls-3" x="0.5" y="44.43" width="30.5" height="45.75" rx="2" ry="2"/><rect class="cls-3" x="72.17" y="49.83" width="40.67" height="61" rx="1" ry="1" transform="translate(172.33 -17.57) rotate(90)"/><rect class="cls-3" x="75.98" y="53.65" width="33.04" height="55.92" rx="1" ry="1" transform="translate(173.6 -16.3) rotate(90)"/><rect class="cls-3" x="3.04" y="49.51" width="25.42" height="35.58" rx="1" ry="1"/><circle class="cls-4" cx="92" cy="57.14" r="0.77"/><path class="cls-5" d="M92.5,62.27a.27.27,0,1,1-.27.27.27.27,0,0,1,.27-.27m0-1a1.27,1.27,0,1,0,1.27,1.27,1.27,1.27,0,0,0-1.27-1.27Z" transform="translate(-0.5 -5.41)"/><path class="cls-5" d="M91.05,89.77s11.52-4.1,12.45-7.64-2.27-8.47-6.37-8.69-7.58,3.37-7.58,3.37a7.25,7.25,0,0,0-4.67-.71c-2.38.58-3.86,4.17-3.48,6C82.05,85.19,91.05,89.77,91.05,89.77Z" transform="translate(-0.5 -5.41)"/><path class="cls-5" d="M15.13,79s8.89-3.17,9.61-5.91-1.75-6.53-4.91-6.7S14,69,14,69a5.5,5.5,0,0,0-3.6-.55c-1.84.44-3,3.22-2.69,4.62C8.18,75.48,15.13,79,15.13,79Z" transform="translate(-0.5 -5.41)"/><circle class="cls-3" cx="39.5" cy="4.59" r="3"/><circle class="cls-3" cx="71" cy="7.09" r="1.5"/><circle class="cls-3" cx="108.5" cy="26.59" r="3"/><circle class="cls-3" cx="45.5" cy="83.59" r="4"/><circle class="cls-3" cx="68.5" cy="106.59" r="2"/><circle class="cls-3" cx="28.5" cy="101.59" r="3"/><circle class="cls-3" cx="94.5" cy="101.59" r="2"/><circle class="cls-3" cx="6.5" cy="22.59" r="2"/><circle class="cls-3" cx="97.5" cy="3.59" r="1"/><rect class="cls-3" x="113.5" y="41.59" width="4" height="4" rx="1" ry="1"/><rect class="cls-3" x="49.5" y="98.59" width="4" height="4" rx="1" ry="1"/><path class="cls-3" d="M51,18.89l.08-1.84a1.06,1.06,0,0,1,1.63-.86l1.56,1A1.06,1.06,0,0,1,54.19,19l-1.63.86A1.07,1.07,0,0,1,51,18.89Z" transform="translate(-0.5 -5.41)"/></svg>