<svg id="Слой_1" data-name="Слой 1" xmlns="http://www.w3.org/2000/svg" viewBox="0 0 123 118.94"><defs><style>.cls-1,.cls-4{fill:none;}.cls-1,.cls-4,.cls-5,.cls-6{stroke:#d9193f;}.cls-1,.cls-6{stroke-miterlimit:10;}.cls-2{fill:#d9193f;opacity:0.5;}.cls-3,.cls-5,.cls-6{fill:#fff;}.cls-4,.cls-5{stroke-linecap:round;stroke-linejoin:round;}</style></defs><title>description3</title><circle class="cls-1" cx="61.5" cy="60.41" r="56"/><circle class="cls-2" cx="61.5" cy="60.5" r="56"/><path class="cls-3" d="M54.16,54.19,45.47,45.5a3.93,3.93,0,0,0-2.79-1.15H4.94A3.93,3.93,0,0,0,1,48.29V87.66l7.88-7.87h33.8a3.94,3.94,0,0,0,2.79-1.16L78.6,45.5a3.93,3.93,0,0,1,2.78-1.15h33.74L123,36.47V75.85a3.94,3.94,0,0,1-3.94,3.94H81.38a3.94,3.94,0,0,1-2.78-1.16l-8.69-8.69Z" transform="translate(-0.5 -2.5)"/><path class="cls-4" d="M69.91,69.94l8.69,8.69a3.94,3.94,0,0,0,2.78,1.16h37.68A3.94,3.94,0,0,0,123,75.85V36.47l-7.88,7.88H81.38A3.93,3.93,0,0,0,78.6,45.5L45.47,78.63a3.94,3.94,0,0,1-2.79,1.16H8.88L1,87.66V48.29a3.93,3.93,0,0,1,3.94-3.94H42.68a3.93,3.93,0,0,1,2.79,1.15l8.69,8.69Z" transform="translate(-0.5 -2.5)"/><line class="cls-4" x1="9.21" y1="51.91" x2="40.2" y2="51.91"/><line class="cls-4" x1="9.21" y1="69.34" x2="40.2" y2="69.34"/><line class="cls-4" x1="9.21" y1="60.63" x2="40.2" y2="60.63"/><line class="cls-4" x1="82.8" y1="51.91" x2="113.79" y2="51.91"/><line class="cls-4" x1="82.8" y1="69.34" x2="113.79" y2="69.34"/><line class="cls-4" x1="82.8" y1="60.63" x2="113.79" y2="60.63"/><path class="cls-5" d="M44,108V89.2a2,2,0,0,0-2-2H20a2,2,0,0,0-2,2v11.6a2,2,0,0,0,2,2H38.8Z" transform="translate(-0.5 -2.5)"/><path class="cls-5" d="M83,37V23a2,2,0,0,1,2-2h16a2,2,0,0,1,2,2v8a2,2,0,0,1-2,2H87Z" transform="translate(-0.5 -2.5)"/><path class="cls-5" d="M94,103V92a2,2,0,0,1,2-2h12.25a2,2,0,0,1,2,2v5.75a2,2,0,0,1-2,2h-11Z" transform="translate(-0.5 -2.5)"/><path class="cls-5" d="M86.25,120v-9a1,1,0,0,0-1-1H74.75a1,1,0,0,0-1,1v5.5a1,1,0,0,0,1,1h9Z" transform="translate(-0.5 -2.5)"/><path class="cls-5" d="M60.5,94V83.4a1,1,0,0,1,1-1H74a1,1,0,0,1,1,1v6.7a1,1,0,0,1-1,1H63.4Z" transform="translate(-0.5 -2.5)"/><path class="cls-5" d="M63.91,41V31.67a1,1,0,0,0-1-1H52a1,1,0,0,0-1,1v5.75a1,1,0,0,0,1,1h9.33Z" transform="translate(-0.5 -2.5)"/><path class="cls-5" d="M38.25,29V17a1,1,0,0,0-1-1H23a1,1,0,0,0-1,1v7.75a1,1,0,0,0,1,1H35Z" transform="translate(-0.5 -2.5)"/><circle class="cls-6" cx="51.5" cy="4.5" r="4"/><circle class="cls-6" cx="105.5" cy="107.5" r="4"/><circle class="cls-6" cx="66" cy="47" r="1.5"/><circle class="cls-6" cx="48.5" cy="82.5" r="1"/><circle class="cls-6" cx="114.5" cy="25.5" r="2"/><rect class="cls-6" x="66" y="100.16" width="3.61" height="3.61" rx="1" ry="1" transform="translate(-45.67 52.24) rotate(-33.69)"/><path class="cls-6" d="M57.13,119l1-2.18a1.38,1.38,0,0,1,2.38-.23l1.39,2a1.38,1.38,0,0,1-1,2.18l-2.38.23A1.39,1.39,0,0,1,57.13,119Z" transform="translate(-0.5 -2.5)"/><path class="cls-6" d="M68.71,23l-.22-2.27a1.33,1.33,0,0,1,1.87-1.33l2.07,1a1.31,1.31,0,0,1,.22,2.27L70.79,24A1.32,1.32,0,0,1,68.71,23Z" transform="translate(-0.5 -2.5)"/></svg>