<svg id="Слой_1" data-name="Слой 1" xmlns="http://www.w3.org/2000/svg" viewBox="0 0 120 123"><defs><style>.cls-1{fill:none;}.cls-1,.cls-3{stroke:#d9193f;stroke-miterlimit:10;}.cls-2,.cls-4{fill:#d9193f;}.cls-2{opacity:0.5;}.cls-3{fill:#fff;}</style></defs><title>description2</title><circle class="cls-1" cx="60.2" cy="61.5" r="56"/><circle class="cls-2" cx="60.2" cy="61.5" r="56"/><path class="cls-3" d="M60.56,56.52v59.21a7.19,7.19,0,0,1-7.18,7.18H17.5a7.18,7.18,0,0,1-7.18-7.18V56.52a25.12,25.12,0,0,0,50.24,0Z" transform="translate(-2.5 -0.41)"/><path class="cls-4" d="M42.61,80.6V87A3.59,3.59,0,0,1,39,90.61H31.85A3.6,3.6,0,0,1,28.26,87V80.6" transform="translate(-2.5 -0.41)"/><circle class="cls-3" cx="32.94" cy="56.12" r="25.12"/><circle class="cls-3" cx="32.94" cy="56.12" r="16.15"/><circle class="cls-3" cx="32.94" cy="56.12" r="12.56"/><circle class="cls-3" cx="32.94" cy="56.12" r="5.38"/><circle class="cls-3" cx="87.46" cy="97.38" r="25.12"/><path class="cls-3" d="M64.84,29.61v7.18L72,29.61h40.06a3,3,0,0,0,3-3V3.91a3,3,0,0,0-3-3H67.84a3,3,0,0,0-3,3Z" transform="translate(-2.5 -0.41)"/><line class="cls-3" x1="69.52" y1="7.68" x2="91.05" y2="7.68"/><line class="cls-3" x1="69.52" y1="14.85" x2="105.4" y2="14.85"/><line class="cls-3" x1="69.52" y1="22.03" x2="94.64" y2="22.03"/><circle class="cls-3" cx="87.46" cy="97.38" r="17.94"/><path class="cls-4" d="M88.45,106.34s12-4.29,13-8-2.37-8.86-6.67-9.1-7.93,3.53-7.93,3.53A7.53,7.53,0,0,0,82,92c-2.49.6-4,4.36-3.64,6.26C79,101.54,88.45,106.34,88.45,106.34Z" transform="translate(-2.5 -0.41)"/><circle class="cls-3" cx="111.5" cy="39.59" r="4"/><circle class="cls-3" cx="98.5" cy="61.59" r="2"/><circle class="cls-3" cx="50.5" cy="21.59" r="3"/><circle class="cls-3" cx="19.5" cy="23.59" r="4"/><circle class="cls-3" cx="33" cy="9.09" r="1.5"/><circle class="cls-3" cx="67.5" cy="68.59" r="3"/><circle class="cls-3" cx="2.5" cy="82.59" r="2"/><circle class="cls-3" cx="83.5" cy="56.59" r="4"/><rect class="cls-3" x="66.5" y="44.59" width="4" height="4" rx="1" ry="1"/><rect class="cls-3" x="88.5" y="37.59" width="6" height="6" rx="1" ry="1"/><rect class="cls-3" x="113.5" y="64.59" width="6" height="6" rx="1" ry="1"/><rect class="cls-3" x="7.5" y="31.59" width="5" height="5" rx="1" ry="1"/><path class="cls-3" d="M56.13,7l1-2.18a1.38,1.38,0,0,1,2.38-.23l1.39,2a1.38,1.38,0,0,1-1,2.18l-2.38.23A1.39,1.39,0,0,1,56.13,7Z" transform="translate(-2.5 -0.41)"/><path class="cls-3" d="M64,118l1-2.18a1.38,1.38,0,0,1,2.38-.23l1.39,2a1.38,1.38,0,0,1-1,2.18l-2.39.23A1.38,1.38,0,0,1,64,118Z" transform="translate(-2.5 -0.41)"/></svg>