<?xml version="1.0" encoding="utf-8"?>
<!-- Generator: Adobe Illustrator 21.0.2, SVG Export Plug-In . SVG Version: 6.00 Build 0)  -->
<svg version="1.1" id="Layer_1" xmlns="http://www.w3.org/2000/svg" xmlns:xlink="http://www.w3.org/1999/xlink" x="0px" y="0px"
	 viewBox="0 0 345.2 50.6" style="enable-background:new 0 0 345.2 50.6;" xml:space="preserve">
<style type="text/css">
	.st0{fill:#000;}
</style>
<g>
	<rect x="7.1" y="3.9" class="st0" width="14.6" height="44"/>
	<path class="st0" d="M49.9,15.6c3.4,0,7.4,2.3,10,5.9l8.4-10c-4.5-4.9-11.9-8-18.6-8c-13.8,0-23.9,9.4-23.9,22.4
		c0,13.1,9.8,22.7,23.3,22.7c6.8,0,14.3-3.5,19.2-8.8l-8.4-9c-2.9,3.1-6.8,5-10,5c-5.3,0-9.1-4.3-9.1-10.2
		C40.8,19.8,44.6,15.6,49.9,15.6z"/>
	<path class="st0" d="M143.4,3.9l-11.6,27.4h-8c-1.6,0-3,0.9-3.7,2.3l-3.9,8.1h11.2l-2.6,6.2h12.3c1.6,0,3-1,3.6-2.5l1.4-3.7h16.5
		l1.3,3.7c0.5,1.5,2,2.5,3.6,2.5h12.8l-17.9-44H143.4z M145.8,31.3l4.6-12.9l4.5,12.9H145.8z"/>
	<path class="st0" d="M193.4,3.9h-10.8c-2.1,0-3.8,1.7-3.8,3.8V48h29.1c2.1,0,3.8-1.7,3.8-3.8v-8.3h-18.3V3.9z"/>
	<path class="st0" d="M249.5,36.9h-19.5v-5.5h20.6V20.4h-20.6V15H249c2.1,0,3.8-1.7,3.8-3.8V3.9h-33.5c-2.1,0-3.8,1.7-3.8,3.8V48
		h37.8v-7.3C253.3,38.6,251.6,36.9,249.5,36.9z"/>
	<path class="st0" d="M298.9,19.7c0-10.1-6.8-15.8-18.8-15.8h-17.5c-2.1,0-3.8,1.7-3.8,3.8V48h10.8c2.1,0,3.8-1.7,3.8-3.8v-7.7h5.5
		l5.3,11.4h16.5L292,33.6C296.5,30.9,298.9,26.1,298.9,19.7z M280.2,25.5h-6.7V15h6.7c3.1,0,5,1.9,5,5.2
		C285.1,23.5,283.3,25.5,280.2,25.5z"/>
	<path class="st0" d="M305.4,3.9c-2.1,0-3.8,1.7-3.8,3.8v7.7h12.5V48h14.6V15.4h8.8c2.1,0,3.8-1.7,3.8-3.8V3.9H305.4z"/>
	<path class="st0" d="M94.1,3.7c-12.3,0-22.3,10-22.3,22.3s10,22.3,22.3,22.3c12.3,0,22.3-10,22.3-22.3S106.4,3.7,94.1,3.7z
		 M95.9,34.6c0,1-0.8,1.9-1.9,1.9s-1.9-0.8-1.9-1.9V34h3.7V34.6z M102.5,33.3H85.6c-0.5,0-0.8-0.4-0.8-0.8c0-0.5,0.4-0.8,0.8-0.8H86
		v-6.2c0-4,3-7.4,6.8-8v-0.8c0-0.7,0.6-1.3,1.3-1.3s1.3,0.6,1.3,1.3v0.8c3.9,0.6,6.8,3.9,6.8,8v6.2h0.4c0.5,0,0.8,0.4,0.8,0.8
		C103.4,32.9,103,33.3,102.5,33.3z"/>
</g>
</svg>
