<?xml version="1.0" encoding="UTF-8" standalone="no"?>
<!-- Created with Inkscape (http://www.inkscape.org/) -->

<svg
   xmlns:dc="http://purl.org/dc/elements/1.1/"
   xmlns:cc="http://creativecommons.org/ns#"
   xmlns:rdf="http://www.w3.org/1999/02/22-rdf-syntax-ns#"
   xmlns:svg="http://www.w3.org/2000/svg"
   xmlns="http://www.w3.org/2000/svg"
   xmlns:sodipodi="http://sodipodi.sourceforge.net/DTD/sodipodi-0.dtd"
   xmlns:inkscape="http://www.inkscape.org/namespaces/inkscape"
   width="140"
   height="42"
   viewBox="0 0 140 42.000001"
   id="svg4761"
   version="1.1"
   inkscape:version="0.91 r13725"
   sodipodi:docname="icobench.svg">
  <defs
     id="defs4763" />
  <sodipodi:namedview
     id="base"
     pagecolor="#ffffff"
     bordercolor="#666666"
     borderopacity="1.0"
     inkscape:pageopacity="0.0"
     inkscape:pageshadow="2"
     inkscape:zoom="2.8"
     inkscape:cx="37.376314"
     inkscape:cy="63.816533"
     inkscape:document-units="px"
     inkscape:current-layer="layer1"
     showgrid="false"
     units="px"
     inkscape:window-width="1855"
     inkscape:window-height="1056"
     inkscape:window-x="65"
     inkscape:window-y="24"
     inkscape:window-maximized="1" />
  <metadata
     id="metadata4766">
    <rdf:RDF>
      <cc:Work
         rdf:about="">
        <dc:format>image/svg+xml</dc:format>
        <dc:type
           rdf:resource="http://purl.org/dc/dcmitype/StillImage" />
        <dc:title></dc:title>
      </cc:Work>
    </rdf:RDF>
  </metadata>
  <g
     inkscape:label="Layer 1"
     inkscape:groupmode="layer"
     id="layer1"
     transform="translate(0,-1010.3622)">
    <g
       transform="translate(0,968.3622)"
       id="g81">
      <path
         inkscape:connector-curvature="0"
         class="st5"
         d="m 0,84 42,0 0,-42 -42,0 0,42 z m 1.4,-40.6 39.1,0 0,39.1 -39.1,0 0,-39.1 z"
         id="path83" />
      <rect
         x="7"
         y="56.700001"
         class="st5"
         width="1.4"
         height="12.6"
         id="rect85" />
      <path
         inkscape:connector-curvature="0"
         class="st5"
         d="m 17,68 c -2.8,0 -5.1,-2.3 -5.1,-5 0,-2.8 2.3,-5 5.1,-5 1.4,0 2.8,0.6 3.7,1.6 l 0.9,-1 c -1.2,-1.1 -2.9,-1.8 -4.6,-1.8 -3.7,0 -6.6,2.8 -6.6,6.3 0,3.6 2.9,6.4 6.5,6.4 1.7,0 3.4,-0.7 4.7,-1.9 l -0.9,-1 C 19.7,67.4 18.4,68 17,68 Z"
         id="path87" />
      <path
         inkscape:connector-curvature="0"
         class="st5"
         d="m 28.4,56.7 c -3.7,0 -6.6,2.8 -6.6,6.3 0,3.5 2.9,6.4 6.6,6.4 3.7,0 6.6,-2.8 6.6,-6.4 0,-3.6 -2.9,-6.3 -6.6,-6.3 z m 0,11.3 c -2.8,0 -5.1,-2.3 -5.1,-5 0,-2.8 2.3,-5 5.1,-5 2.8,0 5.1,2.2 5.1,5 0.1,2.8 -2.3,5 -5.1,5 z"
         id="path89" />
      <path
         inkscape:connector-curvature="0"
         class="st5"
         d="m 58,57.2 c -2.2,0 -3.9,0.9 -5.1,2.4 l 0,-8.6 -5.7,0 0,23.9 5.7,0 0,-2.3 c 1.2,1.6 3,2.4 5.2,2.4 4.8,0 8,-3.5 8,-8.8 0,-5.4 -3.2,-9 -8.1,-9 z m -1.4,13.2 c -2.2,0 -3.7,-1.7 -3.7,-4.3 0,-2.6 1.5,-4.3 3.7,-4.3 2.3,0 3.8,1.8 3.8,4.3 0,2.6 -1.6,4.3 -3.8,4.3 z"
         id="path91" />
      <path
         inkscape:connector-curvature="0"
         class="st5"
         d="m 76.1,57.2 c -5.4,0 -9.1,3.6 -9.1,9 0,5.3 3.5,8.8 9.2,8.8 3.2,0 5.8,-1.1 7.6,-3.1 l -3,-3 c -1.2,1.2 -2.6,1.8 -4.1,1.8 -2,0 -3.4,-1.1 -4,-3.1 l 12.1,0 C 85.2,61.3 82.2,57.2 76.1,57.2 Z m -3.5,7.4 c 0.4,-2 1.6,-3.3 3.5,-3.3 1.9,0 3.2,1.4 3.2,3.3 l -6.7,0 z"
         id="path93" />
      <path
         inkscape:connector-curvature="0"
         class="st5"
         d="m 97.3,57.2 c -2.5,0 -4.5,1.1 -5.8,3.1 l 0,-2.8 -5.7,0 0,17.4 5.7,0 0,-9.2 c 0.2,-2 1.5,-3.3 3.4,-3.3 1.8,0 3,1.2 3,3.2 l 0,9.3 5.7,0 0,-11 c 0,-4.1 -2.6,-6.7 -6.3,-6.7 z"
         id="path95" />
      <path
         inkscape:connector-curvature="0"
         class="st5"
         d="m 113.7,70.4 c -2.1,0 -3.5,-1.7 -3.5,-4.2 0,-2.5 1.4,-4.2 3.5,-4.2 1.5,0 2.6,0.7 3.4,1.8 l 4.1,-2.4 c -1.5,-2.6 -4.3,-4.1 -7.8,-4.1 -5.4,0 -9,3.6 -9,9 0,5.3 3.6,8.8 8.9,8.8 3.7,0 6.5,-1.5 7.9,-4.2 L 117,68.5 c -0.6,1.3 -1.8,1.9 -3.3,1.9 z"
         id="path97" />
      <path
         inkscape:connector-curvature="0"
         class="st5"
         d="m 133.7,57.2 c -2.5,0 -4.5,1.1 -5.8,3.1 l 0,-9.3 -5.7,0 0,23.9 5.7,0 0,-8.6 c 0,-2.3 1.3,-3.9 3.4,-3.9 1.8,0 3,1.2 3,3.2 l 0,9.3 5.7,0 0,-11 c 0,-4.1 -2.5,-6.7 -6.3,-6.7 z"
         id="path99" />
    </g>
  </g>
</svg>
