<?xml version="1.0" encoding="UTF-8" standalone="no"?>
<!-- Created with Inkscape (http://www.inkscape.org/) -->

<svg
   xmlns:dc="http://purl.org/dc/elements/1.1/"
   xmlns:cc="http://creativecommons.org/ns#"
   xmlns:rdf="http://www.w3.org/1999/02/22-rdf-syntax-ns#"
   xmlns:svg="http://www.w3.org/2000/svg"
   xmlns="http://www.w3.org/2000/svg"
   xmlns:sodipodi="http://sodipodi.sourceforge.net/DTD/sodipodi-0.dtd"
   xmlns:inkscape="http://www.inkscape.org/namespaces/inkscape"
   width="470"
   height="66"
   viewBox="0 0 470 66.000001"
   id="svg4143"
   version="1.1"
   inkscape:version="0.91 r13725"
   sodipodi:docname="icoholder.svg">
  <defs
     id="defs4145">
    <clipPath
       clipPathUnits="userSpaceOnUse"
       id="clipPath5743">
      <rect
         style="fill:#000000;fill-opacity:1;stroke:#ffffff;stroke-width:10;stroke-miterlimit:4;stroke-dasharray:none;stroke-opacity:1"
         id="rect5745"
         width="1880"
         height="708.57141"
         x="-848.57141"
         y="-230.49501" />
    </clipPath>
    <clipPath
       clipPathUnits="userSpaceOnUse"
       id="clipPath5768">
      <rect
         style="fill:#000000;fill-opacity:1;stroke:#ffffff;stroke-width:10;stroke-miterlimit:4;stroke-dasharray:none;stroke-opacity:1"
         id="rect5770"
         width="894.28571"
         height="154.28572"
         x="-1017.1429"
         y="955.2193" />
    </clipPath>
    <clipPath
       clipPathUnits="userSpaceOnUse"
       id="clipPath5774">
      <rect
         style="fill:#000000;fill-opacity:1;stroke:none;stroke-width:10;stroke-miterlimit:4;stroke-dasharray:none;stroke-opacity:1"
         id="rect5776"
         width="446.32242"
         height="503.34155"
         x="-370.98178"
         y="-68.463219" />
    </clipPath>
  </defs>
  <sodipodi:namedview
     id="base"
     pagecolor="#ffffff"
     bordercolor="#666666"
     borderopacity="1.0"
     inkscape:pageopacity="0.0"
     inkscape:pageshadow="2"
     inkscape:zoom="1.4"
     inkscape:cx="140.70681"
     inkscape:cy="153.36153"
     inkscape:document-units="px"
     inkscape:current-layer="layer1"
     showgrid="false"
     units="px"
     inkscape:window-width="1855"
     inkscape:window-height="1056"
     inkscape:window-x="65"
     inkscape:window-y="24"
     inkscape:window-maximized="1" />
  <metadata
     id="metadata4148">
    <rdf:RDF>
      <cc:Work
         rdf:about="">
        <dc:format>image/svg+xml</dc:format>
        <dc:type
           rdf:resource="http://purl.org/dc/dcmitype/StillImage" />
        <dc:title></dc:title>
      </cc:Work>
    </rdf:RDF>
  </metadata>
  <g
     inkscape:label="Layer 1"
     inkscape:groupmode="layer"
     id="layer1"
     transform="translate(0,-986.36216)">
    <path
       style="fill:#000000"
       clip-path="url(#clipPath5774)"
       d="M 10.462891 0 C 10.368467 0 10.257228 0.19263013 10.216797 0.42773438 C 10.176366 0.66283862 10.102557 9.4082317 10.052734 19.861328 C 10.002899 30.314425 9.9480618 39.044699 9.9296875 39.261719 C 9.9113132 39.478738 9.888751 41.056151 9.8808594 42.767578 L 9.8671875 45.847656 C 9.8647008 45.860158 9.8619165 45.873329 9.859375 45.882812 L 8.9960938 46.357422 C 8.5172308 46.620647 8.1092374 46.818353 8.0878906 46.796875 C 8.066557 46.775397 8.0043613 36.267536 7.9511719 23.445312 C 7.8578799 0.95882051 7.8459391 0.13085938 7.6132812 0.13085938 C 7.3436117 0.13085937 0.78064878 3.7610487 0.62890625 3.9941406 C 0.57575625 4.0757793 0.53256527 16.589083 0.53125 31.800781 C 0.52956646 55.005695 0.5568802 59.469735 0.70703125 59.527344 C 0.80545279 59.565118 2.1236273 58.890522 3.6347656 58.029297 C 5.1459039 57.168072 7.8916641 55.606225 9.7363281 54.556641 C 15.432585 51.315556 24.245788 46.296539 30.714844 42.611328 C 34.114813 40.674464 37.636769 38.669876 38.541016 38.15625 C 39.445263 37.642624 40.252004 37.222709 40.333984 37.222656 C 40.600524 37.222512 42.620352 38.464617 42.576172 38.601562 C 42.552563 38.674731 38.447548 41.102503 33.455078 43.996094 C 28.462621 46.889684 21.808488 50.748166 18.667969 52.570312 C 15.52745 54.392446 10.625137 57.235077 7.7734375 58.888672 C 4.9217249 60.54228 2.5253137 61.999938 2.4472656 62.126953 C 2.338756 62.303528 2.351105 62.384165 2.5019531 62.472656 C 2.6104628 62.536315 4.1193143 63.445102 5.8554688 64.492188 C 7.5916232 65.539273 9.1307111 66.401252 9.2753906 66.40625 C 9.6353796 66.418548 57.273219 38.887376 57.322266 38.638672 C 57.348676 38.504778 56.705309 38.054596 55.349609 37.255859 C 53.422004 36.120164 38.888259 27.61339 25.125 19.566406 C 21.544182 17.472801 18.392368 15.616968 18.121094 15.441406 L 17.626953 15.121094 L 17.626953 13.939453 C 17.626953 13.204073 17.679962 12.757812 17.765625 12.757812 C 17.841345 12.757812 20.874166 14.483685 24.505859 16.591797 C 32.711372 21.35491 36.150739 23.347173 42.748047 27.158203 C 45.605468 28.808839 50.24678 31.490772 53.060547 33.119141 C 57.854411 35.893423 58.1867 36.066024 58.353516 35.837891 C 58.493565 35.646361 58.53125 34.775196 58.53125 31.753906 C 58.53125 28.287187 58.510507 27.886771 58.302734 27.642578 C 58.17614 27.493782 57.124233 26.827372 55.966797 26.162109 C 54.809361 25.496833 49.068506 22.187545 43.208984 18.808594 C 37.349463 15.429656 28.264164 10.191561 23.019531 7.1679688 C 17.774898 4.1443769 12.842283 1.2953713 12.058594 0.8359375 C 11.274904 0.37650369 10.557314 0 10.462891 0 z M 17.603516 24.017578 C 17.663084 23.980764 18.448723 24.382234 19.347656 24.910156 C 20.246577 25.438092 23.599747 27.392683 26.800781 29.253906 C 30.001816 31.115116 32.621094 32.68859 32.621094 32.75 C 32.621094 32.811423 29.247814 34.790062 25.125 37.146484 C 21.002186 39.502893 17.599222 41.431641 17.5625 41.431641 C 17.448137 41.431641 17.488969 24.088366 17.603516 24.017578 z "
       transform="translate(0,986.36216)"
       id="path4819-6-3" />
    <path
       style="fill:#000000;stroke:none;stroke-opacity:1"
       d="M 311.20508 3.6523438 C 310.39506 3.684143 309.83858 3.8978787 309.44336 4.5507812 L 309.01562 4.6582031 L 309.01562 5.6445312 C 308.4097 8.2104479 308.55273 13.986311 308.55273 26.859375 C 308.55273 51.153595 308.62454 51.893274 311.29102 55.574219 C 312.72636 57.555663 315.02461 59.19026 317.78516 60.191406 C 318.62896 60.497413 320.40735 60.684511 322.26758 60.695312 C 323.54486 60.810811 324.69512 60.791987 325.45703 60.632812 L 326.89453 60.591797 L 326.89453 55.716797 L 326.89453 50.841797 L 324.04102 50.609375 C 318.85512 50.187529 319.23242 52.074315 319.23242 26.640625 C 319.23242 12.497248 319.4079 7.006348 318.54102 4.9082031 L 318.53516 4.4082031 L 318.25391 4.3984375 C 317.50065 3.3608483 316.18881 3.7109375 313.89258 3.7109375 C 312.78425 3.7109375 311.90411 3.6249011 311.20508 3.6523438 z M 210.67773 3.6855469 C 208.65219 3.7185202 206.66325 3.9793263 206.20117 4.4414062 C 206.15618 4.4863984 206.11392 4.547496 206.07422 4.6230469 L 205.93555 4.6582031 L 205.93555 5.0800781 C 205.53458 6.7001039 205.4707 12.114324 205.4707 32.263672 C 205.4707 47.16441 205.60157 59.693142 205.75977 60.105469 C 205.96139 60.630955 206.64894 60.776346 209.19727 60.751953 C 211.04379 60.869698 213.3367 60.838637 214.48633 60.628906 L 214.49414 60.628906 L 215.91992 60.591797 L 216.03906 32.732422 C 216.15106 6.9531796 216.10228 4.8281084 215.37109 4.2910156 C 214.76567 3.8463249 212.70328 3.6525735 210.67773 3.6855469 z M 371.3418 3.6855469 C 369.31525 3.7165352 367.32471 3.976076 366.85938 4.4414062 C 366.82056 4.4802243 366.79073 4.5603265 366.75586 4.6171875 L 366.59375 4.6582031 L 366.59375 5.0214844 C 366.19633 6.431667 366.13086 10.866724 366.13086 26.873047 C 366.13086 44.870647 366.01862 48.727128 365.47266 49.474609 C 364.86215 50.310453 364.08621 50.386219 354.79688 50.517578 L 345.60547 50.648438 C 345.20899 50.593687 344.86047 50.520358 344.55078 50.431641 L 343.58398 49.464844 L 342.44336 48.322266 C 342.42579 48.255733 342.40634 48.18921 342.39062 48.119141 L 342.53516 40.40625 C 342.64065 34.747576 342.84961 32.374999 343.2832 31.941406 C 343.72181 31.502845 346.50145 31.276439 353.5 31.107422 L 363.11133 30.875 L 363.24609 26.037109 C 363.34407 22.479676 363.22069 21.099144 362.78125 20.820312 C 361.67139 20.116129 345.28008 20.359997 342.29688 21.123047 L 342.2168 21.123047 L 342.10742 21.175781 C 337.42427 22.450974 333.98616 25.667903 332.70508 29.992188 C 332.35075 31.18891 332.22011 35.111013 332.31836 41.554688 C 332.45562 50.554277 332.54586 51.46801 333.50781 53.419922 C 334.90847 56.262051 337.09173 58.416639 339.89648 59.728516 C 342.14339 60.779577 342.60508 60.814453 354.28906 60.814453 C 365.96673 60.814453 366.4379 60.779255 368.68359 59.730469 C 371.92496 58.216747 373.86287 56.451752 375.32422 53.681641 L 376.57812 51.304688 L 376.71484 28.097656 C 376.84193 6.5123098 376.7944 4.8488324 376.04492 4.3007812 C 375.43112 3.851958 373.36834 3.6545585 371.3418 3.6855469 z M 172.09766 7.015625 C 170.84797 7.0191478 169.4698 7.034878 167.93945 7.0585938 C 157.80174 7.2157237 156.74034 7.3126246 154.27148 8.2929688 C 148.82831 10.454295 143.96645 15.316807 141.78711 20.779297 C 140.8194 23.204921 140.70811 24.33362 140.56055 33.3125 C 140.38076 44.253183 140.71039 46.359837 143.31445 50.9375 C 146.05462 55.754294 151.67937 59.9863 157.00391 61.236328 C 159.5132 61.825519 178.77964 61.834545 181.32617 61.248047 C 188.95222 59.491711 195.78321 52.643066 197.54883 44.984375 C 198.15826 42.340701 198.15826 26.37219 197.54883 23.728516 C 196.30577 18.3366 191.96454 12.514159 187.12305 9.7441406 C 183.27028 7.5398117 180.84548 6.9909651 172.09766 7.015625 z M 69.861328 7.4101562 C 68.322887 7.4180465 66.954777 7.5100442 66.441406 7.7070312 C 65.783587 7.9594885 65.707031 10.74175 65.707031 34.367188 C 65.707031 55.035578 65.832343 60.797011 66.287109 60.980469 C 67.384372 61.423256 74.590867 61.288852 75.488281 60.808594 C 76.359972 60.342172 76.386719 59.558364 76.386719 34.433594 C 76.386719 14.913361 76.250113 8.402503 75.830078 7.9824219 C 75.465984 7.6183276 72.425396 7.3970061 69.861328 7.4101562 z M 124.75781 7.4609375 C 122.16604 7.4630292 118.80996 7.484924 114.45117 7.5175781 C 97.79834 7.6423441 95.454193 7.750654 93.875 8.4648438 C 90.669809 9.9143953 88.567163 11.969587 86.966797 15.21875 L 85.441406 18.314453 L 85.291016 33.039062 C 85.124135 49.376722 85.42603 51.933118 87.943359 55.484375 C 89.467483 57.634511 93.338709 60.144993 96.080078 60.761719 C 97.1245 60.996671 105.85217 61.210886 115.47461 61.238281 C 131.20817 61.282996 133.04801 61.209801 133.74219 60.515625 C 134.37665 59.881208 134.48557 58.979578 134.35547 55.447266 C 134.26836 53.083444 134.02312 50.974104 133.81055 50.761719 C 133.59798 50.54938 125.35753 50.316809 115.49805 50.244141 C 103.44998 50.15536 97.371967 49.946941 96.962891 49.607422 C 96.484257 49.210186 96.353516 45.952116 96.353516 34.357422 C 96.353516 21.213345 96.437179 19.542673 97.121094 18.974609 C 97.735776 18.464076 101.46534 18.310383 115.87695 18.201172 L 133.86719 18.064453 L 134.14062 17.041016 C 134.65613 15.118454 134.44635 9.0203693 133.83594 8.1855469 C 133.42385 7.6220104 132.53313 7.4546625 124.75781 7.4609375 z M 169.2793 17.650391 C 178.63939 17.640407 178.8689 17.664031 181.24805 18.849609 C 183.97043 20.206202 185.6135 22.089495 186.65625 25.044922 C 187.68716 27.966824 187.64872 40.78039 186.59961 43.859375 C 185.626 46.716827 183.00589 49.336936 180.14844 50.310547 C 177.13367 51.337603 161.16505 51.360448 158.38477 50.341797 C 155.58447 49.315763 153.67682 47.614499 152.35352 44.958984 C 151.18869 42.621398 151.14379 42.236996 151.14844 34.382812 C 151.15266 26.790846 151.22828 26.072689 152.24805 23.910156 C 153.55273 21.143527 154.83639 19.88248 157.64453 18.609375 C 159.52758 17.755654 160.67843 17.659677 169.2793 17.650391 z M 225.50586 20.466797 C 221.62111 20.452799 220.00243 20.585855 219.62109 20.902344 C 218.59116 21.757132 218.63551 30.426565 219.67188 30.824219 C 220.07584 30.979259 224.35808 31.107422 229.18945 31.107422 C 237.35468 31.107422 238.0411 31.171963 238.9043 32.035156 C 239.79071 32.921612 239.83203 33.582689 239.83203 46.583984 C 239.83203 54.075191 239.97231 60.343401 240.14258 60.513672 C 240.3128 60.683896 242.60617 60.824219 245.24023 60.824219 C 249.87357 60.824219 250.03904 60.788972 250.30273 59.738281 C 250.45276 59.140965 250.50895 52.402443 250.42773 44.763672 C 250.28467 31.307889 250.24561 30.799423 249.17969 28.441406 C 247.89999 25.610653 245.30398 23.092824 242.23242 21.703125 C 240.29857 20.828184 238.99513 20.700122 230.18359 20.527344 C 228.34729 20.491346 226.80078 20.471463 225.50586 20.466797 z M 461.50977 20.466797 C 459.94723 20.466038 458.08355 20.480034 455.87695 20.507812 L 443.88281 20.660156 L 440.71484 22.220703 C 437.43058 23.838529 435.25817 26.185211 434.07422 29.396484 C 433.4737 31.025268 433.2033 59.949439 433.7832 60.529297 C 433.92744 60.673566 435.44007 60.753042 437.36133 60.742188 C 437.80005 60.75737 438.17886 60.782328 438.64844 60.787109 C 440.02199 60.801236 440.97271 60.759711 441.65039 60.642578 L 443.44141 60.591797 L 443.48438 57.935547 C 443.62873 56.16075 443.66897 52.811406 443.67188 46.660156 L 443.67383 46.507812 C 443.89239 33.248024 443.95807 32.385555 444.80664 31.765625 C 445.52566 31.240373 447.97231 31.107422 456.90234 31.107422 C 464.99008 31.107422 468.25172 30.951404 468.6543 30.548828 C 469.50008 29.703047 469.40514 21.631179 468.54102 20.914062 C 468.17121 20.606733 466.19737 20.469074 461.50977 20.466797 z M 279.99609 20.660156 C 270.05349 20.660156 268.04764 20.778921 266.01562 21.488281 C 262.80677 22.608482 260.11632 25.026023 258.57812 28.169922 C 257.37546 30.628095 257.28952 31.228451 257.10156 38.488281 C 256.99073 42.768865 257.12188 47.606718 257.39648 49.367188 C 258.20786 54.568263 261.3168 58.402114 266.1582 60.167969 C 267.52882 60.668054 270.6753 60.786516 280.22852 60.701172 L 292.5332 60.591797 L 295.08789 59.152344 C 296.49249 58.360054 298.31867 56.830135 299.14648 55.753906 C 301.71763 52.411134 302.15987 49.910373 301.9707 39.78125 C 301.8236 31.906459 301.69066 30.62624 300.82031 28.728516 C 299.41445 25.663321 296.85421 23.03236 294.03906 21.759766 C 291.68717 20.696631 291.21356 20.660156 279.99609 20.660156 z M 405.83008 20.660156 C 395.5338 20.660156 393.50604 20.772713 392.04492 21.435547 C 389.41773 22.627301 386.32225 25.755951 385.10547 28.447266 C 384.05868 30.762471 384.00781 31.345373 384.00781 41.089844 C 384.00781 51.070241 384.03384 51.358482 385.16797 53.580078 C 386.55428 56.295677 389.26654 58.765834 392.13281 59.925781 C 393.92885 60.6526 395.67594 60.77654 404.57031 60.798828 L 414.91797 60.824219 L 414.80273 56.673828 C 414.80037 56.337865 414.80218 56.019356 414.78906 55.644531 L 414.71484 53.527344 L 414.65234 51.304688 L 405.29688 51.072266 C 396.94229 50.864941 395.83849 50.746999 394.9668 49.957031 C 394.04445 49.121187 393.99023 48.615279 393.99023 40.785156 C 393.99023 33.118293 394.06063 32.429608 394.91992 31.570312 C 395.7911 30.699133 396.46639 30.642578 405.85156 30.642578 C 415.8542 30.642578 415.85653 30.641687 416.99609 31.78125 C 418.3889 33.174107 418.45046 34.761786 417.17383 36.384766 L 416.34375 37.439453 C 416.17936 37.502447 415.9841 37.559067 415.75195 37.607422 L 406.97461 37.607422 C 401.21615 37.607422 398.71389 37.529864 397.61914 38.300781 L 397.47266 38.304688 L 397.47266 38.402344 C 396.66744 39.104196 396.77539 40.417491 396.77539 42.882812 C 396.77539 45.055343 396.71204 46.288328 397.47266 46.982422 L 397.47266 47.126953 L 397.64258 47.128906 C 398.83419 47.959663 401.65528 47.852759 408.3457 47.736328 C 418.14984 47.565733 418.42003 47.535698 420.75391 46.318359 C 425.50096 43.842263 427.88672 39.611839 427.88672 33.669922 C 427.88672 28.190108 425.15558 24.014934 420.01562 21.636719 C 418.0385 20.721892 417.12607 20.660156 405.83008 20.660156 z M 275.33594 31.091797 C 276.53758 31.093655 277.92794 31.107422 279.5332 31.107422 C 292.38726 31.107422 291.37305 30.280179 291.37305 40.769531 C 291.37305 46.772647 291.2212 48.781362 290.71484 49.474609 C 290.10434 50.310453 289.32839 50.386219 280.03906 50.517578 L 270.41211 50.654297 C 270.22814 50.607551 270.09859 50.573044 269.88672 50.523438 L 268.85742 49.494141 C 267.70699 48.343897 267.69141 48.229954 267.69141 40.646484 C 267.69141 31.592911 266.92444 31.078792 275.33594 31.091797 z "
       transform="translate(0,986.36216)"
       id="path4819-6-9" />
  </g>
</svg>
