<svg id="Слой_1" data-name="Слой 1" xmlns="http://www.w3.org/2000/svg" viewBox="0 0 183.08 177.73"><defs><style>.cls-1{fill:#cacaca;opacity:0.5;}.cls-2{fill:#a1193f;}.cls-3{fill:#d9193f;}.cls-4{fill:#cf1842;}.cls-5,.cls-7{fill:#fff;}.cls-5{opacity:0.1;}.cls-6{fill:#bc193f;}</style></defs><title>light-column</title><ellipse class="cls-1" cx="91.54" cy="128.52" rx="91.54" ry="49.21"/><ellipse class="cls-2" cx="91.54" cy="117.52" rx="79.45" ry="42.71"/><rect class="cls-2" x="12.09" y="102.3" width="158.9" height="15.22"/><ellipse class="cls-3" cx="91.54" cy="102.3" rx="79.45" ry="42.71"/><ellipse class="cls-2" cx="91.54" cy="100.65" rx="64.88" ry="31.45"/><ellipse class="cls-4" cx="91.54" cy="103.13" rx="64.88" ry="30.62"/><path class="cls-2" d="M126.53,99.47c-10.89-6.29-29.23-6.12-29.23-6.12a18.11,18.11,0,0,0-7-6.78,23.17,23.17,0,0,0-4-1.81c-8.18-2.89-22.12.48-26.06,4-6.72,6,5.57,27.69,5.57,27.69s43.1,11.84,55.41,7.66,17-17.13,6.27-24l-1-.6" transform="translate(-0.71 -0.35)"/><rect class="cls-2" x="129.49" y="106.12" width="4" height="3.65" transform="translate(-0.87 -0.15) rotate(-0.08)"/><polygon class="cls-2" points="57.55 89.89 57.58 94.96 65.37 94.96 65.37 89.89 57.55 89.89"/><path class="cls-3" d="M126.53,96c-10.89-6.29-29.23-6.12-29.23-6.12a18.11,18.11,0,0,0-7-6.78,24,24,0,0,0-4-1.81c-8.18-2.89-22.12.49-26.06,4-6.72,6,5.57,27.7,5.57,27.7s43.1,11.83,55.41,7.65,17-17.13,6.27-24l-1-.6" transform="translate(-0.71 -0.35)"/><path class="cls-5" d="M154.48,76.11a52.55,52.55,0,0,1-8,7.58c-11.6-8.52-31.54-14.15-54.18-14.15-35.83,0-64.88,14.09-64.88,31.45a10.43,10.43,0,0,0,.06,1.26,10,10,0,0,0-.06,1.23,15.71,15.71,0,0,0,1.86,7.3c-5.19-.16-10.3-.47-15.29-.9a23.7,23.7,0,0,1-1.14-7.23c0-23.59,35.57-42.71,79.45-42.71C117.46,59.94,139.93,66.25,154.48,76.11Z" transform="translate(-0.71 -0.35)"/><path class="cls-6" d="M121.25,120.58c-12.31,4.18-55.41-7.65-55.41-7.65s-.69-1.22-1.65-3.16c-3.11-6.24-9.06-20-3.92-24.53,3.93-3.51,17.89-6.89,26.06-4a24.08,24.08,0,0,1,4,1.81,18.11,18.11,0,0,1,7,6.78s17.39-.16,28.37,5.65c.29.15.57.31.85.47s.66.4,1,.61C138.24,103.45,133.56,116.41,121.25,120.58Z" transform="translate(-0.71 -0.35)"/><path class="cls-3" d="M121.25,120.58c-12.31,4.18-55.41-7.65-55.41-7.65s-.69-1.22-1.65-3.16c-3.11-6.24-9.06-20-3.92-24.53,3.93-3.51,17.89-6.89,26.06-4a24.08,24.08,0,0,1,4,1.81,18.11,18.11,0,0,1,7,6.78s17.39-.16,28.37,5.65c.29.15.57.31.85.47s.66.4,1,.61C138.24,103.45,133.56,116.41,121.25,120.58Z" transform="translate(-0.71 -0.35)"/><path class="cls-5" d="M125.68,95.48c-16.54,7.07-37.75,12.14-61.49,14.29-3.11-6.24-9.06-20-3.92-24.53,3.93-3.51,17.89-6.89,26.06-4a24.08,24.08,0,0,1,4,1.81,18.11,18.11,0,0,1,7,6.78S114.7,89.67,125.68,95.48Z" transform="translate(-0.71 -0.35)"/><path class="cls-7" d="M168.74,114.23c-9.39,18-40.08,31.13-76.49,31.13-20.74,0-39.62-4.27-53.77-11.26,0,0,39.43,15.72,81.91,6.62C160.25,131.68,168.74,114.23,168.74,114.23Z" transform="translate(-0.71 -0.35)"/><path class="cls-7" d="M130.9,99.48a10.63,10.63,0,0,1,2,10.62c-1.52,4.42-5.68,8.47-11.61,10.48-12.31,4.18-55.41-7.65-55.41-7.65s-.45-.81-1.14-2.16a8.31,8.31,0,0,0,1.72,1.77c9.79,3.1,45.07,11.9,57.21,5.83C139.49,109.77,130.9,99.48,130.9,99.48Z" transform="translate(-0.71 -0.35)"/><ellipse class="cls-2" cx="99.81" cy="97.66" rx="79.45" ry="42.71"/><rect class="cls-2" x="20.37" y="82.44" width="158.9" height="15.22"/><ellipse class="cls-3" cx="99.81" cy="82.44" rx="79.45" ry="42.71"/><ellipse class="cls-2" cx="99.81" cy="80.78" rx="64.88" ry="31.45"/><ellipse class="cls-4" cx="99.81" cy="83.27" rx="64.88" ry="30.62"/><path class="cls-2" d="M134.8,79.61c-10.89-6.29-29.22-6.13-29.22-6.13a18.13,18.13,0,0,0-7-6.77,23.53,23.53,0,0,0-4-1.82c-8.18-2.88-22.13.49-26.06,4-6.73,6,5.57,27.69,5.57,27.69s43.1,11.83,55.4,7.66,17-17.13,6.27-24q-.48-.31-1-.6" transform="translate(-0.71 -0.35)"/><rect class="cls-2" x="137.77" y="86.26" width="4" height="3.65" transform="translate(-0.84 -0.14) rotate(-0.08)"/><polygon class="cls-2" points="65.82 70.02 65.85 75.09 73.64 75.09 73.64 70.02 65.82 70.02"/><path class="cls-3" d="M134.8,76.09C123.91,69.8,105.58,70,105.58,70a18.11,18.11,0,0,0-7-6.78,23.53,23.53,0,0,0-4-1.81c-8.18-2.89-22.13.48-26.06,4-6.73,6,5.57,27.69,5.57,27.69s43.1,11.84,55.4,7.66,17-17.13,6.27-24l-1-.6" transform="translate(-0.71 -0.35)"/><path class="cls-5" d="M162.76,56.25a53,53,0,0,1-8,7.58c-11.6-8.52-31.54-14.15-54.18-14.15-35.84,0-64.89,14.09-64.89,31.45,0,.42,0,.85.06,1.26s-.06.81-.06,1.22a15.66,15.66,0,0,0,1.87,7.3c-5.19-.15-10.3-.46-15.29-.89a23.7,23.7,0,0,1-1.14-7.23c0-23.59,35.57-42.72,79.45-42.72C125.73,40.07,148.2,46.39,162.76,56.25Z" transform="translate(-0.71 -0.35)"/><path class="cls-6" d="M129.52,100.72c-12.3,4.18-55.4-7.66-55.4-7.66s-.69-1.21-1.65-3.15c-3.11-6.24-9.06-20-3.92-24.54,3.93-3.51,17.88-6.88,26.06-4a24,24,0,0,1,4,1.81,18.11,18.11,0,0,1,7,6.78S123,69.81,134,75.62c.29.15.57.31.85.47s.67.4,1,.61C146.51,83.59,141.84,96.55,129.52,100.72Z" transform="translate(-0.71 -0.35)"/><path class="cls-3" d="M129.52,100.72c-12.3,4.18-55.4-7.66-55.4-7.66s-.69-1.21-1.65-3.15c-3.11-6.24-9.06-20-3.92-24.54,3.93-3.51,17.88-6.88,26.06-4a24,24,0,0,1,4,1.81,18.11,18.11,0,0,1,7,6.78S123,69.81,134,75.62c.29.15.57.31.85.47s.67.4,1,.61C146.51,83.59,141.84,96.55,129.52,100.72Z" transform="translate(-0.71 -0.35)"/><path class="cls-5" d="M134,75.62c-16.53,7.07-37.74,12.14-61.48,14.29-3.11-6.24-9.06-20-3.92-24.54,3.93-3.51,17.88-6.88,26.06-4a24,24,0,0,1,4,1.81,18.11,18.11,0,0,1,7,6.78S123,69.81,134,75.62Z" transform="translate(-0.71 -0.35)"/><path class="cls-7" d="M177,94.37c-9.4,18-40.09,31.13-76.49,31.13-20.74,0-39.62-4.27-53.77-11.27,0,0,39.42,15.73,81.9,6.63C168.53,111.82,177,94.37,177,94.37Z" transform="translate(-0.71 -0.35)"/><path class="cls-7" d="M139.18,79.62a10.64,10.64,0,0,1,2,10.61c-1.52,4.43-5.68,8.48-11.62,10.49-12.3,4.18-55.4-7.66-55.4-7.66s-.46-.8-1.15-2.15a8.72,8.72,0,0,0,1.73,1.77c9.78,3.1,45.07,11.9,57.21,5.83C147.77,89.91,139.18,79.62,139.18,79.62Z" transform="translate(-0.71 -0.35)"/><ellipse class="cls-2" cx="83.26" cy="77.79" rx="79.45" ry="42.71"/><rect class="cls-2" x="3.81" y="62.58" width="158.9" height="15.22"/><ellipse class="cls-3" cx="83.26" cy="62.58" rx="79.45" ry="42.71"/><ellipse class="cls-2" cx="83.26" cy="60.92" rx="64.88" ry="31.45"/><ellipse class="cls-4" cx="83.26" cy="63.4" rx="64.88" ry="30.62"/><path class="cls-2" d="M118.25,59.75C107.36,53.46,89,53.62,89,53.62a18.06,18.06,0,0,0-7-6.77,23.53,23.53,0,0,0-4-1.82c-8.18-2.88-22.13.49-26.06,4-6.73,6,5.56,27.69,5.56,27.69s43.1,11.83,55.41,7.66,17-17.13,6.27-24q-.48-.32-1-.6" transform="translate(-0.71 -0.35)"/><rect class="cls-2" x="121.22" y="66.4" width="4" height="3.65" transform="translate(-0.81 -0.17) rotate(-0.08)"/><polygon class="cls-2" points="49.27 50.16 49.3 55.23 57.09 55.23 57.09 50.16 49.27 50.16"/><path class="cls-3" d="M118.25,56.23C107.36,49.94,89,50.1,89,50.1a18.13,18.13,0,0,0-7-6.77,23.53,23.53,0,0,0-4-1.82c-8.18-2.88-22.13.49-26.06,4-6.73,6,5.56,27.69,5.56,27.69S100.66,85,113,80.86s17-17.13,6.27-24q-.48-.31-1-.6" transform="translate(-0.71 -0.35)"/><path class="cls-5" d="M146.21,36.38A52.5,52.5,0,0,1,138.16,44C126.55,35.45,106.62,29.82,84,29.82c-35.83,0-64.88,14.09-64.88,31.45q0,.63.06,1.26c0,.4-.06.81-.06,1.22A15.77,15.77,0,0,0,21,71.05q-7.78-.24-15.28-.89a23.42,23.42,0,0,1-1.14-7.24C4.53,39.34,40.1,20.21,84,20.21,109.18,20.21,131.65,26.53,146.21,36.38Z" transform="translate(-0.71 -0.35)"/><path class="cls-6" d="M113,80.86c-12.3,4.18-55.4-7.66-55.4-7.66s-.69-1.21-1.65-3.15c-3.11-6.24-9.06-20-3.92-24.54,3.93-3.51,17.88-6.88,26.06-4a23.53,23.53,0,0,1,4,1.82,18.13,18.13,0,0,1,7,6.77s17.4-.15,28.37,5.66c.29.15.57.3.85.47l1,.6C130,63.73,125.29,76.69,113,80.86Z" transform="translate(-0.71 -0.35)"/><path class="cls-3" d="M113,80.86c-12.3,4.18-55.4-7.66-55.4-7.66s-.69-1.21-1.65-3.15c-3.11-6.24-9.06-20-3.92-24.54,3.93-3.51,17.88-6.88,26.06-4a23.53,23.53,0,0,1,4,1.82,18.13,18.13,0,0,1,7,6.77s17.4-.15,28.37,5.66c.29.15.57.3.85.47l1,.6C130,63.73,125.29,76.69,113,80.86Z" transform="translate(-0.71 -0.35)"/><path class="cls-5" d="M117.4,55.76C100.87,62.82,79.65,67.9,55.92,70.05c-3.11-6.24-9.06-20-3.92-24.54,3.93-3.51,17.88-6.88,26.06-4a23.53,23.53,0,0,1,4,1.82,18.13,18.13,0,0,1,7,6.77S106.43,50,117.4,55.76Z" transform="translate(-0.71 -0.35)"/><path class="cls-7" d="M160.46,74.51c-9.39,18-40.08,31.13-76.49,31.13-20.73,0-39.61-4.27-53.76-11.27,0,0,39.42,15.73,81.9,6.62C152,92,160.46,74.51,160.46,74.51Z" transform="translate(-0.71 -0.35)"/><path class="cls-7" d="M122.62,59.76a10.62,10.62,0,0,1,2,10.61c-1.52,4.43-5.68,8.48-11.61,10.49-12.3,4.18-55.4-7.66-55.4-7.66s-.46-.8-1.15-2.15a8.72,8.72,0,0,0,1.73,1.77c9.78,3.1,45.07,11.9,57.2,5.83C131.22,70.05,122.62,59.76,122.62,59.76Z" transform="translate(-0.71 -0.35)"/><ellipse class="cls-2" cx="91.54" cy="57.93" rx="79.45" ry="42.71"/><rect class="cls-2" x="12.09" y="42.71" width="158.9" height="15.22"/><ellipse class="cls-3" cx="91.54" cy="42.71" rx="79.45" ry="42.71"/><ellipse class="cls-2" cx="91.54" cy="41.06" rx="64.88" ry="31.45"/><ellipse class="cls-4" cx="91.54" cy="43.54" rx="64.88" ry="30.62"/><path class="cls-2" d="M126.53,39.89C115.64,33.6,97.3,33.76,97.3,33.76a18.06,18.06,0,0,0-7-6.77,23.17,23.17,0,0,0-4-1.82c-8.18-2.89-22.12.49-26.06,4-6.72,6,5.57,27.69,5.57,27.69s43.1,11.83,55.41,7.65,17-17.13,6.27-24q-.49-.32-1-.6" transform="translate(-0.71 -0.35)"/><rect class="cls-2" x="129.49" y="46.53" width="4" height="3.65" transform="translate(-0.78 -0.15) rotate(-0.08)"/><polygon class="cls-2" points="57.55 30.3 57.58 35.37 65.37 35.37 65.37 30.3 57.55 30.3"/><path class="cls-3" d="M126.53,36.37c-10.89-6.29-29.23-6.13-29.23-6.13a18.06,18.06,0,0,0-7-6.77,23.17,23.17,0,0,0-4-1.82c-8.18-2.88-22.12.49-26.06,4-6.72,6,5.57,27.69,5.57,27.69s43.1,11.83,55.41,7.66,17-17.13,6.27-24l-1-.6" transform="translate(-0.71 -0.35)"/><path class="cls-5" d="M154.48,16.52a52.07,52.07,0,0,1-8,7.58C134.83,15.59,114.89,10,92.25,10,56.42,10,27.37,24,27.37,41.41a10.36,10.36,0,0,0,.06,1.25,10.13,10.13,0,0,0-.06,1.23,15.65,15.65,0,0,0,1.86,7.3C24,51,18.93,50.73,13.94,50.3a23.77,23.77,0,0,1-1.14-7.24C12.8,19.48,48.37.35,92.25.35,117.46.35,139.93,6.66,154.48,16.52Z" transform="translate(-0.71 -0.35)"/><path class="cls-6" d="M121.25,61c-12.31,4.18-55.41-7.66-55.41-7.66s-.69-1.22-1.65-3.15c-3.11-6.24-9.06-20-3.92-24.54,3.93-3.51,17.89-6.89,26.06-4a24.08,24.08,0,0,1,4,1.81,18.19,18.19,0,0,1,7,6.78s17.39-.15,28.37,5.66c.29.14.57.3.85.47s.66.39,1,.6C138.24,43.86,133.56,56.82,121.25,61Z" transform="translate(-0.71 -0.35)"/><path class="cls-3" d="M121.25,61c-12.31,4.18-55.41-7.66-55.41-7.66s-.69-1.22-1.65-3.15c-3.11-6.24-9.06-20-3.92-24.54,3.93-3.51,17.89-6.89,26.06-4a24.08,24.08,0,0,1,4,1.81,18.19,18.19,0,0,1,7,6.78s17.39-.15,28.37,5.66c.29.14.57.3.85.47s.66.39,1,.6C138.24,43.86,133.56,56.82,121.25,61Z" transform="translate(-0.71 -0.35)"/><path class="cls-5" d="M125.68,35.9C109.14,43,87.93,48,64.19,50.19c-3.11-6.24-9.06-20-3.92-24.54,3.93-3.51,17.89-6.89,26.06-4a24.08,24.08,0,0,1,4,1.81,18.19,18.19,0,0,1,7,6.78S114.7,30.09,125.68,35.9Z" transform="translate(-0.71 -0.35)"/><path class="cls-7" d="M168.74,54.65c-9.39,18-40.08,31.13-76.49,31.13-20.74,0-39.62-4.27-53.77-11.27,0,0,39.43,15.72,81.91,6.62C160.25,72.1,168.74,54.65,168.74,54.65Z" transform="translate(-0.71 -0.35)"/><path class="cls-7" d="M130.9,39.9a10.62,10.62,0,0,1,2,10.61C131.34,54.94,127.18,59,121.25,61c-12.31,4.18-55.41-7.66-55.41-7.66s-.45-.81-1.14-2.15A8.56,8.56,0,0,0,66.42,53c9.79,3.1,45.07,11.9,57.21,5.83C139.49,50.19,130.9,39.9,130.9,39.9Z" transform="translate(-0.71 -0.35)"/></svg>