<?xml version="1.0" encoding="utf-8"?>
<!-- Generator: Adobe Illustrator 22.0.0, SVG Export Plug-In . SVG Version: 6.00 Build 0)  -->
<svg version="1.1" id="Слой_1" xmlns="http://www.w3.org/2000/svg" xmlns:xlink="http://www.w3.org/1999/xlink" x="0px" y="0px"
	 viewBox="0 0 124 48" style="enable-background:new 0 0 124 48;" xml:space="preserve">
<style type="text/css">
	.st0{fill:#FFFFFF;}
</style>
<g>
	<g>
		<path class="st0" d="M116.9,8.4c-4.1-2.1-9.4-1.9-12.5-0.8c-3.1,1.1-5.6,3.7-6.2,9c0,0,1.1-8.7,9.1-8.7c3.2,0,6.5,1.5,8.4,2.4
			c-0.1,1.1-1,4.8-8.2,6.1c6.7-0.2,8.9-2.6,9.9-5.2c0.6,0.1,3.4,0.3,5.8-1.7C123.3,9.4,121.1,10.5,116.9,8.4z"/>
		<path class="st0" d="M123.6,1.4c0,0-12.4-2.4-18.6-0.9C99,2,90.3,6.8,89.9,7.9c-0.2,0.5,1.1,1.8,2,1.8c0.9-0.1,7.8-5.6,14.5-7.1
			C113.1,1.1,121.7,1.9,123.6,1.4z"/>
		<path class="st0" d="M110.3,14.4c0,0,3.7-1.3,4-2.4c0.3-1.1-0.7-2.7-2-2.8c-1.3-0.1-2.4,1.1-2.4,1.1s-0.7-0.4-1.5-0.2
			s-1.2,1.3-1.1,1.9C107.4,12.9,110.3,14.4,110.3,14.4z"/>
		<path class="st0" d="M68.9,13.5c-2.4,2.4-3.6,0.6-3.6,0.6c1.3,2.7,3.1,3,4.2,2.9c0,0.2,0.7,2.1,2.7,2.9c1.9,0.7,3.2,0.6,3.2,0.6
			s-4.6-0.9-5.1-4.5c0.2-0.9,1.2-2.4,5.2-2.4c5.3-0.1,6.5,3.3,6.7,4C80.9,11.5,71.2,11.1,68.9,13.5z"/>
		<path class="st0" d="M82.2,17.6c0,0,0,0,0-0.1C82.2,17.5,82.2,17.6,82.2,17.6z"/>
		<path class="st0" d="M77.8,10.1C76.9,9.3,64,5.8,63.7,6.4c-0.3,0.6,0.2,2.4,0.8,2.4c0.6-0.1,12.4,2.6,14.7,3.5
			C79.2,12.3,78.6,10.8,77.8,10.1z"/>
		<path class="st0" d="M79.7,15.4c0-0.6-0.5-1.1-1.1-1.1c-0.6,0-1.1,0.5-1.1,1.1c0,0.6,0.5,1.1,1.1,1.1C79.2,16.5,79.7,16,79.7,15.4
			z"/>
		<path class="st0" d="M75.9,13.7c-0.3,0.5-0.5,1.1-0.5,1.8c0,1.8,1.4,3.2,3.2,3.2c1.3,0,2.5-0.8,3-2C78.2,19.8,74.8,17,75.9,13.7z"
			/>
	</g>
	<path class="st0" d="M58.1,25.5c-0.6,0.3-1.1,0.7-1.6,1c-2.7,2-4.9,4.4-6.3,7.5c-0.8,1.8-1.1,3.7-1.2,5.6c0,0.6,0.1,1.2,0.1,1.9
		c0,0.4-0.1,0.5-0.5,0.5c-1.8-0.1-3.3-0.9-3.9-2.8c-0.5-1.4-0.3-2.7,0.2-4.1c0.5-1.5,1.3-2.8,2.3-4c2.6-3.4,5.8-6,9.7-7.8
		c1.7-0.8,3.4-1.2,5.3-1.4c1.2-0.1,2.4-0.1,3.6,0c1.1,0.1,2.1,0.4,3,0.9c1.5,0.7,2.4,1.9,2.9,3.5c0.3,1.1,0.5,2.2,0.4,3.4
		c-0.3,6.6-4.1,12.7-9,15.9c-2,1.3-4.2,2.1-6.5,2.4c-1.4,0.2-2.8,0-4.2-0.5c-1.4-0.6-2.2-1.6-2.7-3c-0.1-0.3-0.2-0.6-0.2-0.9
		c0-0.3,0.1-0.4,0.4-0.4c0.1,0,0.2,0.1,0.3,0.1c1.2,0.8,2.5,0.9,3.8,0.9c2.6,0,4.9-1,6.8-2.7c2.3-2,4-4.5,5.1-7.3
		c0.6-1.5,1-3,1.2-4.6c0.1-0.9,0.1-1.9-0.1-2.8c-0.3-1.4-1.1-2.2-2.4-2.6C63.9,24,63,24,62.1,24c-0.3,0-0.4,0.2-0.5,0.3
		c-1.8,2.4-3,5-3.9,7.8c-0.7,2.3-1.1,4.5-1.2,6.9c0,0.6-0.3,0.9-0.9,0.9c-1.4,0-3.2-1-3.1-3.4c0.1-1.1,0.4-2.2,0.8-3.3
		c1-2.5,2.4-4.7,4-6.8C57.6,26.2,57.8,25.9,58.1,25.5C58.1,25.6,58.1,25.6,58.1,25.5z"/>
	<path class="st0" d="M19.1,10.3c0.5-0.8,1.1-1.5,1.8-2.1c0.6-0.5,1.3-0.8,2-0.9c0.9-0.1,1.6,0.2,2.1,0.9c0.5,0.7,0.7,1.4,0.7,2.2
		c0.2,2.4-0.4,4.6-1.5,6.7c-1.3,2.5-3.1,4.4-5.7,5.6c-0.3,0.1-0.3,0.1-0.2,0.5c0.1,0.4,0.3,0.8,0.5,1.2c0.9,1.8,2.1,3.3,3.6,4.5
		c0.9,0.7,1.9,1.3,3,1.5c1,0.2,2,0.1,3-0.3c0.9-0.4,1.3-1.1,1.3-2.1c0-0.1,0-0.2,0-0.2c0-0.2,0.2-0.3,0.4-0.2
		c0.3,0.1,0.5,0.4,0.7,0.6c0.6,0.8,0.9,1.7,1,2.7c0.1,0.5,0,1.1-0.1,1.6c-0.3,1.1-1,1.9-2.1,2.3c-1.6,0.6-3.1,0.5-4.6-0.1
		c-1.2-0.4-2.2-1.1-3.2-1.9c-2.4-2.1-4.1-4.6-5.1-7.6c-0.2-0.5-0.3-1-0.4-1.6c0-0.4-0.2-0.6-0.6-0.7c0,0.2,0,0.3,0,0.5
		c-0.1,2.4,0,4.9,0.4,7.3c0.1,0.7,0,1-0.7,1.2c-1.7,0.4-3.5-0.5-4-2.2c-0.2-0.6-0.2-1.2-0.3-1.7c-0.1-1.3,0.1-2.6,0.3-3.9
		c0.7-3.9,2-7.6,3.6-11.2c0.1-0.3,0.3-0.6,0.4-0.9c0.1-0.3,0.3-0.5,0.4-0.8c-0.2-0.1-0.2,0-0.3,0.1c-3.6,2.6-6.7,5.8-8.9,9.8
		c-0.3,0.5-0.5,0.6-1.1,0.4c-1.3-0.6-2-2.1-1.5-3.5c0.2-0.4,0.4-0.8,0.7-1.2c0.6-0.8,1.3-1.6,2-2.2c2.8-2.6,6-4.6,9.4-6.2
		C17.1,8,18,7.7,18.9,7.5c0.3-0.1,0.5-0.1,0.8,0C20,7.6,20,7.8,19.9,8.1c-0.2,0.5-0.5,0.9-0.7,1.4c0,0,0,0,0,0.1c0,0,0,0.1,0,0.1
		C19,9.7,19,9.8,19,9.9c0,0,0,0.1,0,0.1c-0.1,0-0.1,0.1-0.1,0.2c0,0,0,0,0,0.1c-0.1,0.3-0.3,0.5-0.3,0.9
		C18.8,10.9,18.9,10.6,19.1,10.3z M16.1,20.8c0.1,0,0.2,0,0.2,0c0.1,0,0.1,0,0.2-0.1c0.6-0.2,1.1-0.6,1.5-1.1c1.7-2.1,2.9-4.4,3.6-7
		c0.1-0.3,0.1-0.7,0.1-1c0-0.5-0.3-0.7-0.8-0.4c-0.3,0.1-0.5,0.3-0.6,0.6c-0.4,0.5-0.8,1.1-1.1,1.7c-1,1.9-1.8,3.8-2.5,5.8
		C16.4,19.8,16.2,20.3,16.1,20.8z"/>
	<path class="st0" d="M32.4,22.7c-0.2,0.1-0.2,0.3-0.3,0.4c-0.4,0.8-0.8,1.7-1.3,2.5c-0.3,0.5-0.7,1.1-1.1,1.5
		c-0.2,0.2-0.5,0.5-0.8,0.6c-0.7,0.3-1.4,0.2-1.9-0.4c-0.6-0.7-0.8-1.6-0.8-2.5c0.1-1.4,0.4-2.7,0.8-4c0.7-1.9,1.5-3.6,2.7-5.2
		c0.5-0.7,1.1-1.4,1.8-1.9c0.8-0.7,1.7-1,2.8-0.9c0.5,0,0.9,0.2,1.3,0.4c0.1,0.1,0.2,0.2,0.3,0.2c0-0.3,0-0.6,0.1-0.8
		c0.1-0.1,0.1-0.3,0.2-0.4c0.3-0.5,0.6-0.6,1.1-0.4c0.7,0.3,1.4,0.3,2.2,0.1c0.4-0.1,0.7-0.3,0.8-0.8c0.4-1.7,1.1-3.3,2.1-4.8
		c0.2-0.3,0.5-0.6,0.7-0.9c0.2-0.2,0.5-0.4,0.9-0.4c0.9-0.1,1.5,0.5,1.4,1.3c-0.1,0.8-0.3,1.6-0.5,2.4c-0.2,0.7-0.4,1.4-0.6,2
		c0,0.1-0.1,0.2,0,0.3c0.6-0.1,1.2-0.2,1.8-0.4c1.6-0.4,3.1-0.8,4.6-1.5c0.2-0.1,0.4-0.2,0.5-0.2c0.1,0,0.2-0.2,0.4,0
		c0.1,0.1,0.2,0.3,0.2,0.5c-0.1,0.3-0.2,0.5-0.4,0.8c-0.3,0.3-0.6,0.6-1,0.8c-1,0.7-2,1.2-3.1,1.6c-1.3,0.6-2.7,1-4,1.4
		c-0.3,0.1-0.4,0.2-0.5,0.5c-0.5,2.5-0.6,5.1,0,7.6c0.2,0.8,0.5,1.6,1,2.3c0.9,1.2,2,1.8,3.5,1.8c0.3,0,0.4,0,0.3,0.4
		c-0.1,0.2-0.2,0.4-0.3,0.6c-0.4,0.7-1,1.3-1.6,1.8c-0.8,0.7-1.8,0.8-2.7,0.5c-1.3-0.4-2.3-1.2-3-2.4c-0.7-1.2-1-2.4-1.2-3.8
		c-0.2-2-0.1-4,0.2-6c0.1-0.8,0.3-1.5,0.4-2.3c-0.7,0.2-1.4,0.5-2.2,0.3c-0.1,0.2,0,0.3,0,0.5c0.1,0.4,0.1,0.9,0,1.3
		c-0.2,0.5-0.5,0.6-0.9,0.5c-0.3-0.1-0.5-0.2-0.8-0.2c-1.9-0.4-3.4,0.2-4.6,1.7c-0.6,0.7-1,1.5-1.2,2.4c-0.1,0.3-0.1,0.6,0,0.9
		c0.1,0.3,0.3,0.5,0.6,0.3c0.2-0.1,0.3-0.2,0.4-0.4c0.4-0.5,0.8-1.1,1.2-1.7c0.4-0.6,0.7-1.2,1.2-1.6c0.5-0.5,1.1-0.9,1.8-1
		c0.3-0.1,0.6,0,0.9,0.1c0.4,0.1,0.4,0.2,0.3,0.6c-0.2,0.7-0.4,1.4-0.5,2.1c-0.3,1.8-0.2,3.5,0.3,5.2c0.2,0.8,0.6,1.5,1.1,2.1
		c0.3,0.3,0.2,0.4-0.1,0.7c-1.1,1.1-3.1,0.9-4-0.4c-0.4-0.6-0.6-1.4-0.7-2.1c-0.1-1-0.1-2,0-3C32.4,22.8,32.4,22.8,32.4,22.7z"/>
	<path class="st0" d="M86.3,28.7c-0.4,0.1-0.7,0.2-1.1,0.3c-0.4,0.1-0.7,0-1.1,0c0,0.4,0.1,0.7,0.2,1c0,0.3,0,0.5-0.1,0.8
		c-0.2,0.4-0.4,0.6-0.9,0.4c-0.4-0.1-0.8-0.3-1.2-0.3c-1.7-0.2-3.1,0.3-4.2,1.7c-0.6,0.7-1,1.6-1.2,2.6c-0.1,0.3-0.1,0.5,0,0.8
		c0.1,0.3,0.3,0.5,0.6,0.3c0.2-0.1,0.3-0.2,0.4-0.3c0.5-0.5,0.8-1.1,1.2-1.7c0.3-0.5,0.6-1,1-1.4c0.4-0.4,0.8-0.8,1.3-1.1
		c0.5-0.3,1.1-0.3,1.6-0.1c0.3,0.1,0.4,0.2,0.3,0.5c-0.3,1.1-0.6,2.2-0.6,3.3c-0.1,1.3,0,2.6,0.4,3.9c0.2,0.8,0.6,1.6,1.1,2.2
		c0.3,0.3,0.2,0.4-0.1,0.7c-1.2,1.1-3.2,0.9-4-0.5c-0.4-0.6-0.6-1.3-0.7-2c-0.1-0.9-0.1-1.8,0-2.7c0-0.1,0-0.2,0-0.3
		c0,0,0,0-0.1-0.1c-0.2,0.1-0.2,0.3-0.3,0.5c-0.4,0.8-0.8,1.7-1.3,2.5c-0.3,0.5-0.6,1-1,1.4c-0.1,0.1-0.3,0.3-0.4,0.4
		c-0.9,0.7-1.8,0.5-2.5-0.4c-0.5-0.7-0.6-1.5-0.6-2.3c0-1.1,0.3-2.2,0.6-3.3c0.6-2,1.5-3.9,2.7-5.7c0.6-0.8,1.3-1.6,2.1-2.3
		c0.9-0.7,1.9-1,3-0.8c0.3,0.1,0.6,0.2,0.9,0.3c0.1,0.1,0.2,0.2,0.4,0.2c0-0.3,0-0.6,0.1-0.9c0.1-0.2,0.1-0.3,0.2-0.5
		c0.2-0.4,0.6-0.6,1-0.4c0.7,0.3,1.4,0.3,2.1,0.2c0.5-0.1,0.8-0.3,0.9-0.8c0.4-1.7,1.1-3.4,2.2-4.8c0.2-0.3,0.5-0.6,0.8-0.9
		c0.3-0.3,0.7-0.4,1.2-0.4c0.6,0.1,1,0.5,1,1.2c0,0.9-0.3,1.7-0.5,2.5c-0.2,0.8-0.5,1.5-0.7,2.3c0.1,0.1,0.2,0.1,0.3,0
		c2.3-0.5,4.6-1.1,6.8-2.1c0.2-0.1,0.3-0.1,0.4,0.1c0.1,0.2,0,0.3,0,0.5c-0.1,0.4-0.4,0.6-0.6,0.9c-0.7,0.6-1.5,1.1-2.3,1.5
		c-1.7,0.9-3.5,1.5-5.4,2c-0.4,0.1-0.5,0.2-0.6,0.6c-0.5,2.5-0.6,5,0,7.4c0.2,0.6,0.4,1.2,0.7,1.7c0.8,1.5,2,2.3,3.8,2.3
		c0.5,0,0.6,0.1,0.3,0.6c-0.6,1.2-1.4,2.1-2.5,2.7c-0.7,0.4-1.5,0.3-2.3,0c-1.3-0.4-2.2-1.3-2.9-2.5c-0.6-1.1-1-2.4-1.1-3.7
		c-0.2-2-0.1-4,0.2-6c0.1-0.7,0.2-1.4,0.3-2.1C86.3,28.9,86.3,28.8,86.3,28.7z"/>
	<path class="st0" d="M106,26.9c0.6,0.7,0.8,1.5,0.5,2.4c-0.4,1-0.8,2-1.4,2.9c-1,1.7-2.1,3.3-3.4,4.8c-0.4,0.4-0.8,0.9-1.4,1.2
		c-1,0.7-2.1,1-3.3,0.7c-1.2-0.3-1.9-1-2.3-2.1c-0.3-0.9-0.4-1.8-0.3-2.7c0.3-2.9,1.3-5.4,3.1-7.7c0.5-0.6,1-1.1,1.6-1.5
		c0.8-0.6,1.8-0.7,2.7-0.5c0.8,0.2,1.3,0.8,1.3,1.6c0,0.6-0.1,1.2-0.4,1.8c-0.8,2-2.1,3.7-3.8,5.1c-0.4,0.3-0.8,0.6-1.2,0.8
		c-0.2,0.1-0.3,0.2-0.3,0.4c0,0.5,0.1,1,0.3,1.5c0.3,0.6,0.7,0.7,1.3,0.4c0.3-0.1,0.5-0.3,0.7-0.5c0.8-0.6,1.4-1.4,2-2.2
		c1.4-1.8,2.6-3.8,3.8-5.7C105.8,27.2,105.9,27.1,106,26.9z M97.9,32.1c0.1,0,0.2-0.1,0.2-0.1c1-0.9,1.9-2,2.6-3.2
		c0.2-0.3,0.3-0.6,0.4-0.9c0-0.1,0-0.3,0-0.4c-0.1-0.3-0.3-0.4-0.6-0.3c-0.3,0.2-0.5,0.4-0.6,0.6c-0.7,1-1.2,2-1.6,3.1
		C98.2,31.3,98,31.7,97.9,32.1z"/>
	<path class="st0" d="M59.1,12.9c0.5,0.6,0.8,1.3,0.6,2.1c-0.2,0.6-0.4,1.2-0.7,1.7c-1.1,2.2-2.3,4.2-4,6c-0.4,0.5-0.9,1-1.4,1.3
		c-0.9,0.7-1.8,1-2.9,0.9c-1.4-0.1-2.4-0.8-2.9-2.2c-0.3-0.9-0.4-1.8-0.3-2.7c0.3-2.9,1.3-5.4,3.1-7.7c0.4-0.5,0.9-1,1.5-1.4
		c0.9-0.7,1.8-0.8,2.8-0.6c0.8,0.1,1.3,0.8,1.4,1.6c0,0.6-0.1,1.2-0.4,1.8c-0.8,2-2.1,3.7-3.8,5.1c-0.4,0.3-0.8,0.6-1.3,0.8
		c-0.2,0.1-0.2,0.1-0.2,0.3c0,0.5,0.1,1.1,0.4,1.5c0.3,0.5,0.7,0.6,1.2,0.4c0.3-0.1,0.5-0.3,0.7-0.5c0.7-0.6,1.3-1.4,1.9-2.1
		c1.4-1.9,2.7-3.8,3.9-5.8c0.1-0.1,0.2-0.3,0.2-0.4C59.1,13,59.1,13,59.1,12.9z M51,18.1C51,18.1,51.1,18.1,51,18.1
		c1.2-1,2.2-2.2,2.9-3.6c0.1-0.2,0.2-0.5,0.2-0.8c0-0.2,0-0.4-0.2-0.6c-0.2-0.1-0.4,0-0.5,0.2c-0.2,0.2-0.4,0.5-0.6,0.7
		c-0.6,1-1.2,2-1.6,3.2C51.2,17.5,51,17.8,51,18.1z"/>
	<path class="st0" d="M111.8,25c-0.1,1.1-0.4,2.1-0.9,3c-1.1,2.3-2.5,4.5-4.3,6.3c-0.4,0.4-0.8,0.7-1.3,1c-0.2,0.1-0.5,0.2-0.7,0.2
		c-0.2,0-0.3,0-0.4-0.2c-0.1-0.2,0.1-0.2,0.2-0.3c1.6-1.9,2.8-4,3.7-6.2c0.5-1.2,0.7-2.4,0.5-3.6c-0.1-0.9-0.5-1.6-1.3-2
		c-0.2-0.1-0.2-0.2,0-0.3c0.1-0.1,0.1-0.1,0.2-0.2c0.7-0.5,1.4-0.8,2.2-0.8c0.8,0,1.4,0.4,1.8,1C111.8,23.7,111.9,24.4,111.8,25z"/>
	<path class="st0" d="M10.7,18.8c-0.1,0.9-0.4,1.7-0.7,2.4c-0.9,2.2-2,4.2-3.5,6c-0.7,0.8-1.5,1.6-2.5,2.1c-0.6,0.4-1.3,0.5-2.1,0.3
		c-0.6-0.1-1.1-0.5-1.3-1.1c-0.4-0.7-0.4-1.5-0.3-2.4c0-0.1,0.1-0.2,0.1-0.3c0-0.1,0.1-0.1,0.2-0.1c0,0,0,0,0.1,0.1
		c0.7,0.5,1.4,0.5,2.2,0.3c0.9-0.3,1.7-0.8,2.4-1.4c1-0.9,1.8-1.9,2.5-3c0.8-1.2,1.6-2.5,2.2-3.9c0-0.1,0-0.2,0.2-0.2
		c0.2,0,0.3,0.1,0.3,0.2C10.7,18.3,10.7,18.6,10.7,18.8z"/>
	<path class="st0" d="M19.1,10.3c-0.1,0.3-0.3,0.5-0.5,0.7c0-0.3,0.2-0.6,0.3-0.9c0,0.1-0.1,0.2,0,0.2C19,10.5,19,10.4,19.1,10.3z"
		/>
	<path class="st0" d="M18.9,10.2c0-0.1,0-0.2,0.1-0.2C19,10,18.9,10.1,18.9,10.2z"/>
	<path class="st0" d="M19,9.9c0-0.1,0-0.1,0.1-0.2C19.1,9.8,19.1,9.8,19,9.9z"/>
	<path class="st0" d="M19.1,9.6C19.1,9.6,19.1,9.5,19.1,9.6L19.1,9.6L19.1,9.6z"/>
</g>
</svg>
