<svg id="Слой_1" data-name="Слой 1" xmlns="http://www.w3.org/2000/svg" viewBox="0 0 192 356.49"><defs><style>.cls-1{fill:#cacaca;opacity:0.5;}.cls-2{fill:#a1193f;}.cls-3{fill:#d9193f;}.cls-4{fill:#cf1842;}.cls-5,.cls-7{fill:#fff;}.cls-5{opacity:0.1;}.cls-6{fill:#bc193f;}</style></defs><title>medium-column</title><ellipse class="cls-1" cx="96" cy="307.28" rx="91.54" ry="49.21"/><ellipse class="cls-2" cx="96" cy="296.28" rx="79.45" ry="42.71"/><rect class="cls-2" x="16.55" y="281.06" width="158.9" height="15.22"/><ellipse class="cls-3" cx="96" cy="281.06" rx="79.45" ry="42.71"/><ellipse class="cls-2" cx="96" cy="279.4" rx="64.88" ry="31.45"/><ellipse class="cls-4" cx="96" cy="281.89" rx="64.88" ry="30.62"/><path class="cls-2" d="M131,278.47c-10.89-6.29-29.23-6.12-29.23-6.12a18.11,18.11,0,0,0-7-6.78,23.17,23.17,0,0,0-4-1.81c-8.18-2.89-22.12.48-26.06,4-6.72,6,5.57,27.69,5.57,27.69s43.1,11.84,55.41,7.66,17-17.13,6.27-24l-1-.6" transform="translate(-0.75 -0.59)"/><rect class="cls-2" x="133.99" y="285.12" width="4" height="3.65" transform="translate(-1.17 -0.39) rotate(-0.08)"/><polygon class="cls-2" points="62.01 268.64 62.04 273.72 69.83 273.72 69.83 268.64 62.01 268.64"/><path class="cls-3" d="M131,275c-10.89-6.29-29.23-6.12-29.23-6.12a18.11,18.11,0,0,0-7-6.78,24,24,0,0,0-4-1.81c-8.18-2.89-22.12.49-26.06,4-6.72,6,5.57,27.7,5.57,27.7s43.1,11.83,55.41,7.65,17-17.13,6.27-24l-1-.6" transform="translate(-0.75 -0.59)"/><path class="cls-5" d="M159,255.11a52.55,52.55,0,0,1-8,7.58c-11.6-8.52-31.54-14.15-54.18-14.15-35.83,0-64.88,14.09-64.88,31.45a10.43,10.43,0,0,0,.06,1.26,10,10,0,0,0-.06,1.23,15.71,15.71,0,0,0,1.86,7.3c-5.19-.16-10.3-.47-15.29-.9a23.7,23.7,0,0,1-1.14-7.23c0-23.59,35.57-42.71,79.45-42.71C122,238.94,144.43,245.25,159,255.11Z" transform="translate(-0.75 -0.59)"/><path class="cls-6" d="M125.75,299.58c-12.31,4.18-55.41-7.65-55.41-7.65s-.69-1.22-1.65-3.16c-3.11-6.24-9.06-20-3.92-24.53,3.93-3.51,17.89-6.89,26.06-4a24.08,24.08,0,0,1,4,1.81,18.11,18.11,0,0,1,7,6.78s17.39-.16,28.37,5.65c.29.15.57.31.85.47s.66.4,1,.61C142.74,282.45,138.06,295.41,125.75,299.58Z" transform="translate(-0.75 -0.59)"/><path class="cls-3" d="M125.75,299.58c-12.31,4.18-55.41-7.65-55.41-7.65s-.69-1.22-1.65-3.16c-3.11-6.24-9.06-20-3.92-24.53,3.93-3.51,17.89-6.89,26.06-4a24.08,24.08,0,0,1,4,1.81,18.11,18.11,0,0,1,7,6.78s17.39-.16,28.37,5.65c.29.15.57.31.85.47s.66.4,1,.61C142.74,282.45,138.06,295.41,125.75,299.58Z" transform="translate(-0.75 -0.59)"/><path class="cls-5" d="M130.18,274.48c-16.54,7.07-37.75,12.14-61.49,14.29-3.11-6.24-9.06-20-3.92-24.53,3.93-3.51,17.89-6.89,26.06-4a24.08,24.08,0,0,1,4,1.81,18.11,18.11,0,0,1,7,6.78S119.2,268.67,130.18,274.48Z" transform="translate(-0.75 -0.59)"/><path class="cls-7" d="M173.24,293.23c-9.39,18-40.08,31.13-76.49,31.13C76,324.36,57.13,320.09,43,313.1c0,0,39.43,15.72,81.91,6.62C164.75,310.68,173.24,293.23,173.24,293.23Z" transform="translate(-0.75 -0.59)"/><path class="cls-7" d="M135.4,278.48a10.63,10.63,0,0,1,2,10.62c-1.52,4.42-5.68,8.47-11.61,10.48-12.31,4.18-55.41-7.65-55.41-7.65s-.45-.81-1.14-2.16a8.31,8.31,0,0,0,1.72,1.77c9.79,3.1,45.07,11.9,57.21,5.83C144,288.77,135.4,278.48,135.4,278.48Z" transform="translate(-0.75 -0.59)"/><ellipse class="cls-2" cx="104.28" cy="276.41" rx="79.45" ry="42.71"/><rect class="cls-2" x="24.83" y="261.2" width="158.9" height="15.22"/><ellipse class="cls-3" cx="104.28" cy="261.2" rx="79.45" ry="42.71"/><ellipse class="cls-2" cx="104.28" cy="259.54" rx="64.88" ry="31.45"/><ellipse class="cls-4" cx="104.28" cy="262.02" rx="64.88" ry="30.62"/><path class="cls-2" d="M139.3,258.61c-10.89-6.29-29.22-6.13-29.22-6.13a18.13,18.13,0,0,0-7-6.77,23.53,23.53,0,0,0-4-1.82c-8.18-2.88-22.13.49-26.06,4-6.73,6,5.57,27.69,5.57,27.69s43.1,11.83,55.4,7.66,17-17.13,6.27-24q-.48-.31-1-.6" transform="translate(-0.75 -0.59)"/><rect class="cls-2" x="142.27" y="265.26" width="4" height="3.65" transform="translate(-1.14 -0.38) rotate(-0.08)"/><polygon class="cls-2" points="70.28 248.78 70.31 253.85 78.1 253.85 78.1 248.78 70.28 248.78"/><path class="cls-3" d="M139.3,255.09c-10.89-6.29-29.22-6.12-29.22-6.12a18.11,18.11,0,0,0-7-6.78,23.53,23.53,0,0,0-4-1.81c-8.18-2.89-22.13.48-26.06,4-6.73,6,5.57,27.69,5.57,27.69s43.1,11.84,55.4,7.66,17-17.13,6.27-24l-1-.6" transform="translate(-0.75 -0.59)"/><path class="cls-5" d="M167.26,235.25a53,53,0,0,1-8,7.58c-11.6-8.52-31.54-14.15-54.18-14.15-35.84,0-64.89,14.09-64.89,31.45,0,.42,0,.85.06,1.26s-.06.81-.06,1.22a15.66,15.66,0,0,0,1.87,7.3c-5.19-.15-10.3-.46-15.29-.89a23.7,23.7,0,0,1-1.14-7.23c0-23.59,35.57-42.72,79.45-42.72C130.23,219.07,152.7,225.39,167.26,235.25Z" transform="translate(-0.75 -0.59)"/><path class="cls-6" d="M134,279.72c-12.3,4.18-55.4-7.66-55.4-7.66s-.69-1.21-1.65-3.15c-3.11-6.24-9.06-20-3.92-24.54,3.93-3.51,17.88-6.88,26.06-4a24,24,0,0,1,4,1.81,18.11,18.11,0,0,1,7,6.78s17.4-.16,28.37,5.65c.29.15.57.31.85.47s.67.4,1,.61C151,262.59,146.34,275.55,134,279.72Z" transform="translate(-0.75 -0.59)"/><path class="cls-3" d="M134,279.72c-12.3,4.18-55.4-7.66-55.4-7.66s-.69-1.21-1.65-3.15c-3.11-6.24-9.06-20-3.92-24.54,3.93-3.51,17.88-6.88,26.06-4a24,24,0,0,1,4,1.81,18.11,18.11,0,0,1,7,6.78s17.4-.16,28.37,5.65c.29.15.57.31.85.47s.67.4,1,.61C151,262.59,146.34,275.55,134,279.72Z" transform="translate(-0.75 -0.59)"/><path class="cls-5" d="M138.45,254.62c-16.53,7.07-37.74,12.14-61.48,14.29-3.11-6.24-9.06-20-3.92-24.54,3.93-3.51,17.88-6.88,26.06-4a24,24,0,0,1,4,1.81,18.11,18.11,0,0,1,7,6.78S127.48,248.81,138.45,254.62Z" transform="translate(-0.75 -0.59)"/><path class="cls-7" d="M181.52,273.37c-9.4,18-40.09,31.13-76.49,31.13-20.74,0-39.62-4.27-53.77-11.27,0,0,39.42,15.73,81.9,6.63C173,290.82,181.52,273.37,181.52,273.37Z" transform="translate(-0.75 -0.59)"/><path class="cls-7" d="M143.68,258.62a10.64,10.64,0,0,1,2,10.61c-1.52,4.43-5.68,8.48-11.62,10.49-12.3,4.18-55.4-7.66-55.4-7.66s-.46-.8-1.15-2.15a8.72,8.72,0,0,0,1.73,1.77c9.78,3.1,45.07,11.9,57.21,5.83C152.27,268.91,143.68,258.62,143.68,258.62Z" transform="translate(-0.75 -0.59)"/><ellipse class="cls-2" cx="87.72" cy="256.55" rx="79.45" ry="42.71"/><rect class="cls-2" x="8.28" y="241.33" width="158.9" height="15.22"/><ellipse class="cls-3" cx="87.72" cy="241.33" rx="79.45" ry="42.71"/><ellipse class="cls-2" cx="87.72" cy="239.68" rx="64.88" ry="31.45"/><ellipse class="cls-4" cx="87.72" cy="242.16" rx="64.88" ry="30.62"/><path class="cls-2" d="M122.75,238.75c-10.89-6.29-29.22-6.13-29.22-6.13a18.06,18.06,0,0,0-7-6.77,23.53,23.53,0,0,0-4-1.82c-8.18-2.88-22.13.49-26.06,4-6.73,6,5.56,27.69,5.56,27.69s43.1,11.83,55.41,7.66,17-17.13,6.27-24q-.48-.32-1-.6" transform="translate(-0.75 -0.59)"/><rect class="cls-2" x="125.72" y="245.4" width="4" height="3.65" transform="translate(-1.11 -0.4) rotate(-0.08)"/><polygon class="cls-2" points="53.73 228.92 53.76 233.99 61.55 233.99 61.55 228.92 53.73 228.92"/><path class="cls-3" d="M122.75,235.23c-10.89-6.29-29.22-6.13-29.22-6.13a18.13,18.13,0,0,0-7-6.77,23.53,23.53,0,0,0-4-1.82c-8.18-2.88-22.13.49-26.06,4-6.73,6,5.56,27.69,5.56,27.69s43.1,11.83,55.41,7.66,17-17.13,6.27-24q-.48-.32-1-.6" transform="translate(-0.75 -0.59)"/><path class="cls-5" d="M150.71,215.38a52.5,52.5,0,0,1-8.05,7.58c-11.61-8.51-31.54-14.14-54.19-14.14-35.83,0-64.88,14.09-64.88,31.45q0,.63.06,1.26c0,.4-.06.81-.06,1.22a15.77,15.77,0,0,0,1.86,7.3q-7.78-.24-15.28-.89A23.42,23.42,0,0,1,9,241.92c0-23.58,35.57-42.71,79.44-42.71C113.68,199.21,136.15,205.53,150.71,215.38Z" transform="translate(-0.75 -0.59)"/><path class="cls-6" d="M117.47,259.86c-12.3,4.18-55.4-7.66-55.4-7.66s-.69-1.21-1.65-3.15c-3.11-6.24-9.06-20-3.92-24.54,3.93-3.51,17.88-6.88,26.06-4a23.53,23.53,0,0,1,4,1.82,18.13,18.13,0,0,1,7,6.77s17.4-.15,28.37,5.66c.29.15.57.3.85.47l1,.6C134.46,242.73,129.79,255.69,117.47,259.86Z" transform="translate(-0.75 -0.59)"/><path class="cls-3" d="M117.47,259.86c-12.3,4.18-55.4-7.66-55.4-7.66s-.69-1.21-1.65-3.15c-3.11-6.24-9.06-20-3.92-24.54,3.93-3.51,17.88-6.88,26.06-4a23.53,23.53,0,0,1,4,1.82,18.13,18.13,0,0,1,7,6.77s17.4-.15,28.37,5.66c.29.15.57.3.85.47l1,.6C134.46,242.73,129.79,255.69,117.47,259.86Z" transform="translate(-0.75 -0.59)"/><path class="cls-5" d="M121.9,234.76c-16.53,7.06-37.75,12.14-61.48,14.29-3.11-6.24-9.06-20-3.92-24.54,3.93-3.51,17.88-6.88,26.06-4a23.53,23.53,0,0,1,4,1.82,18.13,18.13,0,0,1,7,6.77S110.93,229,121.9,234.76Z" transform="translate(-0.75 -0.59)"/><path class="cls-7" d="M165,253.51c-9.39,18-40.08,31.13-76.49,31.13-20.73,0-39.61-4.27-53.76-11.27,0,0,39.42,15.73,81.9,6.62C156.47,271,165,253.51,165,253.51Z" transform="translate(-0.75 -0.59)"/><path class="cls-7" d="M127.12,238.76a10.62,10.62,0,0,1,2,10.61c-1.52,4.43-5.68,8.48-11.61,10.49-12.3,4.18-55.4-7.66-55.4-7.66s-.46-.8-1.15-2.15a8.72,8.72,0,0,0,1.73,1.77c9.78,3.1,45.07,11.9,57.2,5.83C135.72,249.05,127.12,238.76,127.12,238.76Z" transform="translate(-0.75 -0.59)"/><ellipse class="cls-2" cx="96" cy="236.69" rx="79.45" ry="42.71"/><rect class="cls-2" x="16.55" y="221.47" width="158.9" height="15.22"/><ellipse class="cls-3" cx="96" cy="221.47" rx="79.45" ry="42.71"/><ellipse class="cls-2" cx="96" cy="219.82" rx="64.88" ry="31.45"/><ellipse class="cls-4" cx="96" cy="222.3" rx="64.88" ry="30.62"/><path class="cls-2" d="M131,218.89c-10.89-6.29-29.23-6.13-29.23-6.13a18.06,18.06,0,0,0-7-6.77,23.17,23.17,0,0,0-4-1.82c-8.18-2.89-22.12.49-26.06,4-6.72,6,5.57,27.69,5.57,27.69s43.1,11.83,55.41,7.65,17-17.13,6.27-24l-1-.6" transform="translate(-0.75 -0.59)"/><rect class="cls-2" x="133.99" y="225.53" width="4" height="3.65" transform="translate(-1.08 -0.39) rotate(-0.08)"/><polygon class="cls-2" points="62.01 209.06 62.04 214.13 69.83 214.13 69.83 209.06 62.01 209.06"/><path class="cls-3" d="M131,215.37c-10.89-6.29-29.23-6.13-29.23-6.13a18.06,18.06,0,0,0-7-6.77,23.17,23.17,0,0,0-4-1.82c-8.18-2.88-22.12.49-26.06,4-6.72,6,5.57,27.69,5.57,27.69s43.1,11.83,55.41,7.66,17-17.13,6.27-24q-.5-.32-1-.6" transform="translate(-0.75 -0.59)"/><path class="cls-5" d="M159,195.52a52.07,52.07,0,0,1-8,7.58C139.33,194.59,119.39,189,96.75,189,60.92,189,31.87,203,31.87,220.41a10.36,10.36,0,0,0,.06,1.25,10.13,10.13,0,0,0-.06,1.23,15.65,15.65,0,0,0,1.86,7.3c-5.19-.16-10.3-.46-15.29-.89a23.77,23.77,0,0,1-1.14-7.24c0-23.58,35.57-42.71,79.45-42.71C122,179.35,144.43,185.66,159,195.52Z" transform="translate(-0.75 -0.59)"/><path class="cls-6" d="M125.75,240c-12.31,4.18-55.41-7.66-55.41-7.66s-.69-1.22-1.65-3.15c-3.11-6.24-9.06-20-3.92-24.54,3.93-3.51,17.89-6.89,26.06-4a24.08,24.08,0,0,1,4,1.81,18.19,18.19,0,0,1,7,6.78s17.39-.15,28.37,5.66c.29.14.57.3.85.47s.66.39,1,.6C142.74,222.86,138.06,235.82,125.75,240Z" transform="translate(-0.75 -0.59)"/><path class="cls-3" d="M125.75,240c-12.31,4.18-55.41-7.66-55.41-7.66s-.69-1.22-1.65-3.15c-3.11-6.24-9.06-20-3.92-24.54,3.93-3.51,17.89-6.89,26.06-4a24.08,24.08,0,0,1,4,1.81,18.19,18.19,0,0,1,7,6.78s17.39-.15,28.37,5.66c.29.14.57.3.85.47s.66.39,1,.6C142.74,222.86,138.06,235.82,125.75,240Z" transform="translate(-0.75 -0.59)"/><path class="cls-5" d="M130.18,214.9C113.64,222,92.43,227,68.69,229.19c-3.11-6.24-9.06-20-3.92-24.54,3.93-3.51,17.89-6.89,26.06-4a24.08,24.08,0,0,1,4,1.81,18.19,18.19,0,0,1,7,6.78S119.2,209.09,130.18,214.9Z" transform="translate(-0.75 -0.59)"/><path class="cls-7" d="M173.24,233.65c-9.39,18-40.08,31.13-76.49,31.13-20.74,0-39.62-4.27-53.77-11.27,0,0,39.43,15.72,81.91,6.62C164.75,251.1,173.24,233.65,173.24,233.65Z" transform="translate(-0.75 -0.59)"/><path class="cls-7" d="M135.4,218.9a10.62,10.62,0,0,1,2,10.61c-1.52,4.43-5.68,8.48-11.61,10.49-12.31,4.18-55.41-7.66-55.41-7.66s-.45-.81-1.14-2.15A8.56,8.56,0,0,0,70.92,232c9.79,3.1,45.07,11.9,57.21,5.83C144,229.19,135.4,218.9,135.4,218.9Z" transform="translate(-0.75 -0.59)"/><ellipse class="cls-2" cx="104.28" cy="216.83" rx="79.45" ry="42.71"/><rect class="cls-2" x="24.83" y="201.61" width="158.9" height="15.22"/><ellipse class="cls-3" cx="104.28" cy="201.61" rx="79.45" ry="42.71"/><ellipse class="cls-2" cx="104.28" cy="199.96" rx="64.88" ry="31.45"/><ellipse class="cls-4" cx="104.28" cy="202.44" rx="64.88" ry="30.62"/><path class="cls-2" d="M139.3,199c-10.89-6.29-29.22-6.12-29.22-6.12a18.11,18.11,0,0,0-7-6.78,24.35,24.35,0,0,0-4-1.81c-8.18-2.89-22.13.49-26.06,4-6.73,6,5.57,27.7,5.57,27.7s43.1,11.83,55.4,7.65,17-17.13,6.27-24c-.32-.21-.65-.41-1-.61" transform="translate(-0.75 -0.59)"/><rect class="cls-2" x="142.27" y="205.67" width="4" height="3.65" transform="translate(-1.06 -0.38) rotate(-0.08)"/><polygon class="cls-2" points="70.28 189.2 70.31 194.27 78.1 194.27 78.1 189.2 70.28 189.2"/><path class="cls-3" d="M139.3,195.51c-10.89-6.29-29.22-6.13-29.22-6.13a18.11,18.11,0,0,0-7-6.78,24.35,24.35,0,0,0-4-1.81c-8.18-2.89-22.13.49-26.06,4-6.73,6,5.57,27.69,5.57,27.69s43.1,11.83,55.4,7.65,17-17.13,6.27-24q-.48-.31-1-.6" transform="translate(-0.75 -0.59)"/><path class="cls-5" d="M167.26,175.66a53,53,0,0,1-8,7.58c-11.6-8.52-31.54-14.14-54.18-14.14-35.84,0-64.89,14.08-64.89,31.44q0,.65.06,1.26c0,.41-.06.81-.06,1.23a15.72,15.72,0,0,0,1.87,7.3c-5.19-.16-10.3-.47-15.29-.9a23.65,23.65,0,0,1-1.14-7.23c0-23.59,35.57-42.71,79.45-42.71C130.23,159.49,152.7,165.8,167.26,175.66Z" transform="translate(-0.75 -0.59)"/><path class="cls-6" d="M134,220.13c-12.3,4.18-55.4-7.65-55.4-7.65s-.69-1.22-1.65-3.15c-3.11-6.24-9.06-20-3.92-24.54,3.93-3.51,17.88-6.89,26.06-4a24,24,0,0,1,4,1.81,18.11,18.11,0,0,1,7,6.78s17.4-.16,28.37,5.65c.29.15.57.31.85.47s.67.4,1,.61C151,203,146.34,216,134,220.13Z" transform="translate(-0.75 -0.59)"/><path class="cls-3" d="M134,220.13c-12.3,4.18-55.4-7.65-55.4-7.65s-.69-1.22-1.65-3.15c-3.11-6.24-9.06-20-3.92-24.54,3.93-3.51,17.88-6.89,26.06-4a24,24,0,0,1,4,1.81,18.11,18.11,0,0,1,7,6.78s17.4-.16,28.37,5.65c.29.15.57.31.85.47s.67.4,1,.61C151,203,146.34,216,134,220.13Z" transform="translate(-0.75 -0.59)"/><path class="cls-5" d="M138.45,195c-16.53,7.07-37.74,12.14-61.48,14.3-3.11-6.24-9.06-20-3.92-24.54,3.93-3.51,17.88-6.89,26.06-4a24,24,0,0,1,4,1.81,18.11,18.11,0,0,1,7,6.78S127.48,189.22,138.45,195Z" transform="translate(-0.75 -0.59)"/><path class="cls-7" d="M181.52,213.79c-9.4,18-40.09,31.12-76.49,31.12-20.74,0-39.62-4.27-53.77-11.26,0,0,39.42,15.72,81.9,6.62C173,231.23,181.52,213.79,181.52,213.79Z" transform="translate(-0.75 -0.59)"/><path class="cls-7" d="M143.68,199a10.66,10.66,0,0,1,2,10.62c-1.52,4.43-5.68,8.47-11.62,10.48-12.3,4.18-55.4-7.65-55.4-7.65s-.46-.81-1.15-2.15a8.72,8.72,0,0,0,1.73,1.77c9.78,3.09,45.07,11.89,57.21,5.82C152.27,209.33,143.68,199,143.68,199Z" transform="translate(-0.75 -0.59)"/><ellipse class="cls-2" cx="96" cy="196.97" rx="79.45" ry="42.71"/><rect class="cls-2" x="16.55" y="181.75" width="158.9" height="15.22"/><ellipse class="cls-3" cx="96" cy="181.75" rx="79.45" ry="42.71"/><ellipse class="cls-2" cx="96" cy="180.09" rx="64.88" ry="31.45"/><ellipse class="cls-4" cx="96" cy="182.58" rx="64.88" ry="30.62"/><path class="cls-2" d="M131,179.16C120.14,172.87,101.8,173,101.8,173a18.11,18.11,0,0,0-7-6.78,23.17,23.17,0,0,0-4-1.81c-8.18-2.89-22.12.48-26.06,4-6.72,6,5.57,27.69,5.57,27.69s43.1,11.84,55.41,7.66,17-17.13,6.27-24l-1-.6" transform="translate(-0.75 -0.59)"/><rect class="cls-2" x="133.99" y="185.81" width="4" height="3.65" transform="translate(-1.03 -0.39) rotate(-0.08)"/><polygon class="cls-2" points="62.01 169.34 62.04 174.41 69.83 174.41 69.83 169.34 62.01 169.34"/><path class="cls-3" d="M131,175.64c-10.89-6.29-29.23-6.12-29.23-6.12a18.11,18.11,0,0,0-7-6.78,24,24,0,0,0-4-1.81c-8.18-2.89-22.12.49-26.06,4-6.72,6,5.57,27.69,5.57,27.69s43.1,11.84,55.41,7.66,17-17.13,6.27-24l-1-.6" transform="translate(-0.75 -0.59)"/><path class="cls-5" d="M159,155.8a52.55,52.55,0,0,1-8,7.58c-11.6-8.52-31.54-14.15-54.18-14.15-35.83,0-64.88,14.09-64.88,31.45a10.53,10.53,0,0,0,.06,1.26,10,10,0,0,0-.06,1.23,15.64,15.64,0,0,0,1.86,7.29c-5.19-.15-10.3-.46-15.29-.89a23.7,23.7,0,0,1-1.14-7.23c0-23.59,35.57-42.71,79.45-42.71C122,139.63,144.43,145.94,159,155.8Z" transform="translate(-0.75 -0.59)"/><path class="cls-6" d="M125.75,200.27c-12.31,4.18-55.41-7.65-55.41-7.65s-.69-1.22-1.65-3.16c-3.11-6.24-9.06-20-3.92-24.53,3.93-3.51,17.89-6.89,26.06-4a24.08,24.08,0,0,1,4,1.81,18.11,18.11,0,0,1,7,6.78s17.39-.16,28.37,5.65c.29.15.57.31.85.47s.66.4,1,.61C142.74,183.14,138.06,196.1,125.75,200.27Z" transform="translate(-0.75 -0.59)"/><path class="cls-3" d="M125.75,200.27c-12.31,4.18-55.41-7.65-55.41-7.65s-.69-1.22-1.65-3.16c-3.11-6.24-9.06-20-3.92-24.53,3.93-3.51,17.89-6.89,26.06-4a24.08,24.08,0,0,1,4,1.81,18.11,18.11,0,0,1,7,6.78s17.39-.16,28.37,5.65c.29.15.57.31.85.47s.66.4,1,.61C142.74,183.14,138.06,196.1,125.75,200.27Z" transform="translate(-0.75 -0.59)"/><path class="cls-5" d="M130.18,175.17c-16.54,7.07-37.75,12.14-61.49,14.29-3.11-6.24-9.06-20-3.92-24.53,3.93-3.51,17.89-6.89,26.06-4a24.08,24.08,0,0,1,4,1.81,18.11,18.11,0,0,1,7,6.78S119.2,169.36,130.18,175.17Z" transform="translate(-0.75 -0.59)"/><path class="cls-7" d="M173.24,193.92c-9.39,18-40.08,31.13-76.49,31.13-20.74,0-39.62-4.27-53.77-11.26,0,0,39.43,15.72,81.91,6.62C164.75,211.37,173.24,193.92,173.24,193.92Z" transform="translate(-0.75 -0.59)"/><path class="cls-7" d="M135.4,179.17a10.63,10.63,0,0,1,2,10.62c-1.52,4.42-5.68,8.47-11.61,10.48-12.31,4.18-55.41-7.65-55.41-7.65s-.45-.81-1.14-2.16a8.31,8.31,0,0,0,1.72,1.77c9.79,3.1,45.07,11.9,57.21,5.83C144,189.46,135.4,179.17,135.4,179.17Z" transform="translate(-0.75 -0.59)"/><ellipse class="cls-2" cx="79.45" cy="177.1" rx="79.45" ry="42.71"/><rect class="cls-2" y="161.89" width="158.9" height="15.22"/><ellipse class="cls-3" cx="79.45" cy="161.89" rx="79.45" ry="42.71"/><ellipse class="cls-2" cx="79.45" cy="160.23" rx="64.88" ry="31.45"/><ellipse class="cls-4" cx="79.45" cy="162.71" rx="64.88" ry="30.62"/><path class="cls-2" d="M114.48,159.3c-10.9-6.29-29.23-6.13-29.23-6.13a18.13,18.13,0,0,0-7-6.77,23.17,23.17,0,0,0-4-1.82c-8.18-2.88-22.13.49-26.06,4-6.73,6,5.57,27.69,5.57,27.69s43.1,11.83,55.4,7.66,17-17.13,6.27-24c-.32-.21-.65-.41-1-.6" transform="translate(-0.75 -0.59)"/><rect class="cls-2" x="117.44" y="165.95" width="4" height="3.65" transform="translate(-1 -0.41) rotate(-0.08)"/><polygon class="cls-2" points="45.46 149.47 45.49 154.54 53.28 154.54 53.28 149.47 45.46 149.47"/><path class="cls-3" d="M114.48,155.78c-10.9-6.29-29.23-6.12-29.23-6.12a18.11,18.11,0,0,0-7-6.78,23.17,23.17,0,0,0-4-1.81c-8.18-2.89-22.13.48-26.06,4-6.73,6,5.57,27.69,5.57,27.69s43.1,11.84,55.4,7.66,17-17.13,6.27-24l-1-.6" transform="translate(-0.75 -0.59)"/><path class="cls-5" d="M142.43,135.94a52.55,52.55,0,0,1-8.05,7.58c-11.6-8.52-31.54-14.15-54.18-14.15-35.84,0-64.88,14.09-64.88,31.45,0,.42,0,.84,0,1.26s0,.81,0,1.22a15.65,15.65,0,0,0,1.86,7.3c-5.19-.15-10.3-.46-15.29-.89a23.7,23.7,0,0,1-1.14-7.23c0-23.59,35.57-42.72,79.45-42.72C105.41,119.76,127.88,126.08,142.43,135.94Z" transform="translate(-0.75 -0.59)"/><path class="cls-6" d="M109.2,180.41c-12.31,4.18-55.41-7.66-55.41-7.66s-.69-1.21-1.65-3.15c-3.11-6.24-9.06-20-3.92-24.54,3.93-3.51,17.88-6.88,26.06-4a24.47,24.47,0,0,1,4,1.81,18.13,18.13,0,0,1,7,6.78s17.4-.16,28.37,5.65l.86.47,1,.6C126.19,163.28,121.51,176.24,109.2,180.41Z" transform="translate(-0.75 -0.59)"/><path class="cls-3" d="M109.2,180.41c-12.31,4.18-55.41-7.66-55.41-7.66s-.69-1.21-1.65-3.15c-3.11-6.24-9.06-20-3.92-24.54,3.93-3.51,17.88-6.88,26.06-4a24.47,24.47,0,0,1,4,1.81,18.13,18.13,0,0,1,7,6.78s17.4-.16,28.37,5.65l.86.47,1,.6C126.19,163.28,121.51,176.24,109.2,180.41Z" transform="translate(-0.75 -0.59)"/><path class="cls-5" d="M113.62,155.31c-16.53,7.07-37.74,12.14-61.48,14.29-3.11-6.24-9.06-20-3.92-24.54,3.93-3.51,17.88-6.88,26.06-4a24.47,24.47,0,0,1,4,1.81,18.13,18.13,0,0,1,7,6.78S102.65,149.5,113.62,155.31Z" transform="translate(-0.75 -0.59)"/><path class="cls-7" d="M156.69,174.06c-9.39,18-40.08,31.13-76.49,31.13-20.74,0-39.62-4.27-53.77-11.27,0,0,39.42,15.73,81.91,6.62C148.2,191.51,156.69,174.06,156.69,174.06Z" transform="translate(-0.75 -0.59)"/><path class="cls-7" d="M118.85,159.31a10.62,10.62,0,0,1,2,10.61c-1.52,4.43-5.68,8.48-11.61,10.49-12.31,4.18-55.41-7.66-55.41-7.66s-.46-.8-1.14-2.15a8.56,8.56,0,0,0,1.72,1.77c9.78,3.1,45.07,11.9,57.21,5.83C127.44,169.6,118.85,159.31,118.85,159.31Z" transform="translate(-0.75 -0.59)"/><ellipse class="cls-2" cx="112.55" cy="157.24" rx="79.45" ry="42.71"/><rect class="cls-2" x="33.1" y="142.02" width="158.9" height="15.22"/><ellipse class="cls-3" cx="112.55" cy="142.02" rx="79.45" ry="42.71"/><ellipse class="cls-2" cx="112.55" cy="140.37" rx="64.88" ry="31.45"/><ellipse class="cls-4" cx="112.55" cy="142.85" rx="64.88" ry="30.62"/><path class="cls-2" d="M147.58,139.44c-10.89-6.29-29.22-6.13-29.22-6.13a18.06,18.06,0,0,0-7-6.77,23.65,23.65,0,0,0-4-1.82c-8.17-2.88-22.12.49-26,4-6.73,6,5.56,27.69,5.56,27.69s43.1,11.83,55.41,7.66,17-17.13,6.27-24q-.48-.31-1-.6" transform="translate(-0.75 -0.59)"/><rect class="cls-2" x="150.54" y="146.09" width="4" height="3.65" transform="translate(-0.97 -0.36) rotate(-0.08)"/><polygon class="cls-2" points="78.56 129.61 78.59 134.68 86.38 134.68 86.38 129.61 78.56 129.61"/><path class="cls-3" d="M147.58,135.92c-10.89-6.29-29.22-6.13-29.22-6.13a18.13,18.13,0,0,0-7-6.77,23.65,23.65,0,0,0-4-1.82c-8.17-2.88-22.12.49-26,4-6.73,6,5.56,27.69,5.56,27.69s43.1,11.83,55.41,7.66,17-17.13,6.27-24q-.48-.32-1-.6" transform="translate(-0.75 -0.59)"/><path class="cls-5" d="M175.54,116.07a52.61,52.61,0,0,1-8.06,7.58c-11.6-8.51-31.54-14.14-54.18-14.14-35.83,0-64.88,14.09-64.88,31.45q0,.63.06,1.26c0,.4-.06.81-.06,1.22a15.65,15.65,0,0,0,1.86,7.3q-7.78-.24-15.28-.89a23.43,23.43,0,0,1-1.15-7.24C33.85,119,69.42,99.9,113.3,99.9,138.51,99.9,161,106.22,175.54,116.07Z" transform="translate(-0.75 -0.59)"/><path class="cls-6" d="M142.3,160.55c-12.31,4.18-55.41-7.66-55.41-7.66s-.68-1.21-1.64-3.15c-3.12-6.24-9.07-20-3.93-24.54,3.93-3.51,17.89-6.88,26.06-4a23.28,23.28,0,0,1,4,1.82,18.13,18.13,0,0,1,7,6.77s17.39-.15,28.37,5.66c.29.15.57.3.85.47l1,.6C159.29,143.42,154.61,156.38,142.3,160.55Z" transform="translate(-0.75 -0.59)"/><path class="cls-3" d="M142.3,160.55c-12.31,4.18-55.41-7.66-55.41-7.66s-.68-1.21-1.64-3.15c-3.12-6.24-9.07-20-3.93-24.54,3.93-3.51,17.89-6.88,26.06-4a23.28,23.28,0,0,1,4,1.82,18.13,18.13,0,0,1,7,6.77s17.39-.15,28.37,5.66c.29.15.57.3.85.47l1,.6C159.29,143.42,154.61,156.38,142.3,160.55Z" transform="translate(-0.75 -0.59)"/><path class="cls-5" d="M146.73,135.45c-16.54,7.06-37.75,12.14-61.48,14.29-3.12-6.24-9.07-20-3.93-24.54,3.93-3.51,17.89-6.88,26.06-4a23.28,23.28,0,0,1,4,1.82,18.13,18.13,0,0,1,7,6.77S135.75,129.64,146.73,135.45Z" transform="translate(-0.75 -0.59)"/><path class="cls-7" d="M189.79,154.2c-9.39,18-40.08,31.13-76.49,31.13-20.73,0-39.62-4.27-53.76-11.27,0,0,39.42,15.73,81.9,6.62C181.3,171.65,189.79,154.2,189.79,154.2Z" transform="translate(-0.75 -0.59)"/><path class="cls-7" d="M152,139.45a10.62,10.62,0,0,1,2,10.61c-1.52,4.43-5.68,8.48-11.61,10.49-12.31,4.18-55.41-7.66-55.41-7.66s-.45-.8-1.14-2.15a8.85,8.85,0,0,0,1.72,1.77c9.79,3.1,45.07,11.9,57.21,5.83C160.54,149.74,152,139.45,152,139.45Z" transform="translate(-0.75 -0.59)"/><ellipse class="cls-2" cx="87.72" cy="137.38" rx="79.45" ry="42.71"/><rect class="cls-2" x="8.28" y="122.16" width="158.9" height="15.22"/><ellipse class="cls-3" cx="87.72" cy="122.16" rx="79.45" ry="42.71"/><ellipse class="cls-2" cx="87.72" cy="120.51" rx="64.88" ry="31.45"/><ellipse class="cls-4" cx="87.72" cy="122.99" rx="64.88" ry="30.62"/><path class="cls-2" d="M122.75,119.58c-10.89-6.29-29.22-6.13-29.22-6.13a18.11,18.11,0,0,0-7-6.78,24.35,24.35,0,0,0-4-1.81c-8.18-2.89-22.13.49-26.06,4-6.73,6,5.56,27.69,5.56,27.69s43.1,11.83,55.41,7.65,17-17.13,6.27-24q-.48-.32-1-.6" transform="translate(-0.75 -0.59)"/><rect class="cls-2" x="125.72" y="126.22" width="4" height="3.65" transform="translate(-0.94 -0.4) rotate(-0.08)"/><polygon class="cls-2" points="53.73 109.75 53.76 114.82 61.55 114.82 61.55 109.75 53.73 109.75"/><path class="cls-3" d="M122.75,116.06c-10.89-6.29-29.22-6.13-29.22-6.13a18.06,18.06,0,0,0-7-6.77,23.53,23.53,0,0,0-4-1.82c-8.18-2.88-22.13.49-26.06,4-6.73,6,5.56,27.69,5.56,27.69s43.1,11.83,55.41,7.66,17-17.13,6.27-24q-.48-.31-1-.6" transform="translate(-0.75 -0.59)"/><path class="cls-5" d="M150.71,96.21a53,53,0,0,1-8.05,7.58c-11.61-8.51-31.54-14.14-54.19-14.14-35.83,0-64.88,14.08-64.88,31.45,0,.42,0,.84.06,1.25s-.06.82-.06,1.23a15.77,15.77,0,0,0,1.86,7.3q-7.78-.24-15.28-.9A23.35,23.35,0,0,1,9,122.75C9,99.17,44.6,80,88.47,80,113.68,80,136.15,86.35,150.71,96.21Z" transform="translate(-0.75 -0.59)"/><path class="cls-6" d="M117.47,140.69c-12.3,4.17-55.4-7.66-55.4-7.66s-.69-1.22-1.65-3.15c-3.11-6.24-9.06-20-3.92-24.54,3.93-3.51,17.88-6.89,26.06-4a24.35,24.35,0,0,1,4,1.81,18.19,18.19,0,0,1,7,6.78s17.4-.15,28.37,5.65c.29.15.57.31.85.48l1,.6C134.46,123.55,129.79,136.51,117.47,140.69Z" transform="translate(-0.75 -0.59)"/><path class="cls-3" d="M117.47,140.69c-12.3,4.17-55.4-7.66-55.4-7.66s-.69-1.22-1.65-3.15c-3.11-6.24-9.06-20-3.92-24.54,3.93-3.51,17.88-6.89,26.06-4a24.35,24.35,0,0,1,4,1.81,18.19,18.19,0,0,1,7,6.78s17.4-.15,28.37,5.65c.29.15.57.31.85.48l1,.6C134.46,123.55,129.79,136.51,117.47,140.69Z" transform="translate(-0.75 -0.59)"/><path class="cls-5" d="M121.9,115.58c-16.53,7.07-37.75,12.15-61.48,14.3-3.11-6.24-9.06-20-3.92-24.54,3.93-3.51,17.88-6.89,26.06-4a24.35,24.35,0,0,1,4,1.81,18.19,18.19,0,0,1,7,6.78S110.93,109.78,121.9,115.58Z" transform="translate(-0.75 -0.59)"/><path class="cls-7" d="M165,134.34c-9.39,18-40.08,31.13-76.49,31.13-20.73,0-39.61-4.28-53.76-11.27,0,0,39.42,15.72,81.9,6.62C156.47,151.79,165,134.34,165,134.34Z" transform="translate(-0.75 -0.59)"/><path class="cls-7" d="M127.12,119.59a10.62,10.62,0,0,1,2,10.61c-1.52,4.43-5.68,8.48-11.61,10.49-12.3,4.17-55.4-7.66-55.4-7.66s-.46-.81-1.15-2.15a8.72,8.72,0,0,0,1.73,1.77c9.78,3.1,45.07,11.89,57.2,5.83C135.72,129.88,127.12,119.59,127.12,119.59Z" transform="translate(-0.75 -0.59)"/><ellipse class="cls-2" cx="104.28" cy="117.52" rx="79.45" ry="42.71"/><rect class="cls-2" x="24.83" y="102.3" width="158.9" height="15.22"/><ellipse class="cls-3" cx="104.28" cy="102.3" rx="79.45" ry="42.71"/><ellipse class="cls-2" cx="104.28" cy="100.65" rx="64.88" ry="31.45"/><ellipse class="cls-4" cx="104.28" cy="103.13" rx="64.88" ry="30.62"/><path class="cls-2" d="M139.3,99.71c-10.89-6.29-29.22-6.12-29.22-6.12a18.11,18.11,0,0,0-7-6.78,24.35,24.35,0,0,0-4-1.81c-8.18-2.89-22.13.49-26.06,4-6.73,6,5.57,27.7,5.57,27.7s43.1,11.83,55.4,7.65,17-17.13,6.27-24l-1-.6" transform="translate(-0.75 -0.59)"/><rect class="cls-2" x="142.27" y="106.36" width="4" height="3.65" transform="translate(-0.91 -0.38) rotate(-0.08)"/><polygon class="cls-2" points="70.28 89.89 70.31 94.96 78.1 94.96 78.1 89.89 70.28 89.89"/><path class="cls-3" d="M139.3,96.2c-10.89-6.3-29.22-6.13-29.22-6.13a18.11,18.11,0,0,0-7-6.78,24.35,24.35,0,0,0-4-1.81c-8.18-2.89-22.13.49-26.06,4-6.73,6,5.57,27.69,5.57,27.69s43.1,11.83,55.4,7.65,17-17.13,6.27-24q-.48-.31-1-.6" transform="translate(-0.75 -0.59)"/><path class="cls-5" d="M167.26,76.35a53,53,0,0,1-8,7.58c-11.6-8.52-31.54-14.14-54.18-14.14-35.84,0-64.89,14.08-64.89,31.44q0,.64.06,1.26c0,.41-.06.81-.06,1.23A15.72,15.72,0,0,0,42,111c-5.19-.16-10.3-.47-15.29-.9a23.65,23.65,0,0,1-1.14-7.23c0-23.59,35.57-42.71,79.45-42.71C130.23,60.18,152.7,66.49,167.26,76.35Z" transform="translate(-0.75 -0.59)"/><path class="cls-6" d="M134,120.82c-12.3,4.18-55.4-7.65-55.4-7.65S77.93,112,77,110c-3.11-6.24-9.06-20-3.92-24.54,3.93-3.51,17.88-6.89,26.06-4a24,24,0,0,1,4,1.81,18.11,18.11,0,0,1,7,6.78s17.4-.16,28.37,5.65c.29.15.57.31.85.47s.67.4,1,.61C151,103.69,146.34,116.65,134,120.82Z" transform="translate(-0.75 -0.59)"/><path class="cls-3" d="M134,120.82c-12.3,4.18-55.4-7.65-55.4-7.65S77.93,112,77,110c-3.11-6.24-9.06-20-3.92-24.54,3.93-3.51,17.88-6.89,26.06-4a24,24,0,0,1,4,1.81,18.11,18.11,0,0,1,7,6.78s17.4-.16,28.37,5.65c.29.15.57.31.85.47s.67.4,1,.61C151,103.69,146.34,116.65,134,120.82Z" transform="translate(-0.75 -0.59)"/><path class="cls-5" d="M138.45,95.72C121.92,102.79,100.71,107.86,77,110c-3.11-6.24-9.06-20-3.92-24.54,3.93-3.51,17.88-6.89,26.06-4a24,24,0,0,1,4,1.81,18.11,18.11,0,0,1,7,6.78S127.48,89.91,138.45,95.72Z" transform="translate(-0.75 -0.59)"/><path class="cls-7" d="M181.52,114.48c-9.4,18-40.09,31.12-76.49,31.12-20.74,0-39.62-4.27-53.77-11.26,0,0,39.42,15.72,81.9,6.62C173,131.92,181.52,114.48,181.52,114.48Z" transform="translate(-0.75 -0.59)"/><path class="cls-7" d="M143.68,99.72a10.66,10.66,0,0,1,2,10.62c-1.52,4.43-5.68,8.47-11.62,10.48-12.3,4.18-55.4-7.65-55.4-7.65s-.46-.81-1.15-2.15a8.72,8.72,0,0,0,1.73,1.77c9.78,3.09,45.07,11.89,57.21,5.82C152.27,110,143.68,99.72,143.68,99.72Z" transform="translate(-0.75 -0.59)"/><ellipse class="cls-2" cx="96" cy="97.66" rx="79.45" ry="42.71"/><rect class="cls-2" x="16.55" y="82.44" width="158.9" height="15.22"/><ellipse class="cls-3" cx="96" cy="82.44" rx="79.45" ry="42.71"/><ellipse class="cls-2" cx="96" cy="80.78" rx="64.88" ry="31.45"/><ellipse class="cls-4" cx="96" cy="83.27" rx="64.88" ry="30.62"/><path class="cls-2" d="M131,79.85c-10.89-6.29-29.23-6.12-29.23-6.12a18.11,18.11,0,0,0-7-6.78,23.17,23.17,0,0,0-4-1.81c-8.18-2.89-22.12.48-26.06,4-6.72,6,5.57,27.69,5.57,27.69s43.1,11.84,55.41,7.66,17-17.13,6.27-24l-1-.6" transform="translate(-0.75 -0.59)"/><rect class="cls-2" x="133.99" y="86.5" width="4" height="3.65" transform="translate(-0.88 -0.39) rotate(-0.08)"/><polygon class="cls-2" points="62.01 70.02 62.04 75.09 69.83 75.09 69.83 70.02 62.01 70.02"/><path class="cls-3" d="M131,76.33C120.14,70,101.8,70.21,101.8,70.21a18.11,18.11,0,0,0-7-6.78,24,24,0,0,0-4-1.81c-8.18-2.89-22.12.49-26.06,4-6.72,6,5.57,27.69,5.57,27.69s43.1,11.84,55.41,7.66,17-17.13,6.27-24l-1-.6" transform="translate(-0.75 -0.59)"/><path class="cls-5" d="M159,56.49a52.55,52.55,0,0,1-8,7.58c-11.6-8.52-31.54-14.15-54.18-14.15C60.92,49.92,31.87,64,31.87,81.37a10.53,10.53,0,0,0,.06,1.26,10,10,0,0,0-.06,1.23,15.64,15.64,0,0,0,1.86,7.29c-5.19-.15-10.3-.46-15.29-.89A23.7,23.7,0,0,1,17.3,83c0-23.59,35.57-42.71,79.45-42.71C122,40.32,144.43,46.63,159,56.49Z" transform="translate(-0.75 -0.59)"/><path class="cls-6" d="M125.75,101c-12.31,4.18-55.41-7.65-55.41-7.65s-.69-1.22-1.65-3.16c-3.11-6.24-9.06-20-3.92-24.53,3.93-3.51,17.89-6.89,26.06-4a24.08,24.08,0,0,1,4,1.81,18.11,18.11,0,0,1,7,6.78s17.39-.16,28.37,5.65c.29.15.57.31.85.47s.66.4,1,.61C142.74,83.83,138.06,96.79,125.75,101Z" transform="translate(-0.75 -0.59)"/><path class="cls-3" d="M125.75,101c-12.31,4.18-55.41-7.65-55.41-7.65s-.69-1.22-1.65-3.16c-3.11-6.24-9.06-20-3.92-24.53,3.93-3.51,17.89-6.89,26.06-4a24.08,24.08,0,0,1,4,1.81,18.11,18.11,0,0,1,7,6.78s17.39-.16,28.37,5.65c.29.15.57.31.85.47s.66.4,1,.61C142.74,83.83,138.06,96.79,125.75,101Z" transform="translate(-0.75 -0.59)"/><path class="cls-5" d="M130.18,75.86C113.64,82.93,92.43,88,68.69,90.15c-3.11-6.24-9.06-20-3.92-24.53,3.93-3.51,17.89-6.89,26.06-4a24.08,24.08,0,0,1,4,1.81,18.11,18.11,0,0,1,7,6.78S119.2,70.05,130.18,75.86Z" transform="translate(-0.75 -0.59)"/><path class="cls-7" d="M173.24,94.61c-9.39,18-40.08,31.13-76.49,31.13-20.74,0-39.62-4.27-53.77-11.26,0,0,39.43,15.72,81.91,6.62C164.75,112.06,173.24,94.61,173.24,94.61Z" transform="translate(-0.75 -0.59)"/><path class="cls-7" d="M135.4,79.86a10.63,10.63,0,0,1,2,10.62C135.84,94.9,131.68,99,125.75,101c-12.31,4.18-55.41-7.65-55.41-7.65s-.45-.81-1.14-2.16a8.31,8.31,0,0,0,1.72,1.77c9.79,3.1,45.07,11.9,57.21,5.83C144,90.15,135.4,79.86,135.4,79.86Z" transform="translate(-0.75 -0.59)"/><ellipse class="cls-2" cx="104.28" cy="77.79" rx="79.45" ry="42.71"/><rect class="cls-2" x="24.83" y="62.58" width="158.9" height="15.22"/><ellipse class="cls-3" cx="104.28" cy="62.58" rx="79.45" ry="42.71"/><ellipse class="cls-2" cx="104.28" cy="60.92" rx="64.88" ry="31.45"/><ellipse class="cls-4" cx="104.28" cy="63.4" rx="64.88" ry="30.62"/><path class="cls-2" d="M139.3,60c-10.89-6.29-29.22-6.13-29.22-6.13a18.13,18.13,0,0,0-7-6.77,23.53,23.53,0,0,0-4-1.82c-8.18-2.88-22.13.49-26.06,4C66.32,55.26,78.62,77,78.62,77s43.1,11.83,55.4,7.66,17-17.13,6.27-24q-.48-.31-1-.6" transform="translate(-0.75 -0.59)"/><rect class="cls-2" x="142.27" y="66.64" width="4" height="3.65" transform="translate(-0.85 -0.38) rotate(-0.08)"/><polygon class="cls-2" points="70.28 50.16 70.31 55.23 78.1 55.23 78.1 50.16 70.28 50.16"/><path class="cls-3" d="M139.3,56.47c-10.89-6.29-29.22-6.12-29.22-6.12a18.11,18.11,0,0,0-7-6.78,23.53,23.53,0,0,0-4-1.81c-8.18-2.89-22.13.48-26.06,4-6.73,6,5.57,27.69,5.57,27.69s43.1,11.84,55.4,7.66,17-17.13,6.27-24c-.32-.2-.65-.41-1-.6" transform="translate(-0.75 -0.59)"/><path class="cls-5" d="M167.26,36.62a52.57,52.57,0,0,1-8,7.59c-11.6-8.52-31.54-14.15-54.18-14.15-35.84,0-64.89,14.09-64.89,31.45q0,.63.06,1.26c0,.4-.06.81-.06,1.22A15.66,15.66,0,0,0,42,71.29c-5.19-.15-10.3-.46-15.29-.89a23.7,23.7,0,0,1-1.14-7.23c0-23.59,35.57-42.72,79.45-42.72C130.23,20.45,152.7,26.77,167.26,36.62Z" transform="translate(-0.75 -0.59)"/><path class="cls-6" d="M134,81.1c-12.3,4.18-55.4-7.66-55.4-7.66s-.69-1.21-1.65-3.15c-3.11-6.24-9.06-20-3.92-24.54,3.93-3.51,17.88-6.88,26.06-4a24,24,0,0,1,4,1.81,18.11,18.11,0,0,1,7,6.78s17.4-.16,28.37,5.65c.29.15.57.3.85.47l1,.6C151,64,146.34,76.93,134,81.1Z" transform="translate(-0.75 -0.59)"/><path class="cls-3" d="M134,81.1c-12.3,4.18-55.4-7.66-55.4-7.66s-.69-1.21-1.65-3.15c-3.11-6.24-9.06-20-3.92-24.54,3.93-3.51,17.88-6.88,26.06-4a24,24,0,0,1,4,1.81,18.11,18.11,0,0,1,7,6.78s17.4-.16,28.37,5.65c.29.15.57.3.85.47l1,.6C151,64,146.34,76.93,134,81.1Z" transform="translate(-0.75 -0.59)"/><path class="cls-5" d="M138.45,56C121.92,63.07,100.71,68.14,77,70.29c-3.11-6.24-9.06-20-3.92-24.54,3.93-3.51,17.88-6.88,26.06-4a24,24,0,0,1,4,1.81,18.11,18.11,0,0,1,7,6.78S127.48,50.19,138.45,56Z" transform="translate(-0.75 -0.59)"/><path class="cls-7" d="M181.52,74.75c-9.4,18-40.09,31.13-76.49,31.13-20.74,0-39.62-4.27-53.77-11.27,0,0,39.42,15.73,81.9,6.62C173,92.2,181.52,74.75,181.52,74.75Z" transform="translate(-0.75 -0.59)"/><path class="cls-7" d="M143.68,60a10.64,10.64,0,0,1,2,10.61C144.12,75,140,79.09,134,81.1c-12.3,4.18-55.4-7.66-55.4-7.66s-.46-.8-1.15-2.15a8.72,8.72,0,0,0,1.73,1.77c9.78,3.1,45.07,11.9,57.21,5.83C152.27,70.29,143.68,60,143.68,60Z" transform="translate(-0.75 -0.59)"/><ellipse class="cls-2" cx="87.72" cy="57.93" rx="79.45" ry="42.71"/><rect class="cls-2" x="8.28" y="42.71" width="158.9" height="15.22"/><ellipse class="cls-3" cx="87.72" cy="42.71" rx="79.45" ry="42.71"/><ellipse class="cls-2" cx="87.72" cy="41.06" rx="64.88" ry="31.45"/><ellipse class="cls-4" cx="87.72" cy="43.54" rx="64.88" ry="30.62"/><path class="cls-2" d="M122.75,40.13C111.86,33.84,93.53,34,93.53,34a18.06,18.06,0,0,0-7-6.77,23.53,23.53,0,0,0-4-1.82c-8.18-2.88-22.13.49-26.06,4-6.73,6,5.56,27.69,5.56,27.69s43.1,11.83,55.41,7.66,17-17.13,6.27-24q-.48-.31-1-.6" transform="translate(-0.75 -0.59)"/><rect class="cls-2" x="125.72" y="46.78" width="4" height="3.65" transform="translate(-0.82 -0.4) rotate(-0.08)"/><polygon class="cls-2" points="53.73 30.3 53.76 35.37 61.55 35.37 61.55 30.3 53.73 30.3"/><path class="cls-3" d="M122.75,36.61c-10.89-6.29-29.22-6.13-29.22-6.13a18.13,18.13,0,0,0-7-6.77,23.53,23.53,0,0,0-4-1.82c-8.18-2.88-22.13.49-26.06,4-6.73,6,5.56,27.69,5.56,27.69s43.1,11.83,55.41,7.66,17-17.13,6.27-24q-.48-.32-1-.6" transform="translate(-0.75 -0.59)"/><path class="cls-5" d="M150.71,16.76a53,53,0,0,1-8.05,7.58C131.05,15.83,111.12,10.2,88.47,10.2c-35.83,0-64.88,14.09-64.88,31.45q0,.63.06,1.26c0,.4-.06.81-.06,1.22a15.77,15.77,0,0,0,1.86,7.3q-7.78-.24-15.28-.89A23.42,23.42,0,0,1,9,43.3C9,19.72,44.6.59,88.47.59,113.68.59,136.15,6.91,150.71,16.76Z" transform="translate(-0.75 -0.59)"/><path class="cls-6" d="M117.47,61.24c-12.3,4.18-55.4-7.66-55.4-7.66s-.69-1.21-1.65-3.15c-3.11-6.24-9.06-20-3.92-24.54,3.93-3.51,17.88-6.88,26.06-4a23.53,23.53,0,0,1,4,1.82,18.13,18.13,0,0,1,7,6.77s17.4-.15,28.37,5.66c.29.15.57.3.85.47l1,.6C134.46,44.11,129.79,57.07,117.47,61.24Z" transform="translate(-0.75 -0.59)"/><path class="cls-3" d="M117.47,61.24c-12.3,4.18-55.4-7.66-55.4-7.66s-.69-1.21-1.65-3.15c-3.11-6.24-9.06-20-3.92-24.54,3.93-3.51,17.88-6.88,26.06-4a23.53,23.53,0,0,1,4,1.82,18.13,18.13,0,0,1,7,6.77s17.4-.15,28.37,5.66c.29.15.57.3.85.47l1,.6C134.46,44.11,129.79,57.07,117.47,61.24Z" transform="translate(-0.75 -0.59)"/><path class="cls-5" d="M121.9,36.14C105.37,43.2,84.15,48.28,60.42,50.43c-3.11-6.24-9.06-20-3.92-24.54,3.93-3.51,17.88-6.88,26.06-4a23.53,23.53,0,0,1,4,1.82,18.13,18.13,0,0,1,7,6.77S110.93,30.33,121.9,36.14Z" transform="translate(-0.75 -0.59)"/><path class="cls-7" d="M165,54.89C155.57,72.85,124.88,86,88.47,86c-20.73,0-39.61-4.27-53.76-11.27,0,0,39.42,15.73,81.9,6.62C156.47,72.34,165,54.89,165,54.89Z" transform="translate(-0.75 -0.59)"/><path class="cls-7" d="M127.12,40.14a10.62,10.62,0,0,1,2,10.61c-1.52,4.43-5.68,8.48-11.61,10.49-12.3,4.18-55.4-7.66-55.4-7.66s-.46-.8-1.15-2.15a8.72,8.72,0,0,0,1.73,1.77c9.78,3.1,45.07,11.9,57.2,5.83C135.72,50.43,127.12,40.14,127.12,40.14Z" transform="translate(-0.75 -0.59)"/></svg>