<svg id="Слой_1" data-name="Слой 1" xmlns="http://www.w3.org/2000/svg" viewBox="0 0 192 257.18"><defs><style>.cls-1{fill:#cacaca;opacity:0.5;}.cls-2{fill:#a1193f;}.cls-3{fill:#d9193f;}.cls-4{fill:#cf1842;}.cls-5,.cls-7{fill:#fff;}.cls-5{opacity:0.1;}.cls-6{fill:#bc193f;}</style></defs><title>regular-column</title><ellipse class="cls-1" cx="96" cy="207.97" rx="91.54" ry="49.21"/><ellipse class="cls-2" cx="96" cy="196.97" rx="79.45" ry="42.71"/><rect class="cls-2" x="16.55" y="181.75" width="158.9" height="15.22"/><ellipse class="cls-3" cx="96" cy="181.75" rx="79.45" ry="42.71"/><ellipse class="cls-2" cx="96" cy="180.09" rx="64.88" ry="31.45"/><ellipse class="cls-4" cx="96" cy="182.58" rx="64.88" ry="30.62"/><path class="cls-2" d="M129.78,179.47c-10.89-6.29-29.23-6.12-29.23-6.12a18.11,18.11,0,0,0-7-6.78,23.17,23.17,0,0,0-4-1.81c-8.18-2.89-22.12.48-26.06,4-6.72,6,5.57,27.69,5.57,27.69s43.1,11.84,55.41,7.66,17-17.13,6.27-24l-1-.6" transform="translate(0.5 -0.9)"/><rect class="cls-2" x="132.74" y="186.12" width="4" height="3.65" transform="matrix(1, 0, 0, 1, 0.22, -0.7)"/><polygon class="cls-2" points="62.01 169.34 62.04 174.41 69.83 174.41 69.83 169.34 62.01 169.34"/><path class="cls-3" d="M129.78,176c-10.89-6.29-29.23-6.12-29.23-6.12a18.11,18.11,0,0,0-7-6.78,24,24,0,0,0-4-1.81c-8.18-2.89-22.12.49-26.06,4-6.72,6,5.57,27.7,5.57,27.7s43.1,11.83,55.41,7.65,17-17.13,6.27-24l-1-.6" transform="translate(0.5 -0.9)"/><path class="cls-5" d="M157.73,156.11a52.55,52.55,0,0,1-8,7.58c-11.6-8.52-31.54-14.15-54.18-14.15-35.83,0-64.88,14.09-64.88,31.45a10.43,10.43,0,0,0,.06,1.26,10,10,0,0,0-.06,1.23,15.71,15.71,0,0,0,1.86,7.3c-5.19-.16-10.3-.47-15.29-.9a23.7,23.7,0,0,1-1.14-7.23c0-23.59,35.57-42.71,79.45-42.71C120.71,139.94,143.18,146.25,157.73,156.11Z" transform="translate(0.5 -0.9)"/><path class="cls-6" d="M124.5,200.58c-12.31,4.18-55.41-7.65-55.41-7.65s-.69-1.22-1.65-3.16c-3.11-6.24-9.06-20-3.92-24.53,3.93-3.51,17.89-6.89,26.06-4a24.08,24.08,0,0,1,4,1.81,18.11,18.11,0,0,1,7,6.78s17.39-.16,28.37,5.65c.29.15.57.31.85.47s.66.4,1,.61C141.49,183.45,136.81,196.41,124.5,200.58Z" transform="translate(0.5 -0.9)"/><path class="cls-3" d="M124.5,200.58c-12.31,4.18-55.41-7.65-55.41-7.65s-.69-1.22-1.65-3.16c-3.11-6.24-9.06-20-3.92-24.53,3.93-3.51,17.89-6.89,26.06-4a24.08,24.08,0,0,1,4,1.81,18.11,18.11,0,0,1,7,6.78s17.39-.16,28.37,5.65c.29.15.57.31.85.47s.66.4,1,.61C141.49,183.45,136.81,196.41,124.5,200.58Z" transform="translate(0.5 -0.9)"/><path class="cls-5" d="M128.93,175.48c-16.54,7.07-37.75,12.14-61.49,14.29-3.11-6.24-9.06-20-3.92-24.53,3.93-3.51,17.89-6.89,26.06-4a24.08,24.08,0,0,1,4,1.81,18.11,18.11,0,0,1,7,6.78S118,169.67,128.93,175.48Z" transform="translate(0.5 -0.9)"/><path class="cls-7" d="M172,194.23c-9.39,18-40.08,31.13-76.49,31.13-20.74,0-39.62-4.27-53.77-11.26,0,0,39.43,15.72,81.91,6.62C163.5,211.68,172,194.23,172,194.23Z" transform="translate(0.5 -0.9)"/><path class="cls-7" d="M134.15,179.48a10.63,10.63,0,0,1,2,10.62c-1.52,4.42-5.68,8.47-11.61,10.48-12.31,4.18-55.41-7.65-55.41-7.65s-.45-.81-1.14-2.16a8.31,8.31,0,0,0,1.72,1.77c9.79,3.1,45.07,11.9,57.21,5.83C142.74,189.77,134.15,179.48,134.15,179.48Z" transform="translate(0.5 -0.9)"/><ellipse class="cls-2" cx="104.28" cy="177.1" rx="79.45" ry="42.71"/><rect class="cls-2" x="24.83" y="161.89" width="158.9" height="15.22"/><ellipse class="cls-3" cx="104.28" cy="161.89" rx="79.45" ry="42.71"/><ellipse class="cls-2" cx="104.28" cy="160.23" rx="64.88" ry="31.45"/><ellipse class="cls-4" cx="104.28" cy="162.71" rx="64.88" ry="30.62"/><path class="cls-2" d="M138.05,159.61c-10.89-6.29-29.22-6.13-29.22-6.13a18.13,18.13,0,0,0-7-6.77,23.53,23.53,0,0,0-4-1.82c-8.18-2.88-22.13.49-26.06,4-6.73,6,5.57,27.69,5.57,27.69s43.1,11.83,55.4,7.66,17-17.13,6.27-24q-.48-.32-1-.6" transform="translate(0.5 -0.9)"/><rect class="cls-2" x="141.02" y="166.26" width="4" height="3.65" transform="matrix(1, 0, 0, 1, 0.25, -0.69)"/><polygon class="cls-2" points="70.28 149.47 70.31 154.54 78.1 154.54 78.1 149.47 70.28 149.47"/><path class="cls-3" d="M138.05,156.09c-10.89-6.29-29.22-6.12-29.22-6.12a18.11,18.11,0,0,0-7-6.78,23.53,23.53,0,0,0-4-1.81c-8.18-2.89-22.13.48-26.06,4-6.73,6,5.57,27.69,5.57,27.69s43.1,11.84,55.4,7.66,17-17.13,6.27-24l-1-.6" transform="translate(0.5 -0.9)"/><path class="cls-5" d="M166,136.25a53,53,0,0,1-8,7.58c-11.6-8.52-31.54-14.15-54.18-14.15-35.84,0-64.89,14.09-64.89,31.45,0,.42,0,.85.06,1.26s-.06.81-.06,1.22a15.66,15.66,0,0,0,1.87,7.3c-5.19-.15-10.3-.46-15.29-.89a23.7,23.7,0,0,1-1.14-7.23c0-23.59,35.57-42.72,79.45-42.72C129,120.07,151.45,126.39,166,136.25Z" transform="translate(0.5 -0.9)"/><path class="cls-6" d="M132.77,180.72c-12.3,4.18-55.4-7.66-55.4-7.66s-.69-1.21-1.65-3.15c-3.11-6.24-9.06-20-3.92-24.54,3.93-3.51,17.88-6.88,26.06-4a24,24,0,0,1,4,1.81,18.11,18.11,0,0,1,7,6.78s17.4-.16,28.37,5.65c.29.15.57.31.85.47s.67.4,1,.61C149.76,163.59,145.09,176.55,132.77,180.72Z" transform="translate(0.5 -0.9)"/><path class="cls-3" d="M132.77,180.72c-12.3,4.18-55.4-7.66-55.4-7.66s-.69-1.21-1.65-3.15c-3.11-6.24-9.06-20-3.92-24.54,3.93-3.51,17.88-6.88,26.06-4a24,24,0,0,1,4,1.81,18.11,18.11,0,0,1,7,6.78s17.4-.16,28.37,5.65c.29.15.57.31.85.47s.67.4,1,.61C149.76,163.59,145.09,176.55,132.77,180.72Z" transform="translate(0.5 -0.9)"/><path class="cls-5" d="M137.2,155.62c-16.53,7.07-37.74,12.14-61.48,14.29-3.11-6.24-9.06-20-3.92-24.54,3.93-3.51,17.88-6.88,26.06-4a24,24,0,0,1,4,1.81,18.11,18.11,0,0,1,7,6.78S126.23,149.81,137.2,155.62Z" transform="translate(0.5 -0.9)"/><path class="cls-7" d="M180.27,174.37c-9.4,18-40.09,31.13-76.49,31.13C83,205.5,64.16,201.23,50,194.23c0,0,39.42,15.73,81.9,6.63C171.78,191.82,180.27,174.37,180.27,174.37Z" transform="translate(0.5 -0.9)"/><path class="cls-7" d="M142.43,159.62a10.64,10.64,0,0,1,2,10.61c-1.52,4.43-5.68,8.48-11.62,10.49-12.3,4.18-55.4-7.66-55.4-7.66s-.46-.8-1.15-2.15A8.72,8.72,0,0,0,78,172.68c9.78,3.1,45.07,11.9,57.21,5.83C151,169.91,142.43,159.62,142.43,159.62Z" transform="translate(0.5 -0.9)"/><ellipse class="cls-2" cx="87.72" cy="157.24" rx="79.45" ry="42.71"/><rect class="cls-2" x="8.28" y="142.02" width="158.9" height="15.22"/><ellipse class="cls-3" cx="87.72" cy="142.02" rx="79.45" ry="42.71"/><ellipse class="cls-2" cx="87.72" cy="140.37" rx="64.88" ry="31.45"/><ellipse class="cls-4" cx="87.72" cy="142.85" rx="64.88" ry="30.62"/><path class="cls-2" d="M121.5,139.75c-10.89-6.29-29.22-6.13-29.22-6.13a18.06,18.06,0,0,0-7-6.77,23.53,23.53,0,0,0-4-1.82c-8.18-2.88-22.13.49-26.06,4-6.73,6,5.56,27.69,5.56,27.69s43.1,11.83,55.41,7.66,17-17.13,6.27-24q-.48-.32-1-.6" transform="translate(0.5 -0.9)"/><rect class="cls-2" x="124.47" y="146.4" width="4" height="3.65" transform="translate(0.28 -0.71) rotate(-0.08)"/><polygon class="cls-2" points="53.73 129.61 53.76 134.68 61.55 134.68 61.55 129.61 53.73 129.61"/><path class="cls-3" d="M121.5,136.23c-10.89-6.29-29.22-6.13-29.22-6.13a18.13,18.13,0,0,0-7-6.77,23.53,23.53,0,0,0-4-1.82c-8.18-2.88-22.13.49-26.06,4-6.73,6,5.56,27.69,5.56,27.69s43.1,11.83,55.41,7.66,17-17.13,6.27-24q-.48-.32-1-.6" transform="translate(0.5 -0.9)"/><path class="cls-5" d="M149.46,116.38a52.5,52.5,0,0,1-8.05,7.58c-11.61-8.51-31.54-14.14-54.19-14.14-35.83,0-64.88,14.09-64.88,31.45q0,.63.06,1.26c0,.4-.06.81-.06,1.22a15.77,15.77,0,0,0,1.86,7.3q-7.78-.24-15.28-.89a23.42,23.42,0,0,1-1.14-7.24c0-23.58,35.57-42.71,79.44-42.71C112.43,100.21,134.9,106.53,149.46,116.38Z" transform="translate(0.5 -0.9)"/><path class="cls-6" d="M116.22,160.86c-12.3,4.18-55.4-7.66-55.4-7.66s-.69-1.21-1.65-3.15c-3.11-6.24-9.06-20-3.92-24.54,3.93-3.51,17.88-6.88,26.06-4a23.53,23.53,0,0,1,4,1.82,18.13,18.13,0,0,1,7,6.77s17.4-.15,28.37,5.66c.29.15.57.3.85.47l1,.6C133.21,143.73,128.54,156.69,116.22,160.86Z" transform="translate(0.5 -0.9)"/><path class="cls-3" d="M116.22,160.86c-12.3,4.18-55.4-7.66-55.4-7.66s-.69-1.21-1.65-3.15c-3.11-6.24-9.06-20-3.92-24.54,3.93-3.51,17.88-6.88,26.06-4a23.53,23.53,0,0,1,4,1.82,18.13,18.13,0,0,1,7,6.77s17.4-.15,28.37,5.66c.29.15.57.3.85.47l1,.6C133.21,143.73,128.54,156.69,116.22,160.86Z" transform="translate(0.5 -0.9)"/><path class="cls-5" d="M120.65,135.76c-16.53,7.06-37.75,12.14-61.48,14.29-3.11-6.24-9.06-20-3.92-24.54,3.93-3.51,17.88-6.88,26.06-4a23.53,23.53,0,0,1,4,1.82,18.13,18.13,0,0,1,7,6.77S109.68,130,120.65,135.76Z" transform="translate(0.5 -0.9)"/><path class="cls-7" d="M163.71,154.51c-9.39,18-40.08,31.13-76.49,31.13-20.73,0-39.61-4.27-53.76-11.27,0,0,39.42,15.73,81.9,6.62C155.22,172,163.71,154.51,163.71,154.51Z" transform="translate(0.5 -0.9)"/><path class="cls-7" d="M125.87,139.76a10.62,10.62,0,0,1,2,10.61c-1.52,4.43-5.68,8.48-11.61,10.49-12.3,4.18-55.4-7.66-55.4-7.66s-.46-.8-1.15-2.15a8.72,8.72,0,0,0,1.73,1.77c9.78,3.1,45.07,11.9,57.2,5.83C134.47,150.05,125.87,139.76,125.87,139.76Z" transform="translate(0.5 -0.9)"/><ellipse class="cls-2" cx="96" cy="137.38" rx="79.45" ry="42.71"/><rect class="cls-2" x="16.55" y="122.16" width="158.9" height="15.22"/><ellipse class="cls-3" cx="96" cy="122.16" rx="79.45" ry="42.71"/><ellipse class="cls-2" cx="96" cy="120.51" rx="64.88" ry="31.45"/><ellipse class="cls-4" cx="96" cy="122.99" rx="64.88" ry="30.62"/><path class="cls-2" d="M129.78,119.89c-10.89-6.29-29.23-6.13-29.23-6.13a18.06,18.06,0,0,0-7-6.77,23.17,23.17,0,0,0-4-1.82c-8.18-2.89-22.12.49-26.06,4-6.72,6,5.57,27.69,5.57,27.69s43.1,11.83,55.41,7.65,17-17.13,6.27-24q-.5-.31-1-.6" transform="translate(0.5 -0.9)"/><rect class="cls-2" x="132.74" y="126.53" width="4" height="3.65" transform="matrix(1, 0, 0, 1, 0.31, -0.7)"/><polygon class="cls-2" points="62.01 109.75 62.04 114.82 69.83 114.82 69.83 109.75 62.01 109.75"/><path class="cls-3" d="M129.78,116.37c-10.89-6.29-29.23-6.13-29.23-6.13a18.06,18.06,0,0,0-7-6.77,23.17,23.17,0,0,0-4-1.82c-8.18-2.88-22.12.49-26.06,4-6.72,6,5.57,27.69,5.57,27.69s43.1,11.83,55.41,7.66,17-17.13,6.27-24q-.5-.31-1-.6" transform="translate(0.5 -0.9)"/><path class="cls-5" d="M157.73,96.52a52.07,52.07,0,0,1-8,7.58C138.08,95.59,118.14,90,95.5,90,59.67,90,30.62,104,30.62,121.41a10.36,10.36,0,0,0,.06,1.25,10.13,10.13,0,0,0-.06,1.23,15.65,15.65,0,0,0,1.86,7.3c-5.19-.16-10.3-.46-15.29-.89a23.77,23.77,0,0,1-1.14-7.24c0-23.58,35.57-42.71,79.45-42.71C120.71,80.35,143.18,86.66,157.73,96.52Z" transform="translate(0.5 -0.9)"/><path class="cls-6" d="M124.5,141c-12.31,4.18-55.41-7.66-55.41-7.66s-.69-1.22-1.65-3.15c-3.11-6.24-9.06-20-3.92-24.54,3.93-3.51,17.89-6.89,26.06-4a24.08,24.08,0,0,1,4,1.81,18.19,18.19,0,0,1,7,6.78s17.39-.15,28.37,5.66c.29.14.57.3.85.47s.66.39,1,.6C141.49,123.86,136.81,136.82,124.5,141Z" transform="translate(0.5 -0.9)"/><path class="cls-3" d="M124.5,141c-12.31,4.18-55.41-7.66-55.41-7.66s-.69-1.22-1.65-3.15c-3.11-6.24-9.06-20-3.92-24.54,3.93-3.51,17.89-6.89,26.06-4a24.08,24.08,0,0,1,4,1.81,18.19,18.19,0,0,1,7,6.78s17.39-.15,28.37,5.66c.29.14.57.3.85.47s.66.39,1,.6C141.49,123.86,136.81,136.82,124.5,141Z" transform="translate(0.5 -0.9)"/><path class="cls-5" d="M128.93,115.9C112.39,123,91.18,128,67.44,130.19c-3.11-6.24-9.06-20-3.92-24.54,3.93-3.51,17.89-6.89,26.06-4a24.08,24.08,0,0,1,4,1.81,18.19,18.19,0,0,1,7,6.78S118,110.09,128.93,115.9Z" transform="translate(0.5 -0.9)"/><path class="cls-7" d="M172,134.65c-9.39,18-40.08,31.13-76.49,31.13-20.74,0-39.62-4.27-53.77-11.27,0,0,39.43,15.72,81.91,6.62C163.5,152.1,172,134.65,172,134.65Z" transform="translate(0.5 -0.9)"/><path class="cls-7" d="M134.15,119.9a10.62,10.62,0,0,1,2,10.61c-1.52,4.43-5.68,8.48-11.61,10.49-12.31,4.18-55.41-7.66-55.41-7.66s-.45-.81-1.14-2.15A8.56,8.56,0,0,0,69.67,133c9.79,3.1,45.07,11.9,57.21,5.83C142.74,130.19,134.15,119.9,134.15,119.9Z" transform="translate(0.5 -0.9)"/><ellipse class="cls-2" cx="104.28" cy="117.52" rx="79.45" ry="42.71"/><rect class="cls-2" x="24.83" y="102.3" width="158.9" height="15.22"/><ellipse class="cls-3" cx="104.28" cy="102.3" rx="79.45" ry="42.71"/><ellipse class="cls-2" cx="104.28" cy="100.65" rx="64.88" ry="31.45"/><ellipse class="cls-4" cx="104.28" cy="103.13" rx="64.88" ry="30.62"/><path class="cls-2" d="M138.05,100c-10.89-6.29-29.22-6.12-29.22-6.12a18.11,18.11,0,0,0-7-6.78,24.35,24.35,0,0,0-4-1.81c-8.18-2.89-22.13.49-26.06,4-6.73,6,5.57,27.7,5.57,27.7s43.1,11.83,55.4,7.65,17-17.13,6.27-24c-.32-.21-.65-.41-1-.61" transform="translate(0.5 -0.9)"/><rect class="cls-2" x="141.02" y="106.67" width="4" height="3.65" transform="matrix(1, 0, 0, 1, 0.34, -0.69)"/><polygon class="cls-2" points="70.28 89.89 70.31 94.96 78.1 94.96 78.1 89.89 70.28 89.89"/><path class="cls-3" d="M138.05,96.51c-10.89-6.29-29.22-6.13-29.22-6.13a18.11,18.11,0,0,0-7-6.78,24.35,24.35,0,0,0-4-1.81c-8.18-2.89-22.13.49-26.06,4-6.73,6,5.57,27.69,5.57,27.69s43.1,11.83,55.4,7.65,17-17.13,6.27-24q-.48-.31-1-.6" transform="translate(0.5 -0.9)"/><path class="cls-5" d="M166,76.66a53,53,0,0,1-8,7.58c-11.6-8.52-31.54-14.14-54.18-14.14-35.84,0-64.89,14.08-64.89,31.44q0,.64.06,1.26c0,.41-.06.81-.06,1.23a15.72,15.72,0,0,0,1.87,7.3c-5.19-.16-10.3-.47-15.29-.9a23.65,23.65,0,0,1-1.14-7.23c0-23.59,35.57-42.71,79.45-42.71C129,60.49,151.45,66.8,166,76.66Z" transform="translate(0.5 -0.9)"/><path class="cls-6" d="M132.77,121.13c-12.3,4.18-55.4-7.65-55.4-7.65s-.69-1.22-1.65-3.15c-3.11-6.24-9.06-20-3.92-24.54,3.93-3.51,17.88-6.89,26.06-4a24,24,0,0,1,4,1.81,18.11,18.11,0,0,1,7,6.78s17.4-.16,28.37,5.65c.29.15.57.31.85.47s.67.4,1,.61C149.76,104,145.09,117,132.77,121.13Z" transform="translate(0.5 -0.9)"/><path class="cls-3" d="M132.77,121.13c-12.3,4.18-55.4-7.65-55.4-7.65s-.69-1.22-1.65-3.15c-3.11-6.24-9.06-20-3.92-24.54,3.93-3.51,17.88-6.89,26.06-4a24,24,0,0,1,4,1.81,18.11,18.11,0,0,1,7,6.78s17.4-.16,28.37,5.65c.29.15.57.31.85.47s.67.4,1,.61C149.76,104,145.09,117,132.77,121.13Z" transform="translate(0.5 -0.9)"/><path class="cls-5" d="M137.2,96c-16.53,7.07-37.74,12.14-61.48,14.3-3.11-6.24-9.06-20-3.92-24.54,3.93-3.51,17.88-6.89,26.06-4a24,24,0,0,1,4,1.81,18.11,18.11,0,0,1,7,6.78S126.23,90.22,137.2,96Z" transform="translate(0.5 -0.9)"/><path class="cls-7" d="M180.27,114.79c-9.4,18-40.09,31.12-76.49,31.12-20.74,0-39.62-4.27-53.77-11.26,0,0,39.42,15.72,81.9,6.62C171.78,132.23,180.27,114.79,180.27,114.79Z" transform="translate(0.5 -0.9)"/><path class="cls-7" d="M142.43,100a10.66,10.66,0,0,1,2,10.62c-1.52,4.43-5.68,8.47-11.62,10.48-12.3,4.18-55.4-7.65-55.4-7.65s-.46-.81-1.15-2.15A8.72,8.72,0,0,0,78,113.1c9.78,3.09,45.07,11.89,57.21,5.82C151,110.33,142.43,100,142.43,100Z" transform="translate(0.5 -0.9)"/><ellipse class="cls-2" cx="96" cy="97.66" rx="79.45" ry="42.71"/><rect class="cls-2" x="16.55" y="82.44" width="158.9" height="15.22"/><ellipse class="cls-3" cx="96" cy="82.44" rx="79.45" ry="42.71"/><ellipse class="cls-2" cx="96" cy="80.78" rx="64.88" ry="31.45"/><ellipse class="cls-4" cx="96" cy="83.27" rx="64.88" ry="30.62"/><path class="cls-2" d="M129.78,80.16C118.89,73.87,100.55,74,100.55,74a18.11,18.11,0,0,0-7-6.78,23.17,23.17,0,0,0-4-1.81c-8.18-2.89-22.12.48-26.06,4-6.72,6,5.57,27.69,5.57,27.69s43.1,11.84,55.41,7.66,17-17.13,6.27-24l-1-.6" transform="translate(0.5 -0.9)"/><rect class="cls-2" x="132.74" y="86.81" width="4" height="3.65" transform="matrix(1, 0, 0, 1, 0.37, -0.7)"/><polygon class="cls-2" points="62.01 70.02 62.04 75.09 69.83 75.09 69.83 70.02 62.01 70.02"/><path class="cls-3" d="M129.78,76.64c-10.89-6.29-29.23-6.12-29.23-6.12a18.11,18.11,0,0,0-7-6.78,24,24,0,0,0-4-1.81c-8.18-2.89-22.12.49-26.06,4-6.72,6,5.57,27.69,5.57,27.69s43.1,11.84,55.41,7.66,17-17.13,6.27-24l-1-.6" transform="translate(0.5 -0.9)"/><path class="cls-5" d="M157.73,56.8a52.55,52.55,0,0,1-8,7.58c-11.6-8.52-31.54-14.15-54.18-14.15-35.83,0-64.88,14.09-64.88,31.45a10.53,10.53,0,0,0,.06,1.26,10,10,0,0,0-.06,1.23,15.64,15.64,0,0,0,1.86,7.29c-5.19-.15-10.3-.46-15.29-.89a23.7,23.7,0,0,1-1.14-7.23c0-23.59,35.57-42.71,79.45-42.71C120.71,40.63,143.18,46.94,157.73,56.8Z" transform="translate(0.5 -0.9)"/><path class="cls-6" d="M124.5,101.27c-12.31,4.18-55.41-7.65-55.41-7.65s-.69-1.22-1.65-3.16c-3.11-6.24-9.06-20-3.92-24.53,3.93-3.51,17.89-6.89,26.06-4a24.08,24.08,0,0,1,4,1.81,18.11,18.11,0,0,1,7,6.78s17.39-.16,28.37,5.65c.29.15.57.31.85.47s.66.4,1,.61C141.49,84.14,136.81,97.1,124.5,101.27Z" transform="translate(0.5 -0.9)"/><path class="cls-3" d="M124.5,101.27c-12.31,4.18-55.41-7.65-55.41-7.65s-.69-1.22-1.65-3.16c-3.11-6.24-9.06-20-3.92-24.53,3.93-3.51,17.89-6.89,26.06-4a24.08,24.08,0,0,1,4,1.81,18.11,18.11,0,0,1,7,6.78s17.39-.16,28.37,5.65c.29.15.57.31.85.47s.66.4,1,.61C141.49,84.14,136.81,97.1,124.5,101.27Z" transform="translate(0.5 -0.9)"/><path class="cls-5" d="M128.93,76.17c-16.54,7.07-37.75,12.14-61.49,14.29-3.11-6.24-9.06-20-3.92-24.53,3.93-3.51,17.89-6.89,26.06-4a24.08,24.08,0,0,1,4,1.81,18.11,18.11,0,0,1,7,6.78S118,70.36,128.93,76.17Z" transform="translate(0.5 -0.9)"/><path class="cls-7" d="M172,94.92c-9.39,18-40.08,31.13-76.49,31.13-20.74,0-39.62-4.27-53.77-11.26,0,0,39.43,15.72,81.91,6.62C163.5,112.37,172,94.92,172,94.92Z" transform="translate(0.5 -0.9)"/><path class="cls-7" d="M134.15,80.17a10.63,10.63,0,0,1,2,10.62c-1.52,4.42-5.68,8.47-11.61,10.48-12.31,4.18-55.41-7.65-55.41-7.65s-.45-.81-1.14-2.16a8.31,8.31,0,0,0,1.72,1.77c9.79,3.1,45.07,11.9,57.21,5.83C142.74,90.46,134.15,80.17,134.15,80.17Z" transform="translate(0.5 -0.9)"/><ellipse class="cls-2" cx="79.45" cy="77.79" rx="79.45" ry="42.71"/><rect class="cls-2" y="62.58" width="158.9" height="15.22"/><ellipse class="cls-3" cx="79.45" cy="62.58" rx="79.45" ry="42.71"/><ellipse class="cls-2" cx="79.45" cy="60.92" rx="64.88" ry="31.45"/><ellipse class="cls-4" cx="79.45" cy="63.4" rx="64.88" ry="30.62"/><path class="cls-2" d="M113.23,60.3C102.33,54,84,54.17,84,54.17a18.13,18.13,0,0,0-7-6.77,23.17,23.17,0,0,0-4-1.82c-8.18-2.88-22.13.49-26.06,4-6.73,6,5.57,27.69,5.57,27.69s43.1,11.83,55.4,7.66,17-17.13,6.27-24c-.32-.21-.65-.41-1-.6" transform="translate(0.5 -0.9)"/><rect class="cls-2" x="116.19" y="66.95" width="4" height="3.65" transform="translate(0.4 -0.73) rotate(-0.08)"/><polygon class="cls-2" points="45.46 50.16 45.49 55.23 53.28 55.23 53.28 50.16 45.46 50.16"/><path class="cls-3" d="M113.23,56.78C102.33,50.49,84,50.66,84,50.66a18.11,18.11,0,0,0-7-6.78,23.17,23.17,0,0,0-4-1.81c-8.18-2.89-22.13.48-26.06,4-6.73,6,5.57,27.69,5.57,27.69s43.1,11.84,55.4,7.66,17-17.13,6.27-24l-1-.6" transform="translate(0.5 -0.9)"/><path class="cls-5" d="M141.18,36.94a52.55,52.55,0,0,1-8.05,7.58C121.53,36,101.59,30.37,79,30.37c-35.84,0-64.88,14.09-64.88,31.45,0,.42,0,.84,0,1.26s0,.81,0,1.22a15.65,15.65,0,0,0,1.86,7.3c-5.19-.15-10.3-.46-15.29-.89A23.7,23.7,0,0,1-.5,63.48C-.5,39.89,35.07,20.76,79,20.76,104.16,20.76,126.63,27.08,141.18,36.94Z" transform="translate(0.5 -0.9)"/><path class="cls-6" d="M108,81.41c-12.31,4.18-55.41-7.66-55.41-7.66s-.69-1.21-1.65-3.15c-3.11-6.24-9.06-20-3.92-24.54,3.93-3.51,17.88-6.88,26.06-4a24.47,24.47,0,0,1,4,1.81,18.13,18.13,0,0,1,7,6.78s17.4-.16,28.37,5.65l.86.47,1,.6C124.94,64.28,120.26,77.24,108,81.41Z" transform="translate(0.5 -0.9)"/><path class="cls-3" d="M108,81.41c-12.31,4.18-55.41-7.66-55.41-7.66s-.69-1.21-1.65-3.15c-3.11-6.24-9.06-20-3.92-24.54,3.93-3.51,17.88-6.88,26.06-4a24.47,24.47,0,0,1,4,1.81,18.13,18.13,0,0,1,7,6.78s17.4-.16,28.37,5.65l.86.47,1,.6C124.94,64.28,120.26,77.24,108,81.41Z" transform="translate(0.5 -0.9)"/><path class="cls-5" d="M112.37,56.31C95.84,63.38,74.63,68.45,50.89,70.6c-3.11-6.24-9.06-20-3.92-24.54,3.93-3.51,17.88-6.88,26.06-4a24.47,24.47,0,0,1,4,1.81,18.13,18.13,0,0,1,7,6.78S101.4,50.5,112.37,56.31Z" transform="translate(0.5 -0.9)"/><path class="cls-7" d="M155.44,75.06c-9.39,18-40.08,31.13-76.49,31.13-20.74,0-39.62-4.27-53.77-11.27,0,0,39.42,15.73,81.91,6.62C147,92.51,155.44,75.06,155.44,75.06Z" transform="translate(0.5 -0.9)"/><path class="cls-7" d="M117.6,60.31a10.62,10.62,0,0,1,2,10.61C118,75.35,113.88,79.4,108,81.41c-12.31,4.18-55.41-7.66-55.41-7.66s-.46-.8-1.14-2.15a8.56,8.56,0,0,0,1.72,1.77c9.78,3.1,45.07,11.9,57.21,5.83C126.19,70.6,117.6,60.31,117.6,60.31Z" transform="translate(0.5 -0.9)"/><ellipse class="cls-2" cx="112.55" cy="57.93" rx="79.45" ry="42.71"/><rect class="cls-2" x="33.1" y="42.71" width="158.9" height="15.22"/><ellipse class="cls-3" cx="112.55" cy="42.71" rx="79.45" ry="42.71"/><ellipse class="cls-2" cx="112.55" cy="41.06" rx="64.88" ry="31.45"/><ellipse class="cls-4" cx="112.55" cy="43.54" rx="64.88" ry="30.62"/><path class="cls-2" d="M146.33,40.44c-10.89-6.29-29.22-6.13-29.22-6.13a18.06,18.06,0,0,0-7-6.77,23.65,23.65,0,0,0-4-1.82c-8.17-2.88-22.12.49-26,4-6.73,6,5.56,27.69,5.56,27.69s43.1,11.83,55.41,7.66,17-17.13,6.27-24q-.48-.32-1-.6" transform="translate(0.5 -0.9)"/><rect class="cls-2" x="149.29" y="47.09" width="4" height="3.65" transform="translate(0.43 -0.68) rotate(-0.08)"/><polygon class="cls-2" points="78.56 30.3 78.59 35.37 86.38 35.37 86.38 30.3 78.56 30.3"/><path class="cls-3" d="M146.33,36.92c-10.89-6.29-29.22-6.13-29.22-6.13a18.13,18.13,0,0,0-7-6.77,23.65,23.65,0,0,0-4-1.82c-8.17-2.88-22.12.49-26,4-6.73,6,5.56,27.69,5.56,27.69s43.1,11.83,55.41,7.66,17-17.13,6.27-24q-.48-.32-1-.6" transform="translate(0.5 -0.9)"/><path class="cls-5" d="M174.29,17.07a52.61,52.61,0,0,1-8.06,7.58c-11.6-8.51-31.54-14.14-54.18-14.14C76.22,10.51,47.17,24.6,47.17,42q0,.63.06,1.26c0,.4-.06.81-.06,1.22A15.65,15.65,0,0,0,49,51.74q-7.78-.24-15.28-.89a23.43,23.43,0,0,1-1.15-7.24C32.6,20,68.17.9,112.05.9,137.26.9,159.73,7.22,174.29,17.07Z" transform="translate(0.5 -0.9)"/><path class="cls-6" d="M141.05,61.55c-12.31,4.18-55.41-7.66-55.41-7.66S85,52.68,84,50.74c-3.12-6.24-9.07-20-3.93-24.54,3.93-3.51,17.89-6.88,26.06-4a23.28,23.28,0,0,1,4,1.82,18.13,18.13,0,0,1,7,6.77s17.39-.15,28.37,5.66c.29.15.57.3.85.47l1,.6C158,44.42,153.36,57.38,141.05,61.55Z" transform="translate(0.5 -0.9)"/><path class="cls-3" d="M141.05,61.55c-12.31,4.18-55.41-7.66-55.41-7.66S85,52.68,84,50.74c-3.12-6.24-9.07-20-3.93-24.54,3.93-3.51,17.89-6.88,26.06-4a23.28,23.28,0,0,1,4,1.82,18.13,18.13,0,0,1,7,6.77s17.39-.15,28.37,5.66c.29.15.57.3.85.47l1,.6C158,44.42,153.36,57.38,141.05,61.55Z" transform="translate(0.5 -0.9)"/><path class="cls-5" d="M145.48,36.45C128.94,43.51,107.73,48.59,84,50.74c-3.12-6.24-9.07-20-3.93-24.54,3.93-3.51,17.89-6.88,26.06-4a23.28,23.28,0,0,1,4,1.82,18.13,18.13,0,0,1,7,6.77S134.5,30.64,145.48,36.45Z" transform="translate(0.5 -0.9)"/><path class="cls-7" d="M188.54,55.2c-9.39,18-40.08,31.13-76.49,31.13-20.73,0-39.62-4.27-53.76-11.27,0,0,39.42,15.73,81.9,6.62C180.05,72.65,188.54,55.2,188.54,55.2Z" transform="translate(0.5 -0.9)"/><path class="cls-7" d="M150.7,40.45a10.62,10.62,0,0,1,2,10.61c-1.52,4.43-5.68,8.48-11.61,10.49-12.31,4.18-55.41-7.66-55.41-7.66s-.45-.8-1.14-2.15a8.85,8.85,0,0,0,1.72,1.77c9.79,3.1,45.07,11.9,57.21,5.83C159.29,50.74,150.7,40.45,150.7,40.45Z" transform="translate(0.5 -0.9)"/></svg>