<svg id="Слой_1" data-name="Слой 1" xmlns="http://www.w3.org/2000/svg" viewBox="0 0 183.08 118.15"><defs><style>.cls-1{fill:#cacaca;opacity:0.5;}.cls-2{fill:#a1193f;}.cls-3{fill:#d9193f;}.cls-4{fill:#cf1842;}.cls-5,.cls-7{fill:#fff;}.cls-5{opacity:0.1;}.cls-6{fill:#bc193f;}</style></defs><title>thin-column</title><ellipse class="cls-1" cx="91.54" cy="68.93" rx="91.54" ry="49.21"/><ellipse class="cls-2" cx="91.54" cy="57.93" rx="79.45" ry="42.71"/><rect class="cls-2" x="12.09" y="42.71" width="158.9" height="15.22"/><ellipse class="cls-3" cx="91.54" cy="42.71" rx="79.45" ry="42.71"/><ellipse class="cls-2" cx="91.54" cy="41.06" rx="64.88" ry="31.45"/><ellipse class="cls-4" cx="91.54" cy="43.54" rx="64.88" ry="30.62"/><path class="cls-2" d="M126.28,39.47c-10.89-6.29-29.23-6.12-29.23-6.12a18.11,18.11,0,0,0-7-6.78,23.17,23.17,0,0,0-4-1.81c-8.18-2.89-22.12.48-26.06,4-6.72,6,5.57,27.69,5.57,27.69S108.69,68.28,121,64.1s17-17.13,6.27-24l-1-.6" transform="translate(-0.46 0.07)"/><rect class="cls-2" x="129.24" y="46.12" width="4" height="3.65" transform="translate(-0.53 0.26) rotate(-0.08)"/><polygon class="cls-2" points="57.55 30.3 57.58 35.37 65.37 35.37 65.37 30.3 57.55 30.3"/><path class="cls-3" d="M126.28,36c-10.89-6.29-29.23-6.12-29.23-6.12a18.11,18.11,0,0,0-7-6.78,24,24,0,0,0-4-1.81c-8.18-2.89-22.12.49-26.06,4-6.72,6,5.57,27.7,5.57,27.7s43.1,11.83,55.41,7.65,17-17.13,6.27-24l-1-.6" transform="translate(-0.46 0.07)"/><path class="cls-5" d="M154.23,16.11a52.55,52.55,0,0,1-8,7.58C134.58,15.17,114.64,9.54,92,9.54,56.17,9.54,27.12,23.63,27.12,41a10.43,10.43,0,0,0,.06,1.26,10,10,0,0,0-.06,1.23A15.71,15.71,0,0,0,29,50.78c-5.19-.16-10.3-.47-15.29-.9a23.7,23.7,0,0,1-1.14-7.23C12.55,19.06,48.12-.06,92-.06,117.21-.06,139.68,6.25,154.23,16.11Z" transform="translate(-0.46 0.07)"/><path class="cls-6" d="M121,60.58c-12.31,4.18-55.41-7.65-55.41-7.65s-.69-1.22-1.65-3.16c-3.11-6.24-9.06-20-3.92-24.53,3.93-3.51,17.89-6.89,26.06-4a24.08,24.08,0,0,1,4,1.81,18.11,18.11,0,0,1,7,6.78s17.39-.16,28.37,5.65c.29.15.57.31.85.47s.66.4,1,.61C138,43.45,133.31,56.41,121,60.58Z" transform="translate(-0.46 0.07)"/><path class="cls-3" d="M121,60.58c-12.31,4.18-55.41-7.65-55.41-7.65s-.69-1.22-1.65-3.16c-3.11-6.24-9.06-20-3.92-24.53,3.93-3.51,17.89-6.89,26.06-4a24.08,24.08,0,0,1,4,1.81,18.11,18.11,0,0,1,7,6.78s17.39-.16,28.37,5.65c.29.15.57.31.85.47s.66.4,1,.61C138,43.45,133.31,56.41,121,60.58Z" transform="translate(-0.46 0.07)"/><path class="cls-5" d="M125.43,35.48c-16.54,7.07-37.75,12.14-61.49,14.29-3.11-6.24-9.06-20-3.92-24.53,3.93-3.51,17.89-6.89,26.06-4a24.08,24.08,0,0,1,4,1.81,18.11,18.11,0,0,1,7,6.78S114.45,29.67,125.43,35.48Z" transform="translate(-0.46 0.07)"/><path class="cls-7" d="M168.49,54.23C159.1,72.2,128.41,85.36,92,85.36c-20.74,0-39.62-4.27-53.77-11.26,0,0,39.43,15.72,81.91,6.62C160,71.68,168.49,54.23,168.49,54.23Z" transform="translate(-0.46 0.07)"/><path class="cls-7" d="M130.65,39.48a10.63,10.63,0,0,1,2,10.62c-1.52,4.42-5.68,8.47-11.61,10.48-12.31,4.18-55.41-7.65-55.41-7.65s-.45-.81-1.14-2.16a8.31,8.31,0,0,0,1.72,1.77c9.79,3.1,45.07,11.9,57.21,5.83C139.24,49.77,130.65,39.48,130.65,39.48Z" transform="translate(-0.46 0.07)"/></svg>